M48
;GenerationSoftware,Autodesk,EAGLE,9.6.2*%
;CreationDate,2020-12-16T23:08:53Z*%
FMAT,2
ICI,OFF
METRIC,TZ,000.000
T10C0.305
T9C0.762
T8C0.800
T7C0.889
T6C1.000
T5C1.016
T4C1.100
T3C1.600
T2C2.000
T1C3.000
%
G90
M71
T1
X79900Y9900
X9900Y9900
X149900Y9900
X102870Y8255
X123190Y8255
X123190Y34290
X102870Y34290
T2
X16636Y6350
X60324Y6350
X16636Y29210
X60324Y29210
T3
X14780Y63060
X11780Y67760
X17780Y67760
T4
X30480Y68580
X25400Y68580
T5
X37464Y29210
X34924Y29210
X40004Y29210
X42544Y29210
T6
X118110Y5080
X115570Y5080
X113030Y5080
X110490Y5080
X107950Y5080
T7
X97350Y68300
X140530Y45440
X140530Y42900
X137990Y45440
X137990Y42900
X135450Y45440
X135450Y42900
X132910Y45440
X132910Y42900
X130370Y45440
X130370Y42900
X127830Y45440
X127830Y42900
X125290Y45440
X125290Y42900
X122750Y45440
X122750Y42900
X120210Y45440
X120210Y42900
X117670Y45440
X117670Y42900
X115130Y45440
X115130Y42900
X112590Y68300
X112590Y42900
X110050Y45440
X110050Y42900
X107510Y45440
X107510Y42900
X104970Y45440
X102430Y45440
X102430Y42900
X99890Y45440
X99890Y42900
X97350Y45440
X97350Y42900
X127830Y70840
X127830Y68300
X125290Y70840
X125290Y68300
X122750Y70840
X104970Y42900
X122750Y68300
X120210Y70840
X120210Y68300
X117670Y70840
X117670Y68300
X115130Y70840
X112590Y70840
X110050Y70840
X110050Y68300
X107510Y70840
X107510Y68300
X104970Y70840
X104970Y68300
X102430Y70840
X102430Y68300
X115130Y68300
X99890Y70840
X112590Y45440
X99890Y68300
X97350Y70840
X130370Y68300
X130370Y70840
X132910Y68300
X132910Y70840
X135450Y68300
X135450Y70840
X137990Y68300
X137990Y70840
X140530Y68300
X140530Y70840
T8
X26060Y50400
X26060Y43900
T9
X15717Y63086
X13710Y63086
X17749Y68827
X17774Y66795
X11755Y66795
X11780Y68801
T10
X49530Y62484
X46990Y65532
X46990Y62484
X62230Y70866
X44450Y64262
X44450Y62484
X117602Y61468
X137160Y18415
X99822Y65532
X95504Y62738
X137668Y52832
X132588Y58166
X118872Y57150
X118872Y61468
X99822Y57912
X106172Y61468
X137922Y24384
X143256Y24892
X98806Y51308
X107188Y61468
X99822Y53340
X109728Y61468
X97028Y52832
X103632Y61468
X99822Y49276
X95758Y61214
X97282Y73406
X86360Y65532
X14478Y57658
X30480Y27178
X141986Y38100
X75184Y67564
X79756Y71628
X80010Y38252
X79756Y43942
X37084Y40132
X34544Y40132
X74168Y38100
X124968Y52578
X112590Y61536
X46228Y29210
X75692Y39116
X75692Y40386
X7112Y57658
X33020Y68580
X62230Y48006
X52070Y48006
X73660Y66040
X46990Y48006
X69596Y71628
X59690Y62484
X74168Y40386
X69850Y42926
X69850Y43688
X79860Y43076
X122428Y52578
X114808Y52578
X113792Y52578
X115316Y63246
X74168Y39116
X54610Y68326
X54610Y62484
X52070Y67310
X52070Y62484
X49530Y66548
X57150Y69088
X57150Y62484
X62230Y62484
X59690Y69850
M30