G04 EAGLE Gerber RS-274X export*
G75*
%MOMM*%
%FSLAX34Y34*%
%LPD*%
%INBottom Copper*%
%IPPOS*%
%AMOC8*
5,1,8,0,0,1.08239X$1,22.5*%
G01*
%ADD10C,1.778000*%
%ADD11C,1.120000*%
%ADD12C,2.240000*%
%ADD13R,1.400000X1.400000*%
%ADD14C,1.400000*%
%ADD15C,4.016000*%
%ADD16C,2.184400*%
%ADD17R,1.524000X1.524000*%
%ADD18P,1.649562X8X22.500000*%
%ADD19C,0.609600*%
%ADD20C,0.254000*%


D10*
X349240Y292100D03*
X374640Y292100D03*
X400040Y292100D03*
X425440Y292100D03*
D11*
X260600Y504000D03*
X260600Y439000D03*
D12*
X177800Y666400D02*
X177800Y688800D01*
X117800Y688800D02*
X117800Y666400D01*
X136600Y630600D02*
X159000Y630600D01*
D13*
X1079500Y50800D03*
D14*
X1104900Y50800D03*
X1130300Y50800D03*
X1155700Y50800D03*
X1181100Y50800D03*
D15*
X1499000Y99000D03*
X99000Y99000D03*
X799000Y99000D03*
D16*
X254000Y674878D02*
X254000Y696722D01*
X304800Y696722D02*
X304800Y674878D01*
D17*
X973500Y429000D03*
D18*
X973500Y454400D03*
X998900Y429000D03*
X998900Y454400D03*
X1024300Y429000D03*
X1024300Y454400D03*
X1049700Y429000D03*
X1049700Y454400D03*
X1075100Y429000D03*
X1075100Y454400D03*
X1100500Y429000D03*
X1100500Y454400D03*
X1125900Y429000D03*
X1125900Y454400D03*
X1151300Y429000D03*
X1151300Y454400D03*
X1176700Y429000D03*
X1176700Y454400D03*
X1202100Y429000D03*
X1202100Y454400D03*
X1227500Y429000D03*
X1227500Y454400D03*
X1252900Y429000D03*
X1252900Y454400D03*
X1278300Y429000D03*
X1278300Y454400D03*
X1303700Y429000D03*
X1303700Y454400D03*
X1329100Y429000D03*
X1329100Y454400D03*
X1354500Y429000D03*
X1354500Y454400D03*
X1379900Y429000D03*
X1379900Y454400D03*
X1405300Y429000D03*
X1405300Y454400D03*
D17*
X973500Y683000D03*
D18*
X973500Y708400D03*
X998900Y683000D03*
X998900Y708400D03*
X1024300Y683000D03*
X1024300Y708400D03*
X1049700Y683000D03*
X1049700Y708400D03*
X1075100Y683000D03*
X1075100Y708400D03*
X1100500Y683000D03*
X1100500Y708400D03*
X1125900Y683000D03*
X1125900Y708400D03*
X1151300Y683000D03*
X1151300Y708400D03*
X1176700Y683000D03*
X1176700Y708400D03*
X1202100Y683000D03*
X1202100Y708400D03*
X1227500Y683000D03*
X1227500Y708400D03*
X1252900Y683000D03*
X1252900Y708400D03*
X1278300Y683000D03*
X1278300Y708400D03*
X1303700Y683000D03*
X1303700Y708400D03*
X1329100Y683000D03*
X1329100Y708400D03*
X1354500Y683000D03*
X1354500Y708400D03*
X1379900Y683000D03*
X1379900Y708400D03*
X1405300Y683000D03*
X1405300Y708400D03*
D19*
X1153160Y632460D03*
X1137920Y525780D03*
X1148080Y525780D03*
X1224280Y525780D03*
X798599Y430761D03*
X698500Y436880D03*
X698500Y429260D03*
X741680Y403860D03*
X741680Y391160D03*
X695960Y716280D03*
X469900Y480060D03*
X520700Y480060D03*
X622300Y480060D03*
X330200Y685800D03*
X71120Y576580D03*
X756920Y403860D03*
X756920Y391160D03*
X462280Y292100D03*
X1125900Y615360D03*
X1249680Y525780D03*
X741680Y381000D03*
X736600Y660400D03*
X345440Y401320D03*
X370840Y401320D03*
X797560Y439420D03*
X800100Y382524D03*
X797560Y716280D03*
X751840Y675640D03*
X1419860Y381000D03*
D20*
X990600Y381000D01*
X988060Y378460D01*
X988060Y297180D01*
X962660Y271780D01*
X304800Y271780D01*
D19*
X304800Y271780D03*
X144780Y576580D03*
X863600Y655320D03*
D20*
X942340Y734060D01*
X972820Y734060D01*
D19*
X972820Y734060D03*
X957580Y612140D03*
D20*
X960120Y609600D01*
X960120Y492760D01*
X998220Y492760D01*
D19*
X998220Y492760D03*
X1036320Y614680D03*
X970280Y528320D03*
D20*
X970280Y571500D01*
X1013460Y614680D01*
X1036320Y614680D01*
D19*
X1097280Y614680D03*
X998220Y533400D03*
D20*
X1094740Y533400D01*
X1097280Y535940D01*
X1097280Y614680D01*
D19*
X1071880Y614680D03*
X988060Y513080D03*
D20*
X988060Y543560D01*
X1071880Y543560D01*
X1074420Y546100D01*
X1074420Y612140D01*
X1071880Y614680D01*
D19*
X1432560Y248920D03*
D20*
X1384300Y248920D01*
X1379220Y243840D01*
D19*
X1379220Y243840D03*
X1061720Y614680D03*
X998220Y579120D03*
D20*
X1021080Y601980D01*
X1061720Y601980D01*
X1061720Y614680D01*
D19*
X1188720Y614680D03*
X1188720Y571500D03*
D20*
X1188720Y614680D01*
D19*
X1325880Y581660D03*
D20*
X1376680Y530860D01*
X1376680Y528320D01*
D19*
X1376680Y528320D03*
X955040Y627380D03*
D20*
X998220Y627380D01*
X998220Y655320D01*
D19*
X998220Y655320D03*
D20*
X1371600Y184150D02*
X1466850Y184150D01*
D19*
X1371600Y184150D03*
X1176020Y614680D03*
D20*
X1188720Y627380D01*
X1465580Y627380D01*
X1466850Y626110D01*
X1466850Y184150D01*
D19*
X444500Y624840D03*
X444500Y642620D03*
D20*
X444500Y624840D01*
D19*
X469900Y624840D03*
X469900Y655320D03*
D20*
X469900Y624840D01*
D19*
X495300Y624840D03*
X495300Y665480D03*
D20*
X495300Y624840D01*
D19*
X520700Y624840D03*
X520700Y673100D03*
D20*
X520700Y624840D01*
D19*
X546100Y624840D03*
X546100Y683260D03*
D20*
X546100Y624840D01*
D19*
X596900Y624840D03*
X596900Y698500D03*
D20*
X596900Y624840D01*
D19*
X622300Y624840D03*
X622300Y708660D03*
D20*
X622300Y624840D01*
D19*
X571500Y624840D03*
X571500Y690880D03*
D20*
X571500Y624840D01*
M02*
