G04 EAGLE Gerber RS-274X export*
G75*
%MOMM*%
%FSLAX34Y34*%
%LPD*%
%INCopper Layer 15*%
%IPPOS*%
%AMOC8*
5,1,8,0,0,1.08239X$1,22.5*%
G01*
%ADD10C,1.422400*%
%ADD11C,1.120000*%
%ADD12C,2.240000*%
%ADD13C,1.400000*%
%ADD14C,4.016000*%
%ADD15C,1.540000*%
%ADD16C,1.244600*%
%ADD17C,0.609600*%

G36*
X1594308Y2556D02*
X1594308Y2556D01*
X1594427Y2563D01*
X1594465Y2576D01*
X1594506Y2581D01*
X1594616Y2624D01*
X1594729Y2661D01*
X1594764Y2683D01*
X1594801Y2698D01*
X1594897Y2767D01*
X1594998Y2831D01*
X1595026Y2861D01*
X1595059Y2884D01*
X1595135Y2976D01*
X1595216Y3063D01*
X1595236Y3098D01*
X1595261Y3129D01*
X1595312Y3237D01*
X1595370Y3341D01*
X1595380Y3381D01*
X1595397Y3417D01*
X1595419Y3534D01*
X1595449Y3649D01*
X1595453Y3709D01*
X1595457Y3729D01*
X1595455Y3750D01*
X1595459Y3810D01*
X1595459Y758190D01*
X1595444Y758308D01*
X1595437Y758427D01*
X1595424Y758465D01*
X1595419Y758506D01*
X1595376Y758616D01*
X1595339Y758729D01*
X1595317Y758764D01*
X1595302Y758801D01*
X1595233Y758897D01*
X1595169Y758998D01*
X1595139Y759026D01*
X1595116Y759059D01*
X1595024Y759135D01*
X1594937Y759216D01*
X1594902Y759236D01*
X1594871Y759261D01*
X1594763Y759312D01*
X1594659Y759370D01*
X1594619Y759380D01*
X1594583Y759397D01*
X1594466Y759419D01*
X1594351Y759449D01*
X1594291Y759453D01*
X1594271Y759457D01*
X1594250Y759455D01*
X1594190Y759459D01*
X3810Y759459D01*
X3692Y759444D01*
X3573Y759437D01*
X3535Y759424D01*
X3494Y759419D01*
X3384Y759376D01*
X3271Y759339D01*
X3236Y759317D01*
X3199Y759302D01*
X3103Y759233D01*
X3002Y759169D01*
X2974Y759139D01*
X2941Y759116D01*
X2865Y759024D01*
X2784Y758937D01*
X2764Y758902D01*
X2739Y758871D01*
X2688Y758763D01*
X2630Y758659D01*
X2620Y758619D01*
X2603Y758583D01*
X2581Y758466D01*
X2551Y758351D01*
X2547Y758291D01*
X2543Y758271D01*
X2545Y758250D01*
X2541Y758190D01*
X2541Y3810D01*
X2556Y3692D01*
X2563Y3573D01*
X2576Y3535D01*
X2581Y3494D01*
X2624Y3384D01*
X2661Y3271D01*
X2683Y3236D01*
X2698Y3199D01*
X2767Y3103D01*
X2831Y3002D01*
X2861Y2974D01*
X2884Y2941D01*
X2976Y2865D01*
X3063Y2784D01*
X3098Y2764D01*
X3129Y2739D01*
X3237Y2688D01*
X3341Y2630D01*
X3381Y2620D01*
X3417Y2603D01*
X3534Y2581D01*
X3649Y2551D01*
X3709Y2547D01*
X3729Y2543D01*
X3750Y2545D01*
X3810Y2541D01*
X1594190Y2541D01*
X1594308Y2556D01*
G37*
%LPC*%
G36*
X411382Y263397D02*
X411382Y263397D01*
X409447Y265332D01*
X409447Y284792D01*
X409430Y284929D01*
X409417Y285068D01*
X409410Y285088D01*
X409407Y285108D01*
X409356Y285236D01*
X409309Y285368D01*
X409298Y285384D01*
X409290Y285403D01*
X409209Y285516D01*
X409131Y285631D01*
X409115Y285644D01*
X409104Y285661D01*
X408996Y285749D01*
X408892Y285841D01*
X408874Y285850D01*
X408859Y285863D01*
X408733Y285923D01*
X408609Y285986D01*
X408589Y285990D01*
X408571Y285999D01*
X408434Y286025D01*
X408299Y286056D01*
X408278Y286055D01*
X408259Y286059D01*
X408120Y286050D01*
X407981Y286046D01*
X407961Y286040D01*
X407941Y286039D01*
X407809Y285996D01*
X407675Y285957D01*
X407658Y285947D01*
X407639Y285941D01*
X407521Y285866D01*
X407401Y285796D01*
X407380Y285777D01*
X407370Y285771D01*
X407356Y285756D01*
X407281Y285690D01*
X405508Y283917D01*
X401960Y282447D01*
X398120Y282447D01*
X394572Y283917D01*
X391857Y286632D01*
X390387Y290180D01*
X390387Y294020D01*
X391857Y297568D01*
X394572Y300283D01*
X398120Y301753D01*
X401960Y301753D01*
X405508Y300283D01*
X407281Y298510D01*
X407390Y298425D01*
X407497Y298337D01*
X407516Y298328D01*
X407532Y298316D01*
X407660Y298260D01*
X407785Y298201D01*
X407805Y298197D01*
X407824Y298189D01*
X407962Y298167D01*
X408098Y298141D01*
X408118Y298143D01*
X408138Y298139D01*
X408277Y298152D01*
X408415Y298161D01*
X408434Y298167D01*
X408454Y298169D01*
X408586Y298216D01*
X408717Y298259D01*
X408735Y298270D01*
X408754Y298277D01*
X408869Y298355D01*
X408986Y298429D01*
X409000Y298444D01*
X409017Y298455D01*
X409109Y298560D01*
X409204Y298661D01*
X409214Y298679D01*
X409227Y298694D01*
X409291Y298818D01*
X409358Y298939D01*
X409363Y298959D01*
X409372Y298977D01*
X409402Y299113D01*
X409437Y299247D01*
X409439Y299275D01*
X409442Y299287D01*
X409441Y299308D01*
X409447Y299408D01*
X409447Y325218D01*
X411382Y327153D01*
X639456Y327153D01*
X639554Y327165D01*
X639653Y327168D01*
X639712Y327185D01*
X639772Y327193D01*
X639864Y327229D01*
X639959Y327257D01*
X640011Y327287D01*
X640067Y327310D01*
X640147Y327368D01*
X640233Y327418D01*
X640308Y327484D01*
X640325Y327496D01*
X640333Y327506D01*
X640354Y327524D01*
X703482Y390653D01*
X725678Y390653D01*
X725796Y390668D01*
X725915Y390675D01*
X725953Y390688D01*
X725994Y390693D01*
X726104Y390736D01*
X726217Y390773D01*
X726252Y390795D01*
X726289Y390810D01*
X726385Y390879D01*
X726486Y390943D01*
X726514Y390973D01*
X726547Y390996D01*
X726622Y391088D01*
X726704Y391175D01*
X726724Y391210D01*
X726749Y391241D01*
X726800Y391349D01*
X726858Y391453D01*
X726868Y391493D01*
X726885Y391529D01*
X726907Y391646D01*
X726937Y391761D01*
X726941Y391821D01*
X726945Y391841D01*
X726943Y391862D01*
X726947Y391922D01*
X726947Y643128D01*
X726932Y643246D01*
X726925Y643365D01*
X726912Y643403D01*
X726907Y643444D01*
X726864Y643554D01*
X726827Y643667D01*
X726805Y643702D01*
X726790Y643739D01*
X726721Y643835D01*
X726657Y643936D01*
X726627Y643964D01*
X726604Y643997D01*
X726512Y644073D01*
X726425Y644154D01*
X726390Y644174D01*
X726359Y644199D01*
X726251Y644250D01*
X726147Y644308D01*
X726107Y644318D01*
X726071Y644335D01*
X725954Y644357D01*
X725839Y644387D01*
X725779Y644391D01*
X725759Y644395D01*
X725738Y644393D01*
X725678Y644397D01*
X712372Y644397D01*
X710437Y646332D01*
X710437Y668118D01*
X712372Y670053D01*
X1109218Y670053D01*
X1109336Y670068D01*
X1109455Y670075D01*
X1109493Y670088D01*
X1109534Y670093D01*
X1109644Y670136D01*
X1109757Y670173D01*
X1109792Y670195D01*
X1109829Y670210D01*
X1109925Y670279D01*
X1110026Y670343D01*
X1110054Y670373D01*
X1110087Y670396D01*
X1110163Y670488D01*
X1110244Y670575D01*
X1110264Y670610D01*
X1110289Y670641D01*
X1110340Y670749D01*
X1110398Y670853D01*
X1110408Y670893D01*
X1110425Y670929D01*
X1110447Y671046D01*
X1110477Y671161D01*
X1110481Y671221D01*
X1110485Y671241D01*
X1110483Y671262D01*
X1110487Y671322D01*
X1110487Y677830D01*
X1110479Y677899D01*
X1110480Y677969D01*
X1110459Y678056D01*
X1110447Y678145D01*
X1110422Y678210D01*
X1110405Y678278D01*
X1110363Y678358D01*
X1110330Y678441D01*
X1110289Y678497D01*
X1110257Y678559D01*
X1110196Y678626D01*
X1110144Y678698D01*
X1110090Y678743D01*
X1110043Y678795D01*
X1109968Y678844D01*
X1109899Y678901D01*
X1109835Y678931D01*
X1109777Y678969D01*
X1109692Y678998D01*
X1109611Y679037D01*
X1109542Y679050D01*
X1109476Y679072D01*
X1109387Y679080D01*
X1109299Y679096D01*
X1109229Y679092D01*
X1109159Y679098D01*
X1109071Y679082D01*
X1108981Y679077D01*
X1108915Y679055D01*
X1108846Y679043D01*
X1108764Y679006D01*
X1108679Y678979D01*
X1108620Y678941D01*
X1108556Y678913D01*
X1108486Y678857D01*
X1108410Y678809D01*
X1108362Y678758D01*
X1108308Y678714D01*
X1108253Y678642D01*
X1108192Y678577D01*
X1108158Y678516D01*
X1108116Y678460D01*
X1108045Y678315D01*
X1107930Y678036D01*
X1105464Y675570D01*
X1102243Y674236D01*
X1098757Y674236D01*
X1095536Y675570D01*
X1093070Y678036D01*
X1091736Y681257D01*
X1091736Y684743D01*
X1093070Y687964D01*
X1095536Y690430D01*
X1098757Y691764D01*
X1102243Y691764D01*
X1105464Y690430D01*
X1107930Y687964D01*
X1108045Y687685D01*
X1108080Y687624D01*
X1108106Y687559D01*
X1108158Y687486D01*
X1108203Y687408D01*
X1108251Y687358D01*
X1108292Y687302D01*
X1108362Y687244D01*
X1108424Y687180D01*
X1108484Y687143D01*
X1108537Y687099D01*
X1108619Y687061D01*
X1108695Y687014D01*
X1108762Y686993D01*
X1108825Y686963D01*
X1108913Y686946D01*
X1108999Y686920D01*
X1109069Y686917D01*
X1109138Y686904D01*
X1109227Y686909D01*
X1109317Y686905D01*
X1109385Y686919D01*
X1109455Y686923D01*
X1109540Y686951D01*
X1109628Y686969D01*
X1109691Y687000D01*
X1109757Y687021D01*
X1109833Y687069D01*
X1109914Y687109D01*
X1109967Y687154D01*
X1110026Y687191D01*
X1110088Y687257D01*
X1110156Y687315D01*
X1110196Y687372D01*
X1110244Y687423D01*
X1110287Y687502D01*
X1110339Y687575D01*
X1110364Y687640D01*
X1110398Y687702D01*
X1110420Y687789D01*
X1110452Y687873D01*
X1110460Y687942D01*
X1110477Y688010D01*
X1110487Y688170D01*
X1110487Y699868D01*
X1112422Y701803D01*
X1117247Y701803D01*
X1117297Y701809D01*
X1117346Y701807D01*
X1117454Y701829D01*
X1117563Y701843D01*
X1117609Y701861D01*
X1117658Y701871D01*
X1117756Y701919D01*
X1117859Y701960D01*
X1117899Y701989D01*
X1117943Y702011D01*
X1118027Y702082D01*
X1118116Y702146D01*
X1118148Y702185D01*
X1118185Y702217D01*
X1118249Y702307D01*
X1118319Y702391D01*
X1118340Y702436D01*
X1118368Y702477D01*
X1118407Y702580D01*
X1118454Y702679D01*
X1118464Y702728D01*
X1118481Y702774D01*
X1118493Y702884D01*
X1118514Y702991D01*
X1118511Y703041D01*
X1118516Y703090D01*
X1118501Y703199D01*
X1118494Y703309D01*
X1118479Y703356D01*
X1118472Y703405D01*
X1118420Y703558D01*
X1117136Y706657D01*
X1117136Y710143D01*
X1118470Y713364D01*
X1120936Y715830D01*
X1124157Y717164D01*
X1127643Y717164D01*
X1130864Y715830D01*
X1133330Y713364D01*
X1134664Y710143D01*
X1134664Y706657D01*
X1133380Y703558D01*
X1133367Y703510D01*
X1133346Y703465D01*
X1133325Y703357D01*
X1133296Y703251D01*
X1133295Y703201D01*
X1133286Y703152D01*
X1133293Y703043D01*
X1133291Y702933D01*
X1133303Y702885D01*
X1133306Y702835D01*
X1133340Y702731D01*
X1133365Y702624D01*
X1133388Y702580D01*
X1133404Y702533D01*
X1133463Y702440D01*
X1133514Y702343D01*
X1133547Y702306D01*
X1133574Y702264D01*
X1133654Y702189D01*
X1133728Y702107D01*
X1133769Y702080D01*
X1133806Y702046D01*
X1133902Y701993D01*
X1133994Y701933D01*
X1134041Y701916D01*
X1134084Y701892D01*
X1134190Y701865D01*
X1134294Y701829D01*
X1134344Y701825D01*
X1134392Y701813D01*
X1134553Y701803D01*
X1140558Y701803D01*
X1142493Y699868D01*
X1142493Y689651D01*
X1142510Y689513D01*
X1142523Y689374D01*
X1142530Y689355D01*
X1142533Y689335D01*
X1142584Y689206D01*
X1142631Y689075D01*
X1142642Y689058D01*
X1142650Y689040D01*
X1142731Y688927D01*
X1142809Y688812D01*
X1142825Y688799D01*
X1142836Y688782D01*
X1142944Y688693D01*
X1143048Y688601D01*
X1143066Y688592D01*
X1143081Y688579D01*
X1143207Y688520D01*
X1143331Y688457D01*
X1143351Y688452D01*
X1143369Y688444D01*
X1143506Y688418D01*
X1143641Y688387D01*
X1143662Y688388D01*
X1143681Y688384D01*
X1143820Y688393D01*
X1143959Y688397D01*
X1143979Y688403D01*
X1143999Y688404D01*
X1144131Y688447D01*
X1144265Y688485D01*
X1144282Y688496D01*
X1144301Y688502D01*
X1144419Y688576D01*
X1144539Y688647D01*
X1144560Y688665D01*
X1144570Y688672D01*
X1144584Y688687D01*
X1144659Y688753D01*
X1146336Y690430D01*
X1149557Y691764D01*
X1153043Y691764D01*
X1156264Y690430D01*
X1158730Y687964D01*
X1160064Y684743D01*
X1160064Y681257D01*
X1158730Y678036D01*
X1156264Y675570D01*
X1153043Y674236D01*
X1149557Y674236D01*
X1146336Y675570D01*
X1144659Y677247D01*
X1144550Y677332D01*
X1144443Y677421D01*
X1144424Y677429D01*
X1144408Y677442D01*
X1144280Y677497D01*
X1144155Y677556D01*
X1144135Y677560D01*
X1144116Y677568D01*
X1143978Y677590D01*
X1143842Y677616D01*
X1143822Y677615D01*
X1143802Y677618D01*
X1143663Y677605D01*
X1143525Y677596D01*
X1143506Y677590D01*
X1143486Y677588D01*
X1143354Y677541D01*
X1143223Y677498D01*
X1143205Y677487D01*
X1143186Y677480D01*
X1143071Y677402D01*
X1142954Y677328D01*
X1142940Y677313D01*
X1142923Y677302D01*
X1142831Y677198D01*
X1142736Y677096D01*
X1142726Y677079D01*
X1142713Y677063D01*
X1142649Y676939D01*
X1142582Y676818D01*
X1142577Y676798D01*
X1142568Y676780D01*
X1142538Y676644D01*
X1142503Y676510D01*
X1142501Y676482D01*
X1142498Y676470D01*
X1142499Y676449D01*
X1142493Y676349D01*
X1142493Y624332D01*
X1142508Y624214D01*
X1142515Y624095D01*
X1142528Y624057D01*
X1142533Y624016D01*
X1142576Y623906D01*
X1142613Y623793D01*
X1142635Y623758D01*
X1142650Y623721D01*
X1142719Y623625D01*
X1142783Y623524D01*
X1142813Y623496D01*
X1142836Y623463D01*
X1142928Y623387D01*
X1143015Y623306D01*
X1143050Y623286D01*
X1143081Y623261D01*
X1143189Y623210D01*
X1143293Y623152D01*
X1143333Y623142D01*
X1143369Y623125D01*
X1143486Y623103D01*
X1143601Y623073D01*
X1143661Y623069D01*
X1143681Y623065D01*
X1143702Y623067D01*
X1143762Y623063D01*
X1267558Y623063D01*
X1269493Y621128D01*
X1269493Y461051D01*
X1269510Y460913D01*
X1269523Y460774D01*
X1269530Y460755D01*
X1269533Y460735D01*
X1269584Y460606D01*
X1269631Y460475D01*
X1269642Y460458D01*
X1269650Y460440D01*
X1269731Y460327D01*
X1269809Y460212D01*
X1269825Y460199D01*
X1269836Y460182D01*
X1269944Y460093D01*
X1270048Y460001D01*
X1270066Y459992D01*
X1270081Y459979D01*
X1270207Y459920D01*
X1270331Y459857D01*
X1270351Y459852D01*
X1270369Y459844D01*
X1270506Y459818D01*
X1270641Y459787D01*
X1270662Y459788D01*
X1270681Y459784D01*
X1270820Y459793D01*
X1270959Y459797D01*
X1270979Y459803D01*
X1270999Y459804D01*
X1271131Y459847D01*
X1271265Y459885D01*
X1271282Y459896D01*
X1271301Y459902D01*
X1271419Y459976D01*
X1271539Y460047D01*
X1271560Y460065D01*
X1271570Y460072D01*
X1271584Y460087D01*
X1271659Y460153D01*
X1273336Y461830D01*
X1276557Y463164D01*
X1280043Y463164D01*
X1283264Y461830D01*
X1285730Y459364D01*
X1287064Y456143D01*
X1287064Y452657D01*
X1285730Y449436D01*
X1283264Y446970D01*
X1280043Y445636D01*
X1276557Y445636D01*
X1273336Y446970D01*
X1271659Y448647D01*
X1271550Y448732D01*
X1271443Y448821D01*
X1271424Y448829D01*
X1271408Y448842D01*
X1271280Y448897D01*
X1271155Y448956D01*
X1271135Y448960D01*
X1271116Y448968D01*
X1270978Y448990D01*
X1270842Y449016D01*
X1270822Y449015D01*
X1270802Y449018D01*
X1270663Y449005D01*
X1270525Y448996D01*
X1270506Y448990D01*
X1270486Y448988D01*
X1270354Y448941D01*
X1270223Y448898D01*
X1270205Y448887D01*
X1270186Y448880D01*
X1270071Y448802D01*
X1269954Y448728D01*
X1269940Y448713D01*
X1269923Y448702D01*
X1269831Y448598D01*
X1269736Y448496D01*
X1269726Y448479D01*
X1269713Y448463D01*
X1269649Y448339D01*
X1269582Y448218D01*
X1269577Y448198D01*
X1269568Y448180D01*
X1269538Y448044D01*
X1269503Y447910D01*
X1269501Y447882D01*
X1269498Y447870D01*
X1269499Y447849D01*
X1269493Y447749D01*
X1269493Y436782D01*
X1267558Y434847D01*
X1261863Y434847D01*
X1261814Y434841D01*
X1261764Y434843D01*
X1261657Y434821D01*
X1261548Y434807D01*
X1261502Y434789D01*
X1261453Y434779D01*
X1261354Y434731D01*
X1261252Y434690D01*
X1261212Y434661D01*
X1261167Y434639D01*
X1261084Y434568D01*
X1260995Y434504D01*
X1260963Y434465D01*
X1260925Y434433D01*
X1260862Y434343D01*
X1260792Y434259D01*
X1260771Y434214D01*
X1260742Y434173D01*
X1260703Y434070D01*
X1260656Y433971D01*
X1260647Y433922D01*
X1260629Y433876D01*
X1260617Y433766D01*
X1260597Y433659D01*
X1260600Y433609D01*
X1260594Y433560D01*
X1260610Y433451D01*
X1260616Y433341D01*
X1260632Y433294D01*
X1260639Y433245D01*
X1260691Y433092D01*
X1261664Y430743D01*
X1261664Y427257D01*
X1260330Y424036D01*
X1257864Y421570D01*
X1254643Y420236D01*
X1251157Y420236D01*
X1247936Y421570D01*
X1245470Y424036D01*
X1244136Y427257D01*
X1244136Y430743D01*
X1245109Y433092D01*
X1245122Y433140D01*
X1245144Y433185D01*
X1245164Y433293D01*
X1245193Y433399D01*
X1245194Y433449D01*
X1245203Y433498D01*
X1245197Y433607D01*
X1245198Y433717D01*
X1245187Y433765D01*
X1245184Y433815D01*
X1245150Y433919D01*
X1245124Y434026D01*
X1245101Y434070D01*
X1245086Y434117D01*
X1245027Y434210D01*
X1244975Y434307D01*
X1244942Y434344D01*
X1244915Y434386D01*
X1244835Y434461D01*
X1244762Y434543D01*
X1244720Y434570D01*
X1244684Y434604D01*
X1244588Y434657D01*
X1244496Y434717D01*
X1244449Y434734D01*
X1244405Y434758D01*
X1244299Y434785D01*
X1244195Y434821D01*
X1244145Y434825D01*
X1244097Y434837D01*
X1243937Y434847D01*
X1236463Y434847D01*
X1236414Y434841D01*
X1236364Y434843D01*
X1236257Y434821D01*
X1236148Y434807D01*
X1236102Y434789D01*
X1236053Y434779D01*
X1235954Y434731D01*
X1235852Y434690D01*
X1235812Y434661D01*
X1235767Y434639D01*
X1235684Y434568D01*
X1235595Y434504D01*
X1235563Y434465D01*
X1235525Y434433D01*
X1235462Y434343D01*
X1235392Y434259D01*
X1235371Y434214D01*
X1235342Y434173D01*
X1235303Y434070D01*
X1235256Y433971D01*
X1235247Y433922D01*
X1235229Y433876D01*
X1235217Y433766D01*
X1235197Y433659D01*
X1235200Y433609D01*
X1235194Y433560D01*
X1235210Y433451D01*
X1235216Y433341D01*
X1235232Y433294D01*
X1235239Y433245D01*
X1235291Y433092D01*
X1236264Y430743D01*
X1236264Y427257D01*
X1234930Y424036D01*
X1232464Y421570D01*
X1229243Y420236D01*
X1225757Y420236D01*
X1222536Y421570D01*
X1220070Y424036D01*
X1218736Y427257D01*
X1218736Y430743D01*
X1220070Y433964D01*
X1222536Y436430D01*
X1225757Y437764D01*
X1229243Y437764D01*
X1232464Y436430D01*
X1232780Y436113D01*
X1232890Y436028D01*
X1232997Y435939D01*
X1233016Y435931D01*
X1233032Y435918D01*
X1233160Y435863D01*
X1233285Y435804D01*
X1233305Y435800D01*
X1233324Y435792D01*
X1233462Y435770D01*
X1233598Y435744D01*
X1233618Y435745D01*
X1233638Y435742D01*
X1233777Y435755D01*
X1233915Y435764D01*
X1233934Y435770D01*
X1233954Y435772D01*
X1234085Y435819D01*
X1234217Y435862D01*
X1234235Y435873D01*
X1234254Y435880D01*
X1234368Y435957D01*
X1234486Y436032D01*
X1234500Y436047D01*
X1234517Y436058D01*
X1234609Y436162D01*
X1234704Y436264D01*
X1234714Y436281D01*
X1234727Y436296D01*
X1234791Y436421D01*
X1234858Y436542D01*
X1234863Y436562D01*
X1234872Y436580D01*
X1234902Y436716D01*
X1234937Y436850D01*
X1234939Y436878D01*
X1234942Y436890D01*
X1234941Y436911D01*
X1234947Y437011D01*
X1234947Y446389D01*
X1234930Y446527D01*
X1234917Y446666D01*
X1234910Y446685D01*
X1234907Y446705D01*
X1234856Y446834D01*
X1234809Y446965D01*
X1234798Y446982D01*
X1234790Y447000D01*
X1234709Y447113D01*
X1234631Y447228D01*
X1234615Y447241D01*
X1234604Y447258D01*
X1234496Y447347D01*
X1234392Y447439D01*
X1234374Y447448D01*
X1234359Y447461D01*
X1234233Y447520D01*
X1234109Y447583D01*
X1234089Y447588D01*
X1234071Y447596D01*
X1233935Y447622D01*
X1233799Y447653D01*
X1233778Y447652D01*
X1233759Y447656D01*
X1233620Y447647D01*
X1233481Y447643D01*
X1233461Y447637D01*
X1233441Y447636D01*
X1233309Y447593D01*
X1233175Y447555D01*
X1233158Y447544D01*
X1233139Y447538D01*
X1233021Y447464D01*
X1232901Y447393D01*
X1232880Y447375D01*
X1232870Y447368D01*
X1232856Y447353D01*
X1232780Y447287D01*
X1232464Y446970D01*
X1229243Y445636D01*
X1225757Y445636D01*
X1222536Y446970D01*
X1220070Y449436D01*
X1218736Y452657D01*
X1218736Y456143D01*
X1220070Y459364D01*
X1222536Y461830D01*
X1225757Y463164D01*
X1229243Y463164D01*
X1232464Y461830D01*
X1232780Y461513D01*
X1232890Y461428D01*
X1232997Y461339D01*
X1233016Y461331D01*
X1233032Y461318D01*
X1233160Y461263D01*
X1233285Y461204D01*
X1233305Y461200D01*
X1233324Y461192D01*
X1233462Y461170D01*
X1233598Y461144D01*
X1233618Y461145D01*
X1233638Y461142D01*
X1233777Y461155D01*
X1233915Y461164D01*
X1233934Y461170D01*
X1233954Y461172D01*
X1234085Y461219D01*
X1234217Y461262D01*
X1234235Y461273D01*
X1234254Y461280D01*
X1234368Y461357D01*
X1234486Y461432D01*
X1234500Y461447D01*
X1234517Y461458D01*
X1234609Y461562D01*
X1234704Y461664D01*
X1234714Y461681D01*
X1234727Y461696D01*
X1234791Y461821D01*
X1234858Y461942D01*
X1234863Y461962D01*
X1234872Y461980D01*
X1234902Y462116D01*
X1234937Y462250D01*
X1234939Y462278D01*
X1234942Y462290D01*
X1234941Y462311D01*
X1234947Y462411D01*
X1234947Y550008D01*
X1236882Y551943D01*
X1257808Y551943D01*
X1257926Y551958D01*
X1258045Y551965D01*
X1258083Y551978D01*
X1258124Y551983D01*
X1258234Y552026D01*
X1258347Y552063D01*
X1258382Y552085D01*
X1258419Y552100D01*
X1258515Y552169D01*
X1258616Y552233D01*
X1258644Y552263D01*
X1258677Y552286D01*
X1258753Y552378D01*
X1258834Y552465D01*
X1258854Y552500D01*
X1258879Y552531D01*
X1258930Y552639D01*
X1258988Y552743D01*
X1258998Y552783D01*
X1259015Y552819D01*
X1259037Y552936D01*
X1259067Y553051D01*
X1259071Y553111D01*
X1259075Y553131D01*
X1259073Y553152D01*
X1259077Y553212D01*
X1259077Y611378D01*
X1259062Y611496D01*
X1259055Y611615D01*
X1259042Y611653D01*
X1259037Y611694D01*
X1258994Y611804D01*
X1258957Y611917D01*
X1258935Y611952D01*
X1258920Y611989D01*
X1258851Y612085D01*
X1258787Y612186D01*
X1258757Y612214D01*
X1258734Y612247D01*
X1258642Y612323D01*
X1258555Y612404D01*
X1258520Y612424D01*
X1258489Y612449D01*
X1258381Y612500D01*
X1258277Y612558D01*
X1258237Y612568D01*
X1258201Y612585D01*
X1258084Y612607D01*
X1257969Y612637D01*
X1257909Y612641D01*
X1257889Y612645D01*
X1257868Y612643D01*
X1257808Y612647D01*
X1194775Y612647D01*
X1194746Y612644D01*
X1194717Y612646D01*
X1194589Y612624D01*
X1194460Y612607D01*
X1194432Y612597D01*
X1194403Y612592D01*
X1194285Y612538D01*
X1194164Y612490D01*
X1194140Y612473D01*
X1194113Y612461D01*
X1194012Y612380D01*
X1193907Y612304D01*
X1193888Y612281D01*
X1193865Y612262D01*
X1193787Y612159D01*
X1193704Y612059D01*
X1193691Y612032D01*
X1193674Y612008D01*
X1193603Y611864D01*
X1193458Y611514D01*
X1191886Y609942D01*
X1189832Y609091D01*
X1187608Y609091D01*
X1185554Y609942D01*
X1183982Y611514D01*
X1183837Y611864D01*
X1183823Y611889D01*
X1183814Y611917D01*
X1183744Y612027D01*
X1183680Y612140D01*
X1183659Y612161D01*
X1183643Y612186D01*
X1183549Y612275D01*
X1183459Y612368D01*
X1183433Y612384D01*
X1183412Y612404D01*
X1183298Y612467D01*
X1183187Y612535D01*
X1183159Y612543D01*
X1183133Y612558D01*
X1183008Y612590D01*
X1182883Y612628D01*
X1182854Y612630D01*
X1182825Y612637D01*
X1182665Y612647D01*
X1182075Y612647D01*
X1182046Y612644D01*
X1182017Y612646D01*
X1181889Y612624D01*
X1181760Y612607D01*
X1181732Y612597D01*
X1181703Y612592D01*
X1181585Y612538D01*
X1181464Y612490D01*
X1181440Y612473D01*
X1181413Y612461D01*
X1181312Y612380D01*
X1181207Y612304D01*
X1181188Y612281D01*
X1181165Y612262D01*
X1181087Y612159D01*
X1181004Y612059D01*
X1180991Y612032D01*
X1180974Y612008D01*
X1180903Y611864D01*
X1180758Y611514D01*
X1179186Y609942D01*
X1177132Y609091D01*
X1174908Y609091D01*
X1172854Y609942D01*
X1171282Y611514D01*
X1171137Y611864D01*
X1171123Y611889D01*
X1171114Y611917D01*
X1171044Y612027D01*
X1170980Y612140D01*
X1170959Y612161D01*
X1170943Y612186D01*
X1170849Y612275D01*
X1170759Y612368D01*
X1170733Y612384D01*
X1170712Y612404D01*
X1170598Y612467D01*
X1170487Y612535D01*
X1170459Y612543D01*
X1170433Y612558D01*
X1170308Y612590D01*
X1170183Y612628D01*
X1170154Y612630D01*
X1170125Y612637D01*
X1169965Y612647D01*
X1143762Y612647D01*
X1143644Y612632D01*
X1143525Y612625D01*
X1143487Y612612D01*
X1143446Y612607D01*
X1143336Y612564D01*
X1143223Y612527D01*
X1143188Y612505D01*
X1143151Y612490D01*
X1143055Y612421D01*
X1142954Y612357D01*
X1142926Y612327D01*
X1142893Y612304D01*
X1142817Y612212D01*
X1142736Y612125D01*
X1142716Y612090D01*
X1142691Y612059D01*
X1142640Y611951D01*
X1142582Y611847D01*
X1142572Y611807D01*
X1142555Y611771D01*
X1142533Y611654D01*
X1142503Y611539D01*
X1142499Y611479D01*
X1142495Y611459D01*
X1142497Y611438D01*
X1142493Y611378D01*
X1142493Y592992D01*
X1140558Y591057D01*
X1112422Y591057D01*
X1110487Y592992D01*
X1110487Y650748D01*
X1110472Y650866D01*
X1110465Y650985D01*
X1110452Y651023D01*
X1110447Y651064D01*
X1110404Y651174D01*
X1110367Y651287D01*
X1110345Y651322D01*
X1110330Y651359D01*
X1110261Y651455D01*
X1110197Y651556D01*
X1110167Y651584D01*
X1110144Y651617D01*
X1110052Y651693D01*
X1109965Y651774D01*
X1109930Y651794D01*
X1109899Y651819D01*
X1109791Y651870D01*
X1109687Y651928D01*
X1109647Y651938D01*
X1109611Y651955D01*
X1109494Y651977D01*
X1109379Y652007D01*
X1109319Y652011D01*
X1109299Y652015D01*
X1109278Y652013D01*
X1109218Y652017D01*
X1003347Y652017D01*
X1003248Y652005D01*
X1003149Y652002D01*
X1003091Y651985D01*
X1003031Y651977D01*
X1002939Y651941D01*
X1002844Y651913D01*
X1002792Y651883D01*
X1002735Y651860D01*
X1002655Y651802D01*
X1002570Y651752D01*
X1002495Y651686D01*
X1002478Y651674D01*
X1002470Y651664D01*
X1002449Y651646D01*
X1001386Y650582D01*
X999332Y649731D01*
X997108Y649731D01*
X995054Y650582D01*
X993991Y651646D01*
X993913Y651706D01*
X993840Y651774D01*
X993787Y651803D01*
X993740Y651840D01*
X993649Y651880D01*
X993562Y651928D01*
X993503Y651943D01*
X993448Y651967D01*
X993350Y651982D01*
X993254Y652007D01*
X993154Y652013D01*
X993134Y652017D01*
X993121Y652015D01*
X993093Y652017D01*
X868727Y652017D01*
X868628Y652005D01*
X868529Y652002D01*
X868471Y651985D01*
X868411Y651977D01*
X868319Y651941D01*
X868224Y651913D01*
X868172Y651883D01*
X868115Y651860D01*
X868035Y651802D01*
X867950Y651752D01*
X867875Y651686D01*
X867858Y651674D01*
X867850Y651664D01*
X867829Y651646D01*
X866766Y650582D01*
X864712Y649731D01*
X862488Y649731D01*
X860434Y650582D01*
X859371Y651646D01*
X859293Y651706D01*
X859220Y651774D01*
X859167Y651803D01*
X859120Y651840D01*
X859029Y651880D01*
X858942Y651928D01*
X858883Y651943D01*
X858828Y651967D01*
X858730Y651982D01*
X858634Y652007D01*
X858534Y652013D01*
X858514Y652017D01*
X858501Y652015D01*
X858473Y652017D01*
X751332Y652017D01*
X751214Y652002D01*
X751095Y651995D01*
X751057Y651982D01*
X751016Y651977D01*
X750906Y651934D01*
X750793Y651897D01*
X750758Y651875D01*
X750721Y651860D01*
X750625Y651791D01*
X750524Y651727D01*
X750496Y651697D01*
X750463Y651674D01*
X750387Y651582D01*
X750306Y651495D01*
X750286Y651460D01*
X750261Y651429D01*
X750210Y651321D01*
X750152Y651217D01*
X750142Y651177D01*
X750125Y651141D01*
X750103Y651024D01*
X750073Y650909D01*
X750069Y650849D01*
X750065Y650829D01*
X750067Y650808D01*
X750063Y650748D01*
X750063Y407971D01*
X750080Y407833D01*
X750093Y407694D01*
X750100Y407675D01*
X750103Y407655D01*
X750154Y407526D01*
X750201Y407395D01*
X750212Y407378D01*
X750220Y407359D01*
X750301Y407247D01*
X750379Y407132D01*
X750395Y407118D01*
X750406Y407102D01*
X750514Y407013D01*
X750618Y406921D01*
X750636Y406912D01*
X750651Y406899D01*
X750777Y406840D01*
X750901Y406777D01*
X750921Y406772D01*
X750939Y406764D01*
X751076Y406738D01*
X751211Y406707D01*
X751232Y406708D01*
X751251Y406704D01*
X751390Y406713D01*
X751529Y406717D01*
X751549Y406722D01*
X751569Y406724D01*
X751701Y406766D01*
X751835Y406805D01*
X751852Y406815D01*
X751871Y406822D01*
X751989Y406896D01*
X752109Y406967D01*
X752130Y406985D01*
X752140Y406992D01*
X752154Y407007D01*
X752229Y407073D01*
X753754Y408598D01*
X755808Y409449D01*
X758032Y409449D01*
X760086Y408598D01*
X761658Y407026D01*
X762509Y404972D01*
X762509Y402748D01*
X761658Y400694D01*
X760086Y399122D01*
X759025Y398683D01*
X758904Y398614D01*
X758781Y398549D01*
X758766Y398535D01*
X758749Y398525D01*
X758649Y398428D01*
X758546Y398335D01*
X758535Y398318D01*
X758520Y398304D01*
X758447Y398185D01*
X758371Y398069D01*
X758364Y398050D01*
X758354Y398033D01*
X758313Y397900D01*
X758268Y397768D01*
X758266Y397748D01*
X758260Y397729D01*
X758254Y397590D01*
X758243Y397451D01*
X758246Y397431D01*
X758245Y397411D01*
X758273Y397275D01*
X758297Y397138D01*
X758305Y397119D01*
X758309Y397100D01*
X758371Y396975D01*
X758428Y396848D01*
X758440Y396832D01*
X758449Y396814D01*
X758539Y396708D01*
X758626Y396600D01*
X758642Y396587D01*
X758655Y396572D01*
X758769Y396492D01*
X758880Y396408D01*
X758906Y396396D01*
X758915Y396389D01*
X758934Y396382D01*
X759025Y396337D01*
X760086Y395898D01*
X761658Y394326D01*
X762509Y392272D01*
X762509Y390048D01*
X761658Y387994D01*
X760086Y386422D01*
X758032Y385571D01*
X755808Y385571D01*
X753754Y386422D01*
X752229Y387947D01*
X752120Y388032D01*
X752013Y388121D01*
X751994Y388129D01*
X751978Y388142D01*
X751850Y388197D01*
X751725Y388256D01*
X751705Y388260D01*
X751686Y388268D01*
X751548Y388290D01*
X751412Y388316D01*
X751392Y388315D01*
X751372Y388318D01*
X751233Y388305D01*
X751095Y388296D01*
X751076Y388290D01*
X751056Y388288D01*
X750924Y388241D01*
X750793Y388198D01*
X750775Y388187D01*
X750756Y388181D01*
X750641Y388103D01*
X750524Y388028D01*
X750510Y388013D01*
X750493Y388002D01*
X750401Y387898D01*
X750306Y387797D01*
X750296Y387779D01*
X750283Y387764D01*
X750219Y387639D01*
X750152Y387518D01*
X750147Y387498D01*
X750138Y387480D01*
X750108Y387345D01*
X750073Y387210D01*
X750071Y387182D01*
X750068Y387170D01*
X750069Y387150D01*
X750063Y387049D01*
X750063Y379632D01*
X748128Y377697D01*
X746807Y377697D01*
X746708Y377685D01*
X746609Y377682D01*
X746551Y377665D01*
X746491Y377657D01*
X746399Y377621D01*
X746304Y377593D01*
X746252Y377563D01*
X746195Y377540D01*
X746115Y377482D01*
X746030Y377432D01*
X745955Y377366D01*
X745938Y377354D01*
X745930Y377344D01*
X745909Y377326D01*
X744846Y376262D01*
X742792Y375411D01*
X740568Y375411D01*
X738514Y376262D01*
X737451Y377326D01*
X737373Y377386D01*
X737300Y377454D01*
X737247Y377483D01*
X737200Y377520D01*
X737109Y377560D01*
X737022Y377608D01*
X736963Y377623D01*
X736908Y377647D01*
X736810Y377662D01*
X736714Y377687D01*
X736614Y377693D01*
X736594Y377697D01*
X736581Y377695D01*
X736553Y377697D01*
X706744Y377697D01*
X706646Y377685D01*
X706547Y377682D01*
X706488Y377665D01*
X706428Y377657D01*
X706336Y377621D01*
X706241Y377593D01*
X706189Y377563D01*
X706133Y377540D01*
X706053Y377482D01*
X705967Y377432D01*
X705892Y377366D01*
X705875Y377354D01*
X705867Y377344D01*
X705846Y377326D01*
X642718Y314197D01*
X480822Y314197D01*
X480704Y314182D01*
X480585Y314175D01*
X480547Y314162D01*
X480506Y314157D01*
X480396Y314114D01*
X480283Y314077D01*
X480248Y314055D01*
X480211Y314040D01*
X480115Y313971D01*
X480014Y313907D01*
X479986Y313877D01*
X479953Y313854D01*
X479877Y313762D01*
X479796Y313675D01*
X479776Y313640D01*
X479751Y313609D01*
X479700Y313501D01*
X479642Y313397D01*
X479632Y313357D01*
X479615Y313321D01*
X479593Y313204D01*
X479563Y313089D01*
X479559Y313029D01*
X479555Y313009D01*
X479557Y312988D01*
X479553Y312928D01*
X479553Y265332D01*
X477618Y263397D01*
X411382Y263397D01*
G37*
%LPD*%
G36*
X476270Y265942D02*
X476270Y265942D01*
X476289Y265940D01*
X476391Y265962D01*
X476493Y265979D01*
X476510Y265988D01*
X476530Y265992D01*
X476619Y266045D01*
X476710Y266094D01*
X476724Y266108D01*
X476741Y266118D01*
X476808Y266197D01*
X476880Y266272D01*
X476888Y266290D01*
X476901Y266305D01*
X476940Y266401D01*
X476983Y266495D01*
X476985Y266515D01*
X476993Y266533D01*
X477011Y266700D01*
X477011Y316739D01*
X641350Y316739D01*
X641440Y316754D01*
X641531Y316761D01*
X641561Y316773D01*
X641593Y316779D01*
X641673Y316821D01*
X641757Y316857D01*
X641789Y316883D01*
X641810Y316894D01*
X641832Y316917D01*
X641888Y316962D01*
X705165Y380239D01*
X746760Y380239D01*
X746780Y380242D01*
X746799Y380240D01*
X746901Y380262D01*
X747003Y380279D01*
X747020Y380288D01*
X747040Y380292D01*
X747129Y380345D01*
X747220Y380394D01*
X747234Y380408D01*
X747251Y380418D01*
X747318Y380497D01*
X747390Y380572D01*
X747398Y380590D01*
X747411Y380605D01*
X747450Y380701D01*
X747493Y380795D01*
X747495Y380815D01*
X747503Y380833D01*
X747521Y381000D01*
X747521Y387260D01*
X747510Y387330D01*
X747508Y387402D01*
X747490Y387451D01*
X747482Y387503D01*
X747448Y387566D01*
X747423Y387633D01*
X747391Y387674D01*
X747366Y387720D01*
X747315Y387769D01*
X747270Y387825D01*
X747226Y387853D01*
X747188Y387889D01*
X747123Y387919D01*
X747063Y387958D01*
X747012Y387971D01*
X746965Y387993D01*
X746894Y388001D01*
X746824Y388018D01*
X746772Y388014D01*
X746721Y388020D01*
X746650Y388005D01*
X746579Y387999D01*
X746531Y387979D01*
X746480Y387968D01*
X746419Y387931D01*
X746353Y387903D01*
X746297Y387858D01*
X746269Y387842D01*
X746254Y387824D01*
X746222Y387798D01*
X744846Y386422D01*
X742792Y385571D01*
X740568Y385571D01*
X738514Y386422D01*
X736942Y387994D01*
X736091Y390048D01*
X736091Y392272D01*
X736942Y394326D01*
X738514Y395898D01*
X740568Y396749D01*
X742792Y396749D01*
X744846Y395898D01*
X746222Y394522D01*
X746280Y394480D01*
X746332Y394431D01*
X746379Y394409D01*
X746421Y394378D01*
X746490Y394357D01*
X746555Y394327D01*
X746607Y394321D01*
X746657Y394306D01*
X746728Y394308D01*
X746799Y394300D01*
X746850Y394311D01*
X746902Y394312D01*
X746970Y394337D01*
X747040Y394352D01*
X747084Y394379D01*
X747133Y394397D01*
X747189Y394442D01*
X747251Y394478D01*
X747285Y394518D01*
X747325Y394551D01*
X747364Y394611D01*
X747411Y394665D01*
X747430Y394714D01*
X747458Y394757D01*
X747476Y394827D01*
X747503Y394894D01*
X747511Y394965D01*
X747519Y394996D01*
X747517Y395019D01*
X747521Y395060D01*
X747521Y399960D01*
X747510Y400030D01*
X747508Y400102D01*
X747490Y400151D01*
X747482Y400203D01*
X747448Y400266D01*
X747423Y400333D01*
X747391Y400374D01*
X747366Y400420D01*
X747315Y400469D01*
X747270Y400525D01*
X747226Y400553D01*
X747188Y400589D01*
X747123Y400619D01*
X747063Y400658D01*
X747012Y400671D01*
X746965Y400693D01*
X746894Y400701D01*
X746824Y400718D01*
X746772Y400714D01*
X746721Y400720D01*
X746650Y400705D01*
X746579Y400699D01*
X746531Y400679D01*
X746480Y400668D01*
X746419Y400631D01*
X746353Y400603D01*
X746297Y400558D01*
X746269Y400542D01*
X746254Y400524D01*
X746222Y400498D01*
X744846Y399122D01*
X742792Y398271D01*
X740568Y398271D01*
X738514Y399122D01*
X736942Y400694D01*
X736091Y402748D01*
X736091Y404972D01*
X736942Y407026D01*
X738514Y408598D01*
X740568Y409449D01*
X742792Y409449D01*
X744846Y408598D01*
X746222Y407222D01*
X746280Y407180D01*
X746332Y407131D01*
X746379Y407109D01*
X746421Y407078D01*
X746490Y407057D01*
X746555Y407027D01*
X746607Y407021D01*
X746657Y407006D01*
X746728Y407008D01*
X746799Y407000D01*
X746850Y407011D01*
X746902Y407012D01*
X746970Y407037D01*
X747040Y407052D01*
X747084Y407079D01*
X747133Y407097D01*
X747189Y407142D01*
X747251Y407178D01*
X747285Y407218D01*
X747325Y407251D01*
X747364Y407311D01*
X747411Y407365D01*
X747430Y407414D01*
X747458Y407457D01*
X747476Y407527D01*
X747503Y407594D01*
X747511Y407665D01*
X747519Y407696D01*
X747517Y407719D01*
X747521Y407760D01*
X747521Y654559D01*
X857250Y654559D01*
X857270Y654562D01*
X857289Y654560D01*
X857391Y654582D01*
X857493Y654599D01*
X857510Y654608D01*
X857530Y654612D01*
X857619Y654665D01*
X857710Y654714D01*
X857724Y654728D01*
X857741Y654738D01*
X857808Y654817D01*
X857880Y654892D01*
X857888Y654910D01*
X857901Y654925D01*
X857940Y655021D01*
X857983Y655115D01*
X857985Y655135D01*
X857993Y655153D01*
X858011Y655320D01*
X858011Y656432D01*
X858862Y658486D01*
X860434Y660058D01*
X862488Y660909D01*
X864712Y660909D01*
X866766Y660058D01*
X868338Y658486D01*
X869189Y656432D01*
X869189Y655320D01*
X869192Y655300D01*
X869190Y655281D01*
X869212Y655179D01*
X869228Y655077D01*
X869238Y655060D01*
X869242Y655040D01*
X869295Y654951D01*
X869344Y654860D01*
X869358Y654846D01*
X869368Y654829D01*
X869447Y654762D01*
X869522Y654691D01*
X869540Y654682D01*
X869555Y654669D01*
X869651Y654630D01*
X869745Y654587D01*
X869765Y654585D01*
X869783Y654577D01*
X869950Y654559D01*
X991870Y654559D01*
X991890Y654562D01*
X991909Y654560D01*
X992011Y654582D01*
X992113Y654599D01*
X992130Y654608D01*
X992150Y654612D01*
X992239Y654665D01*
X992330Y654714D01*
X992344Y654728D01*
X992361Y654738D01*
X992428Y654817D01*
X992500Y654892D01*
X992508Y654910D01*
X992521Y654925D01*
X992560Y655021D01*
X992603Y655115D01*
X992605Y655135D01*
X992613Y655153D01*
X992631Y655320D01*
X992631Y656432D01*
X993482Y658486D01*
X995054Y660058D01*
X997108Y660909D01*
X999332Y660909D01*
X1001386Y660058D01*
X1002958Y658486D01*
X1003809Y656432D01*
X1003809Y655320D01*
X1003812Y655300D01*
X1003810Y655281D01*
X1003832Y655179D01*
X1003848Y655077D01*
X1003858Y655060D01*
X1003862Y655040D01*
X1003915Y654951D01*
X1003964Y654860D01*
X1003978Y654846D01*
X1003988Y654829D01*
X1004067Y654762D01*
X1004142Y654691D01*
X1004160Y654682D01*
X1004175Y654669D01*
X1004271Y654630D01*
X1004365Y654587D01*
X1004385Y654585D01*
X1004403Y654577D01*
X1004570Y654559D01*
X1113029Y654559D01*
X1113029Y594360D01*
X1113032Y594340D01*
X1113030Y594321D01*
X1113052Y594219D01*
X1113069Y594117D01*
X1113078Y594100D01*
X1113082Y594080D01*
X1113135Y593991D01*
X1113184Y593900D01*
X1113198Y593886D01*
X1113208Y593869D01*
X1113287Y593802D01*
X1113362Y593731D01*
X1113380Y593722D01*
X1113395Y593709D01*
X1113491Y593670D01*
X1113585Y593627D01*
X1113605Y593625D01*
X1113623Y593617D01*
X1113790Y593599D01*
X1139190Y593599D01*
X1139210Y593602D01*
X1139229Y593600D01*
X1139331Y593622D01*
X1139433Y593639D01*
X1139450Y593648D01*
X1139470Y593652D01*
X1139559Y593705D01*
X1139650Y593754D01*
X1139664Y593768D01*
X1139681Y593778D01*
X1139748Y593857D01*
X1139820Y593932D01*
X1139828Y593950D01*
X1139841Y593965D01*
X1139880Y594061D01*
X1139923Y594155D01*
X1139925Y594175D01*
X1139933Y594193D01*
X1139951Y594360D01*
X1139951Y615189D01*
X1169673Y615189D01*
X1169788Y615208D01*
X1169904Y615225D01*
X1169909Y615228D01*
X1169916Y615229D01*
X1170018Y615283D01*
X1170123Y615336D01*
X1170128Y615341D01*
X1170133Y615344D01*
X1170213Y615428D01*
X1170295Y615512D01*
X1170299Y615518D01*
X1170302Y615522D01*
X1170310Y615539D01*
X1170376Y615659D01*
X1171282Y617846D01*
X1172658Y619222D01*
X1172700Y619280D01*
X1172749Y619332D01*
X1172771Y619379D01*
X1172802Y619421D01*
X1172823Y619490D01*
X1172853Y619555D01*
X1172859Y619607D01*
X1172874Y619657D01*
X1172872Y619728D01*
X1172880Y619799D01*
X1172869Y619850D01*
X1172868Y619902D01*
X1172843Y619970D01*
X1172828Y620040D01*
X1172801Y620084D01*
X1172783Y620133D01*
X1172738Y620189D01*
X1172702Y620251D01*
X1172662Y620285D01*
X1172629Y620325D01*
X1172569Y620364D01*
X1172515Y620411D01*
X1172466Y620430D01*
X1172423Y620458D01*
X1172353Y620476D01*
X1172286Y620503D01*
X1172215Y620511D01*
X1172184Y620519D01*
X1172161Y620517D01*
X1172120Y620521D01*
X1139951Y620521D01*
X1139951Y698500D01*
X1139948Y698520D01*
X1139950Y698539D01*
X1139928Y698641D01*
X1139912Y698743D01*
X1139902Y698760D01*
X1139898Y698780D01*
X1139845Y698869D01*
X1139796Y698960D01*
X1139782Y698974D01*
X1139772Y698991D01*
X1139693Y699058D01*
X1139618Y699130D01*
X1139600Y699138D01*
X1139585Y699151D01*
X1139489Y699190D01*
X1139395Y699233D01*
X1139375Y699235D01*
X1139357Y699243D01*
X1139190Y699261D01*
X1113790Y699261D01*
X1113770Y699258D01*
X1113751Y699260D01*
X1113649Y699238D01*
X1113547Y699222D01*
X1113530Y699212D01*
X1113510Y699208D01*
X1113421Y699155D01*
X1113330Y699106D01*
X1113316Y699092D01*
X1113299Y699082D01*
X1113232Y699003D01*
X1113161Y698928D01*
X1113152Y698910D01*
X1113139Y698895D01*
X1113100Y698799D01*
X1113057Y698705D01*
X1113055Y698685D01*
X1113047Y698667D01*
X1113029Y698500D01*
X1113029Y667511D01*
X713740Y667511D01*
X713720Y667508D01*
X713701Y667510D01*
X713599Y667488D01*
X713497Y667472D01*
X713480Y667462D01*
X713460Y667458D01*
X713371Y667405D01*
X713280Y667356D01*
X713266Y667342D01*
X713249Y667332D01*
X713182Y667253D01*
X713111Y667178D01*
X713102Y667160D01*
X713089Y667145D01*
X713050Y667049D01*
X713007Y666955D01*
X713005Y666935D01*
X712997Y666917D01*
X712979Y666750D01*
X712979Y647700D01*
X712982Y647680D01*
X712980Y647661D01*
X713002Y647559D01*
X713019Y647457D01*
X713028Y647440D01*
X713032Y647420D01*
X713085Y647331D01*
X713134Y647240D01*
X713148Y647226D01*
X713158Y647209D01*
X713237Y647142D01*
X713312Y647071D01*
X713330Y647062D01*
X713345Y647049D01*
X713441Y647010D01*
X713535Y646967D01*
X713555Y646965D01*
X713573Y646957D01*
X713740Y646939D01*
X729489Y646939D01*
X729489Y388111D01*
X704850Y388111D01*
X704760Y388097D01*
X704669Y388089D01*
X704639Y388077D01*
X704607Y388072D01*
X704527Y388029D01*
X704443Y387993D01*
X704411Y387967D01*
X704390Y387956D01*
X704368Y387933D01*
X704312Y387888D01*
X641035Y324611D01*
X412750Y324611D01*
X412730Y324608D01*
X412711Y324610D01*
X412609Y324588D01*
X412507Y324572D01*
X412490Y324562D01*
X412470Y324558D01*
X412381Y324505D01*
X412290Y324456D01*
X412276Y324442D01*
X412259Y324432D01*
X412192Y324353D01*
X412121Y324278D01*
X412112Y324260D01*
X412099Y324245D01*
X412060Y324149D01*
X412017Y324055D01*
X412015Y324035D01*
X412007Y324017D01*
X411989Y323850D01*
X411989Y266700D01*
X411992Y266680D01*
X411990Y266661D01*
X412012Y266559D01*
X412029Y266457D01*
X412038Y266440D01*
X412042Y266420D01*
X412095Y266331D01*
X412144Y266240D01*
X412158Y266226D01*
X412168Y266209D01*
X412247Y266142D01*
X412322Y266071D01*
X412340Y266062D01*
X412355Y266049D01*
X412451Y266010D01*
X412545Y265967D01*
X412565Y265965D01*
X412583Y265957D01*
X412750Y265939D01*
X476250Y265939D01*
X476270Y265942D01*
G37*
G36*
X1250165Y437399D02*
X1250165Y437399D01*
X1250230Y437400D01*
X1250310Y437423D01*
X1250343Y437429D01*
X1250360Y437438D01*
X1250391Y437447D01*
X1251157Y437764D01*
X1254643Y437764D01*
X1255409Y437447D01*
X1255472Y437432D01*
X1255533Y437407D01*
X1255616Y437398D01*
X1255648Y437391D01*
X1255667Y437392D01*
X1255700Y437389D01*
X1266190Y437389D01*
X1266210Y437392D01*
X1266229Y437390D01*
X1266331Y437412D01*
X1266433Y437429D01*
X1266450Y437438D01*
X1266470Y437442D01*
X1266559Y437495D01*
X1266650Y437544D01*
X1266664Y437558D01*
X1266681Y437568D01*
X1266748Y437647D01*
X1266820Y437722D01*
X1266828Y437740D01*
X1266841Y437755D01*
X1266880Y437851D01*
X1266923Y437945D01*
X1266925Y437965D01*
X1266933Y437983D01*
X1266951Y438150D01*
X1266951Y619760D01*
X1266948Y619780D01*
X1266950Y619799D01*
X1266928Y619901D01*
X1266912Y620003D01*
X1266902Y620020D01*
X1266898Y620040D01*
X1266845Y620129D01*
X1266796Y620220D01*
X1266782Y620234D01*
X1266772Y620251D01*
X1266693Y620318D01*
X1266618Y620390D01*
X1266600Y620398D01*
X1266585Y620411D01*
X1266489Y620450D01*
X1266395Y620493D01*
X1266375Y620495D01*
X1266357Y620503D01*
X1266190Y620521D01*
X1192620Y620521D01*
X1192550Y620510D01*
X1192478Y620508D01*
X1192429Y620490D01*
X1192377Y620482D01*
X1192314Y620448D01*
X1192247Y620423D01*
X1192206Y620391D01*
X1192160Y620366D01*
X1192111Y620315D01*
X1192055Y620270D01*
X1192027Y620226D01*
X1191991Y620188D01*
X1191961Y620123D01*
X1191922Y620063D01*
X1191909Y620012D01*
X1191887Y619965D01*
X1191879Y619894D01*
X1191862Y619824D01*
X1191866Y619772D01*
X1191860Y619721D01*
X1191875Y619650D01*
X1191881Y619579D01*
X1191901Y619531D01*
X1191912Y619480D01*
X1191949Y619419D01*
X1191977Y619353D01*
X1192022Y619297D01*
X1192038Y619269D01*
X1192056Y619254D01*
X1192082Y619222D01*
X1193458Y617846D01*
X1194364Y615659D01*
X1194425Y615559D01*
X1194485Y615459D01*
X1194490Y615455D01*
X1194493Y615450D01*
X1194583Y615375D01*
X1194672Y615299D01*
X1194678Y615297D01*
X1194683Y615293D01*
X1194791Y615251D01*
X1194900Y615207D01*
X1194908Y615206D01*
X1194913Y615205D01*
X1194931Y615204D01*
X1195067Y615189D01*
X1261619Y615189D01*
X1261619Y549401D01*
X1238250Y549401D01*
X1238230Y549398D01*
X1238211Y549400D01*
X1238109Y549378D01*
X1238007Y549362D01*
X1237990Y549352D01*
X1237970Y549348D01*
X1237881Y549295D01*
X1237790Y549246D01*
X1237776Y549232D01*
X1237759Y549222D01*
X1237692Y549143D01*
X1237621Y549068D01*
X1237612Y549050D01*
X1237599Y549035D01*
X1237560Y548939D01*
X1237517Y548845D01*
X1237515Y548825D01*
X1237507Y548807D01*
X1237489Y548640D01*
X1237489Y438150D01*
X1237492Y438130D01*
X1237490Y438111D01*
X1237512Y438009D01*
X1237529Y437907D01*
X1237538Y437890D01*
X1237542Y437870D01*
X1237595Y437781D01*
X1237644Y437690D01*
X1237658Y437676D01*
X1237668Y437659D01*
X1237747Y437592D01*
X1237822Y437521D01*
X1237840Y437512D01*
X1237855Y437499D01*
X1237951Y437460D01*
X1238045Y437417D01*
X1238065Y437415D01*
X1238083Y437407D01*
X1238250Y437389D01*
X1250100Y437389D01*
X1250165Y437399D01*
G37*
%LPC*%
G36*
X94500Y76379D02*
X94500Y76379D01*
X86186Y79823D01*
X79823Y86186D01*
X76379Y94500D01*
X76379Y103500D01*
X79823Y111814D01*
X86186Y118177D01*
X94500Y121621D01*
X103500Y121621D01*
X111814Y118177D01*
X118177Y111814D01*
X121621Y103500D01*
X121621Y94500D01*
X118177Y86186D01*
X111814Y79823D01*
X103500Y76379D01*
X94500Y76379D01*
G37*
%LPD*%
%LPC*%
G36*
X794500Y76379D02*
X794500Y76379D01*
X786186Y79823D01*
X779823Y86186D01*
X776379Y94500D01*
X776379Y103500D01*
X779823Y111814D01*
X786186Y118177D01*
X794500Y121621D01*
X803500Y121621D01*
X811814Y118177D01*
X818177Y111814D01*
X821621Y103500D01*
X821621Y94500D01*
X818177Y86186D01*
X811814Y79823D01*
X803500Y76379D01*
X794500Y76379D01*
G37*
%LPD*%
%LPC*%
G36*
X1494500Y76379D02*
X1494500Y76379D01*
X1486186Y79823D01*
X1479823Y86186D01*
X1476379Y94500D01*
X1476379Y103500D01*
X1479823Y111814D01*
X1486186Y118177D01*
X1494500Y121621D01*
X1503500Y121621D01*
X1511814Y118177D01*
X1518177Y111814D01*
X1521621Y103500D01*
X1521621Y94500D01*
X1518177Y86186D01*
X1511814Y79823D01*
X1503500Y76379D01*
X1494500Y76379D01*
G37*
%LPD*%
%LPC*%
G36*
X1228411Y325359D02*
X1228411Y325359D01*
X1221964Y328030D01*
X1217030Y332964D01*
X1214359Y339411D01*
X1214359Y346389D01*
X1217030Y352836D01*
X1221964Y357770D01*
X1228411Y360441D01*
X1235389Y360441D01*
X1241836Y357770D01*
X1246770Y352836D01*
X1249441Y346389D01*
X1249441Y339411D01*
X1246770Y332964D01*
X1241836Y328030D01*
X1235389Y325359D01*
X1228411Y325359D01*
G37*
%LPD*%
%LPC*%
G36*
X1025211Y325359D02*
X1025211Y325359D01*
X1018764Y328030D01*
X1013830Y332964D01*
X1011159Y339411D01*
X1011159Y346389D01*
X1013830Y352836D01*
X1018764Y357770D01*
X1025211Y360441D01*
X1032189Y360441D01*
X1038636Y357770D01*
X1043570Y352836D01*
X1046241Y346389D01*
X1046241Y339411D01*
X1043570Y332964D01*
X1038636Y328030D01*
X1032189Y325359D01*
X1025211Y325359D01*
G37*
%LPD*%
%LPC*%
G36*
X1025211Y65009D02*
X1025211Y65009D01*
X1018764Y67680D01*
X1013830Y72614D01*
X1011159Y79061D01*
X1011159Y86039D01*
X1013830Y92486D01*
X1018764Y97420D01*
X1025211Y100091D01*
X1032189Y100091D01*
X1038636Y97420D01*
X1043570Y92486D01*
X1046241Y86039D01*
X1046241Y79061D01*
X1043570Y72614D01*
X1038636Y67680D01*
X1032189Y65009D01*
X1025211Y65009D01*
G37*
%LPD*%
%LPC*%
G36*
X1228411Y65009D02*
X1228411Y65009D01*
X1221964Y67680D01*
X1217030Y72614D01*
X1214359Y79061D01*
X1214359Y86039D01*
X1217030Y92486D01*
X1221964Y97420D01*
X1228411Y100091D01*
X1235389Y100091D01*
X1241836Y97420D01*
X1246770Y92486D01*
X1249441Y86039D01*
X1249441Y79061D01*
X1246770Y72614D01*
X1241836Y67680D01*
X1235389Y65009D01*
X1228411Y65009D01*
G37*
%LPD*%
%LPC*%
G36*
X176481Y661597D02*
X176481Y661597D01*
X174147Y662564D01*
X172360Y664351D01*
X172246Y664625D01*
X172197Y664711D01*
X172157Y664801D01*
X172119Y664849D01*
X172089Y664901D01*
X172020Y664972D01*
X171958Y665050D01*
X171910Y665086D01*
X171868Y665130D01*
X171783Y665181D01*
X171704Y665241D01*
X171614Y665285D01*
X171597Y665296D01*
X171585Y665300D01*
X171559Y665312D01*
X170016Y665951D01*
X166151Y669817D01*
X164059Y674867D01*
X164059Y680333D01*
X166151Y685383D01*
X170017Y689249D01*
X170745Y689551D01*
X170831Y689600D01*
X170921Y689640D01*
X170968Y689678D01*
X171021Y689708D01*
X171092Y689777D01*
X171170Y689839D01*
X171206Y689887D01*
X171250Y689929D01*
X171301Y690014D01*
X171361Y690093D01*
X171405Y690183D01*
X171416Y690200D01*
X171419Y690212D01*
X171432Y690237D01*
X172106Y691865D01*
X173893Y693652D01*
X176227Y694619D01*
X178753Y694619D01*
X181087Y693652D01*
X182874Y691865D01*
X183420Y690547D01*
X183469Y690461D01*
X183510Y690371D01*
X183547Y690324D01*
X183577Y690271D01*
X183646Y690200D01*
X183708Y690123D01*
X183756Y690086D01*
X183799Y690043D01*
X183883Y689991D01*
X183962Y689931D01*
X184052Y689887D01*
X184070Y689877D01*
X184081Y689873D01*
X184107Y689861D01*
X185583Y689249D01*
X189449Y685383D01*
X191541Y680333D01*
X191541Y674867D01*
X189449Y669817D01*
X185583Y665951D01*
X183905Y665256D01*
X183819Y665207D01*
X183729Y665166D01*
X183682Y665129D01*
X183629Y665099D01*
X183558Y665030D01*
X183481Y664968D01*
X183444Y664919D01*
X183401Y664877D01*
X183349Y664793D01*
X183289Y664714D01*
X183245Y664623D01*
X183234Y664606D01*
X183231Y664594D01*
X183218Y664569D01*
X183128Y664351D01*
X181341Y662564D01*
X179007Y661597D01*
X176481Y661597D01*
G37*
%LPD*%
%LPC*%
G36*
X145067Y616859D02*
X145067Y616859D01*
X140017Y618951D01*
X136151Y622817D01*
X135568Y624224D01*
X135519Y624310D01*
X135479Y624400D01*
X135441Y624447D01*
X135411Y624500D01*
X135342Y624571D01*
X135280Y624648D01*
X135232Y624685D01*
X135189Y624728D01*
X135105Y624780D01*
X135026Y624840D01*
X134936Y624884D01*
X134918Y624895D01*
X134907Y624898D01*
X134881Y624911D01*
X133507Y625480D01*
X131720Y627267D01*
X130753Y629601D01*
X130753Y632127D01*
X131720Y634461D01*
X133507Y636248D01*
X135145Y636927D01*
X135231Y636976D01*
X135322Y637016D01*
X135369Y637054D01*
X135422Y637084D01*
X135493Y637153D01*
X135570Y637215D01*
X135607Y637263D01*
X135650Y637306D01*
X135702Y637390D01*
X135761Y637469D01*
X135806Y637559D01*
X135816Y637577D01*
X135820Y637588D01*
X135832Y637614D01*
X136151Y638384D01*
X140017Y642249D01*
X145067Y644341D01*
X150533Y644341D01*
X155583Y642249D01*
X159449Y638383D01*
X160042Y636951D01*
X160091Y636865D01*
X160132Y636774D01*
X160170Y636727D01*
X160200Y636674D01*
X160269Y636603D01*
X160331Y636526D01*
X160379Y636489D01*
X160421Y636446D01*
X160505Y636394D01*
X160585Y636335D01*
X160675Y636290D01*
X160692Y636280D01*
X160704Y636276D01*
X160729Y636264D01*
X160767Y636248D01*
X162554Y634461D01*
X163521Y632127D01*
X163521Y629601D01*
X162554Y627267D01*
X160589Y625302D01*
X160569Y625285D01*
X160532Y625237D01*
X160489Y625195D01*
X160437Y625111D01*
X160377Y625031D01*
X160333Y624942D01*
X160323Y624924D01*
X160319Y624913D01*
X160306Y624887D01*
X159449Y622817D01*
X155583Y618951D01*
X150533Y616859D01*
X145067Y616859D01*
G37*
%LPD*%
%LPC*%
G36*
X116283Y661597D02*
X116283Y661597D01*
X113949Y662564D01*
X112162Y664351D01*
X112007Y664724D01*
X111958Y664810D01*
X111918Y664900D01*
X111880Y664948D01*
X111850Y665000D01*
X111781Y665072D01*
X111719Y665149D01*
X111671Y665185D01*
X111629Y665229D01*
X111544Y665281D01*
X111465Y665340D01*
X111375Y665384D01*
X111357Y665395D01*
X111346Y665399D01*
X111320Y665411D01*
X110017Y665951D01*
X106151Y669817D01*
X104059Y674867D01*
X104059Y680333D01*
X106151Y685383D01*
X110016Y689249D01*
X111246Y689758D01*
X111332Y689807D01*
X111422Y689848D01*
X111470Y689886D01*
X111522Y689916D01*
X111593Y689985D01*
X111671Y690046D01*
X111707Y690095D01*
X111751Y690137D01*
X111802Y690221D01*
X111862Y690301D01*
X111906Y690391D01*
X111917Y690408D01*
X111921Y690420D01*
X111933Y690445D01*
X112416Y691611D01*
X114203Y693398D01*
X116537Y694365D01*
X119063Y694365D01*
X121397Y693398D01*
X123184Y691611D01*
X123667Y690445D01*
X123716Y690359D01*
X123757Y690269D01*
X123795Y690221D01*
X123825Y690169D01*
X123893Y690098D01*
X123955Y690020D01*
X124004Y689984D01*
X124046Y689940D01*
X124130Y689889D01*
X124209Y689829D01*
X124300Y689785D01*
X124317Y689774D01*
X124329Y689771D01*
X124354Y689758D01*
X125584Y689249D01*
X129449Y685383D01*
X131541Y680333D01*
X131541Y674867D01*
X129449Y669817D01*
X125583Y665951D01*
X123666Y665157D01*
X123580Y665108D01*
X123490Y665067D01*
X123443Y665030D01*
X123390Y665000D01*
X123319Y664931D01*
X123242Y664869D01*
X123205Y664820D01*
X123162Y664778D01*
X123110Y664694D01*
X123050Y664615D01*
X123006Y664525D01*
X122995Y664507D01*
X122992Y664495D01*
X122979Y664470D01*
X122930Y664351D01*
X121143Y662564D01*
X118809Y661597D01*
X116283Y661597D01*
G37*
%LPD*%
%LPC*%
G36*
X600745Y279559D02*
X600745Y279559D01*
X596136Y281468D01*
X592608Y284996D01*
X590699Y289605D01*
X590699Y294595D01*
X592608Y299204D01*
X596136Y302732D01*
X600745Y304641D01*
X605735Y304641D01*
X610344Y302732D01*
X613872Y299204D01*
X615781Y294595D01*
X615781Y289605D01*
X613872Y284996D01*
X610344Y281468D01*
X605735Y279559D01*
X600745Y279559D01*
G37*
%LPD*%
%LPC*%
G36*
X163865Y279559D02*
X163865Y279559D01*
X159256Y281468D01*
X155728Y284996D01*
X153819Y289605D01*
X153819Y294595D01*
X155728Y299204D01*
X159256Y302732D01*
X163865Y304641D01*
X168855Y304641D01*
X173464Y302732D01*
X176992Y299204D01*
X178901Y294595D01*
X178901Y289605D01*
X176992Y284996D01*
X173464Y281468D01*
X168855Y279559D01*
X163865Y279559D01*
G37*
%LPD*%
%LPC*%
G36*
X163865Y50959D02*
X163865Y50959D01*
X159256Y52868D01*
X155728Y56396D01*
X153819Y61005D01*
X153819Y65995D01*
X155728Y70604D01*
X159256Y74132D01*
X163865Y76041D01*
X168855Y76041D01*
X173464Y74132D01*
X176992Y70604D01*
X178901Y65995D01*
X178901Y61005D01*
X176992Y56396D01*
X173464Y52868D01*
X168855Y50959D01*
X163865Y50959D01*
G37*
%LPD*%
%LPC*%
G36*
X600745Y50959D02*
X600745Y50959D01*
X596136Y52868D01*
X592608Y56396D01*
X590699Y61005D01*
X590699Y65995D01*
X592608Y70604D01*
X596136Y74132D01*
X600745Y76041D01*
X605735Y76041D01*
X610344Y74132D01*
X613872Y70604D01*
X615781Y65995D01*
X615781Y61005D01*
X613872Y56396D01*
X610344Y52868D01*
X605735Y50959D01*
X600745Y50959D01*
G37*
%LPD*%
%LPC*%
G36*
X251963Y675559D02*
X251963Y675559D01*
X248199Y677118D01*
X245318Y679999D01*
X243759Y683763D01*
X243759Y687837D01*
X245318Y691601D01*
X248199Y694482D01*
X251963Y696041D01*
X256037Y696041D01*
X259801Y694482D01*
X262682Y691601D01*
X264241Y687837D01*
X264241Y683763D01*
X262682Y679999D01*
X259801Y677118D01*
X256037Y675559D01*
X251963Y675559D01*
G37*
%LPD*%
%LPC*%
G36*
X302763Y675559D02*
X302763Y675559D01*
X298999Y677118D01*
X296118Y679999D01*
X294559Y683763D01*
X294559Y687837D01*
X296118Y691601D01*
X298999Y694482D01*
X302763Y696041D01*
X306837Y696041D01*
X310601Y694482D01*
X313482Y691601D01*
X315041Y687837D01*
X315041Y683763D01*
X313482Y679999D01*
X310601Y677118D01*
X306837Y675559D01*
X302763Y675559D01*
G37*
%LPD*%
%LPC*%
G36*
X347320Y282447D02*
X347320Y282447D01*
X343772Y283917D01*
X341057Y286632D01*
X339587Y290180D01*
X339587Y294020D01*
X341057Y297568D01*
X343772Y300283D01*
X347320Y301753D01*
X351160Y301753D01*
X354708Y300283D01*
X357423Y297568D01*
X358893Y294020D01*
X358893Y290180D01*
X357423Y286632D01*
X354708Y283917D01*
X351160Y282447D01*
X347320Y282447D01*
G37*
%LPD*%
%LPC*%
G36*
X372720Y282447D02*
X372720Y282447D01*
X369172Y283917D01*
X366457Y286632D01*
X364987Y290180D01*
X364987Y294020D01*
X366457Y297568D01*
X369172Y300283D01*
X372720Y301753D01*
X376560Y301753D01*
X380108Y300283D01*
X382823Y297568D01*
X384293Y294020D01*
X384293Y290180D01*
X382823Y286632D01*
X380108Y283917D01*
X376560Y282447D01*
X372720Y282447D01*
G37*
%LPD*%
%LPC*%
G36*
X1077602Y41259D02*
X1077602Y41259D01*
X1074096Y42712D01*
X1071412Y45396D01*
X1069959Y48902D01*
X1069959Y52698D01*
X1071412Y56204D01*
X1074096Y58888D01*
X1077602Y60341D01*
X1081398Y60341D01*
X1084904Y58888D01*
X1087588Y56204D01*
X1089041Y52698D01*
X1089041Y48902D01*
X1087588Y45396D01*
X1084904Y42712D01*
X1081398Y41259D01*
X1077602Y41259D01*
G37*
%LPD*%
%LPC*%
G36*
X1103002Y41259D02*
X1103002Y41259D01*
X1099496Y42712D01*
X1096812Y45396D01*
X1095359Y48902D01*
X1095359Y52698D01*
X1096812Y56204D01*
X1099496Y58888D01*
X1103002Y60341D01*
X1106798Y60341D01*
X1110304Y58888D01*
X1112988Y56204D01*
X1114441Y52698D01*
X1114441Y48902D01*
X1112988Y45396D01*
X1110304Y42712D01*
X1106798Y41259D01*
X1103002Y41259D01*
G37*
%LPD*%
%LPC*%
G36*
X1128402Y41259D02*
X1128402Y41259D01*
X1124896Y42712D01*
X1122212Y45396D01*
X1120759Y48902D01*
X1120759Y52698D01*
X1122212Y56204D01*
X1124896Y58888D01*
X1128402Y60341D01*
X1132198Y60341D01*
X1135704Y58888D01*
X1138388Y56204D01*
X1139841Y52698D01*
X1139841Y48902D01*
X1138388Y45396D01*
X1135704Y42712D01*
X1132198Y41259D01*
X1128402Y41259D01*
G37*
%LPD*%
%LPC*%
G36*
X1153802Y41259D02*
X1153802Y41259D01*
X1150296Y42712D01*
X1147612Y45396D01*
X1146159Y48902D01*
X1146159Y52698D01*
X1147612Y56204D01*
X1150296Y58888D01*
X1153802Y60341D01*
X1157598Y60341D01*
X1161104Y58888D01*
X1163788Y56204D01*
X1165241Y52698D01*
X1165241Y48902D01*
X1163788Y45396D01*
X1161104Y42712D01*
X1157598Y41259D01*
X1153802Y41259D01*
G37*
%LPD*%
%LPC*%
G36*
X1179202Y41259D02*
X1179202Y41259D01*
X1175696Y42712D01*
X1173012Y45396D01*
X1171559Y48902D01*
X1171559Y52698D01*
X1173012Y56204D01*
X1175696Y58888D01*
X1179202Y60341D01*
X1182998Y60341D01*
X1186504Y58888D01*
X1189188Y56204D01*
X1190641Y52698D01*
X1190641Y48902D01*
X1189188Y45396D01*
X1186504Y42712D01*
X1182998Y41259D01*
X1179202Y41259D01*
G37*
%LPD*%
%LPC*%
G36*
X1098757Y445636D02*
X1098757Y445636D01*
X1095536Y446970D01*
X1093070Y449436D01*
X1091736Y452657D01*
X1091736Y456143D01*
X1093070Y459364D01*
X1095536Y461830D01*
X1098757Y463164D01*
X1102243Y463164D01*
X1105464Y461830D01*
X1107930Y459364D01*
X1109264Y456143D01*
X1109264Y452657D01*
X1107930Y449436D01*
X1105464Y446970D01*
X1102243Y445636D01*
X1098757Y445636D01*
G37*
%LPD*%
%LPC*%
G36*
X1149557Y445636D02*
X1149557Y445636D01*
X1146336Y446970D01*
X1143870Y449436D01*
X1142536Y452657D01*
X1142536Y456143D01*
X1143870Y459364D01*
X1146336Y461830D01*
X1149557Y463164D01*
X1153043Y463164D01*
X1156264Y461830D01*
X1158730Y459364D01*
X1160064Y456143D01*
X1160064Y452657D01*
X1158730Y449436D01*
X1156264Y446970D01*
X1153043Y445636D01*
X1149557Y445636D01*
G37*
%LPD*%
%LPC*%
G36*
X1047957Y699636D02*
X1047957Y699636D01*
X1044736Y700970D01*
X1042270Y703436D01*
X1040936Y706657D01*
X1040936Y710143D01*
X1042270Y713364D01*
X1044736Y715830D01*
X1047957Y717164D01*
X1051443Y717164D01*
X1054664Y715830D01*
X1057130Y713364D01*
X1058464Y710143D01*
X1058464Y706657D01*
X1057130Y703436D01*
X1054664Y700970D01*
X1051443Y699636D01*
X1047957Y699636D01*
G37*
%LPD*%
%LPC*%
G36*
X1022557Y699636D02*
X1022557Y699636D01*
X1019336Y700970D01*
X1016870Y703436D01*
X1015536Y706657D01*
X1015536Y710143D01*
X1016870Y713364D01*
X1019336Y715830D01*
X1022557Y717164D01*
X1026043Y717164D01*
X1029264Y715830D01*
X1031730Y713364D01*
X1033064Y710143D01*
X1033064Y706657D01*
X1031730Y703436D01*
X1029264Y700970D01*
X1026043Y699636D01*
X1022557Y699636D01*
G37*
%LPD*%
%LPC*%
G36*
X1098757Y699636D02*
X1098757Y699636D01*
X1095536Y700970D01*
X1093070Y703436D01*
X1091736Y706657D01*
X1091736Y710143D01*
X1093070Y713364D01*
X1095536Y715830D01*
X1098757Y717164D01*
X1102243Y717164D01*
X1105464Y715830D01*
X1107930Y713364D01*
X1109264Y710143D01*
X1109264Y706657D01*
X1107930Y703436D01*
X1105464Y700970D01*
X1102243Y699636D01*
X1098757Y699636D01*
G37*
%LPD*%
%LPC*%
G36*
X1073357Y699636D02*
X1073357Y699636D01*
X1070136Y700970D01*
X1067670Y703436D01*
X1066336Y706657D01*
X1066336Y710143D01*
X1067670Y713364D01*
X1070136Y715830D01*
X1073357Y717164D01*
X1076843Y717164D01*
X1080064Y715830D01*
X1082530Y713364D01*
X1083864Y710143D01*
X1083864Y706657D01*
X1082530Y703436D01*
X1080064Y700970D01*
X1076843Y699636D01*
X1073357Y699636D01*
G37*
%LPD*%
%LPC*%
G36*
X971757Y699636D02*
X971757Y699636D01*
X968536Y700970D01*
X966070Y703436D01*
X964736Y706657D01*
X964736Y710143D01*
X966070Y713364D01*
X968536Y715830D01*
X971757Y717164D01*
X975243Y717164D01*
X978464Y715830D01*
X980930Y713364D01*
X982264Y710143D01*
X982264Y706657D01*
X980930Y703436D01*
X978464Y700970D01*
X975243Y699636D01*
X971757Y699636D01*
G37*
%LPD*%
%LPC*%
G36*
X997157Y699636D02*
X997157Y699636D01*
X993936Y700970D01*
X991470Y703436D01*
X990136Y706657D01*
X990136Y710143D01*
X991470Y713364D01*
X993936Y715830D01*
X997157Y717164D01*
X1000643Y717164D01*
X1003864Y715830D01*
X1006330Y713364D01*
X1007664Y710143D01*
X1007664Y706657D01*
X1006330Y703436D01*
X1003864Y700970D01*
X1000643Y699636D01*
X997157Y699636D01*
G37*
%LPD*%
%LPC*%
G36*
X1403557Y699636D02*
X1403557Y699636D01*
X1400336Y700970D01*
X1397870Y703436D01*
X1396536Y706657D01*
X1396536Y710143D01*
X1397870Y713364D01*
X1400336Y715830D01*
X1403557Y717164D01*
X1407043Y717164D01*
X1410264Y715830D01*
X1412730Y713364D01*
X1414064Y710143D01*
X1414064Y706657D01*
X1412730Y703436D01*
X1410264Y700970D01*
X1407043Y699636D01*
X1403557Y699636D01*
G37*
%LPD*%
%LPC*%
G36*
X1378157Y699636D02*
X1378157Y699636D01*
X1374936Y700970D01*
X1372470Y703436D01*
X1371136Y706657D01*
X1371136Y710143D01*
X1372470Y713364D01*
X1374936Y715830D01*
X1378157Y717164D01*
X1381643Y717164D01*
X1384864Y715830D01*
X1387330Y713364D01*
X1388664Y710143D01*
X1388664Y706657D01*
X1387330Y703436D01*
X1384864Y700970D01*
X1381643Y699636D01*
X1378157Y699636D01*
G37*
%LPD*%
%LPC*%
G36*
X1352757Y699636D02*
X1352757Y699636D01*
X1349536Y700970D01*
X1347070Y703436D01*
X1345736Y706657D01*
X1345736Y710143D01*
X1347070Y713364D01*
X1349536Y715830D01*
X1352757Y717164D01*
X1356243Y717164D01*
X1359464Y715830D01*
X1361930Y713364D01*
X1363264Y710143D01*
X1363264Y706657D01*
X1361930Y703436D01*
X1359464Y700970D01*
X1356243Y699636D01*
X1352757Y699636D01*
G37*
%LPD*%
%LPC*%
G36*
X1327357Y699636D02*
X1327357Y699636D01*
X1324136Y700970D01*
X1321670Y703436D01*
X1320336Y706657D01*
X1320336Y710143D01*
X1321670Y713364D01*
X1324136Y715830D01*
X1327357Y717164D01*
X1330843Y717164D01*
X1334064Y715830D01*
X1336530Y713364D01*
X1337864Y710143D01*
X1337864Y706657D01*
X1336530Y703436D01*
X1334064Y700970D01*
X1330843Y699636D01*
X1327357Y699636D01*
G37*
%LPD*%
%LPC*%
G36*
X1301957Y699636D02*
X1301957Y699636D01*
X1298736Y700970D01*
X1296270Y703436D01*
X1294936Y706657D01*
X1294936Y710143D01*
X1296270Y713364D01*
X1298736Y715830D01*
X1301957Y717164D01*
X1305443Y717164D01*
X1308664Y715830D01*
X1311130Y713364D01*
X1312464Y710143D01*
X1312464Y706657D01*
X1311130Y703436D01*
X1308664Y700970D01*
X1305443Y699636D01*
X1301957Y699636D01*
G37*
%LPD*%
%LPC*%
G36*
X1276557Y699636D02*
X1276557Y699636D01*
X1273336Y700970D01*
X1270870Y703436D01*
X1269536Y706657D01*
X1269536Y710143D01*
X1270870Y713364D01*
X1273336Y715830D01*
X1276557Y717164D01*
X1280043Y717164D01*
X1283264Y715830D01*
X1285730Y713364D01*
X1287064Y710143D01*
X1287064Y706657D01*
X1285730Y703436D01*
X1283264Y700970D01*
X1280043Y699636D01*
X1276557Y699636D01*
G37*
%LPD*%
%LPC*%
G36*
X1251157Y699636D02*
X1251157Y699636D01*
X1247936Y700970D01*
X1245470Y703436D01*
X1244136Y706657D01*
X1244136Y710143D01*
X1245470Y713364D01*
X1247936Y715830D01*
X1251157Y717164D01*
X1254643Y717164D01*
X1257864Y715830D01*
X1260330Y713364D01*
X1261664Y710143D01*
X1261664Y706657D01*
X1260330Y703436D01*
X1257864Y700970D01*
X1254643Y699636D01*
X1251157Y699636D01*
G37*
%LPD*%
%LPC*%
G36*
X1225757Y699636D02*
X1225757Y699636D01*
X1222536Y700970D01*
X1220070Y703436D01*
X1218736Y706657D01*
X1218736Y710143D01*
X1220070Y713364D01*
X1222536Y715830D01*
X1225757Y717164D01*
X1229243Y717164D01*
X1232464Y715830D01*
X1234930Y713364D01*
X1236264Y710143D01*
X1236264Y706657D01*
X1234930Y703436D01*
X1232464Y700970D01*
X1229243Y699636D01*
X1225757Y699636D01*
G37*
%LPD*%
%LPC*%
G36*
X1200357Y699636D02*
X1200357Y699636D01*
X1197136Y700970D01*
X1194670Y703436D01*
X1193336Y706657D01*
X1193336Y710143D01*
X1194670Y713364D01*
X1197136Y715830D01*
X1200357Y717164D01*
X1203843Y717164D01*
X1207064Y715830D01*
X1209530Y713364D01*
X1210864Y710143D01*
X1210864Y706657D01*
X1209530Y703436D01*
X1207064Y700970D01*
X1203843Y699636D01*
X1200357Y699636D01*
G37*
%LPD*%
%LPC*%
G36*
X1174957Y699636D02*
X1174957Y699636D01*
X1171736Y700970D01*
X1169270Y703436D01*
X1167936Y706657D01*
X1167936Y710143D01*
X1169270Y713364D01*
X1171736Y715830D01*
X1174957Y717164D01*
X1178443Y717164D01*
X1181664Y715830D01*
X1184130Y713364D01*
X1185464Y710143D01*
X1185464Y706657D01*
X1184130Y703436D01*
X1181664Y700970D01*
X1178443Y699636D01*
X1174957Y699636D01*
G37*
%LPD*%
%LPC*%
G36*
X1149557Y699636D02*
X1149557Y699636D01*
X1146336Y700970D01*
X1143870Y703436D01*
X1142536Y706657D01*
X1142536Y710143D01*
X1143870Y713364D01*
X1146336Y715830D01*
X1149557Y717164D01*
X1153043Y717164D01*
X1156264Y715830D01*
X1158730Y713364D01*
X1160064Y710143D01*
X1160064Y706657D01*
X1158730Y703436D01*
X1156264Y700970D01*
X1153043Y699636D01*
X1149557Y699636D01*
G37*
%LPD*%
%LPC*%
G36*
X1174957Y445636D02*
X1174957Y445636D01*
X1171736Y446970D01*
X1169270Y449436D01*
X1167936Y452657D01*
X1167936Y456143D01*
X1169270Y459364D01*
X1171736Y461830D01*
X1174957Y463164D01*
X1178443Y463164D01*
X1181664Y461830D01*
X1184130Y459364D01*
X1185464Y456143D01*
X1185464Y452657D01*
X1184130Y449436D01*
X1181664Y446970D01*
X1178443Y445636D01*
X1174957Y445636D01*
G37*
%LPD*%
%LPC*%
G36*
X1301957Y445636D02*
X1301957Y445636D01*
X1298736Y446970D01*
X1296270Y449436D01*
X1294936Y452657D01*
X1294936Y456143D01*
X1296270Y459364D01*
X1298736Y461830D01*
X1301957Y463164D01*
X1305443Y463164D01*
X1308664Y461830D01*
X1311130Y459364D01*
X1312464Y456143D01*
X1312464Y452657D01*
X1311130Y449436D01*
X1308664Y446970D01*
X1305443Y445636D01*
X1301957Y445636D01*
G37*
%LPD*%
%LPC*%
G36*
X1327357Y445636D02*
X1327357Y445636D01*
X1324136Y446970D01*
X1321670Y449436D01*
X1320336Y452657D01*
X1320336Y456143D01*
X1321670Y459364D01*
X1324136Y461830D01*
X1327357Y463164D01*
X1330843Y463164D01*
X1334064Y461830D01*
X1336530Y459364D01*
X1337864Y456143D01*
X1337864Y452657D01*
X1336530Y449436D01*
X1334064Y446970D01*
X1330843Y445636D01*
X1327357Y445636D01*
G37*
%LPD*%
%LPC*%
G36*
X971757Y674236D02*
X971757Y674236D01*
X968536Y675570D01*
X966070Y678036D01*
X964736Y681257D01*
X964736Y684743D01*
X966070Y687964D01*
X968536Y690430D01*
X971757Y691764D01*
X975243Y691764D01*
X978464Y690430D01*
X980930Y687964D01*
X982264Y684743D01*
X982264Y681257D01*
X980930Y678036D01*
X978464Y675570D01*
X975243Y674236D01*
X971757Y674236D01*
G37*
%LPD*%
%LPC*%
G36*
X1200357Y674236D02*
X1200357Y674236D01*
X1197136Y675570D01*
X1194670Y678036D01*
X1193336Y681257D01*
X1193336Y684743D01*
X1194670Y687964D01*
X1197136Y690430D01*
X1200357Y691764D01*
X1203843Y691764D01*
X1207064Y690430D01*
X1209530Y687964D01*
X1210864Y684743D01*
X1210864Y681257D01*
X1209530Y678036D01*
X1207064Y675570D01*
X1203843Y674236D01*
X1200357Y674236D01*
G37*
%LPD*%
%LPC*%
G36*
X1403557Y674236D02*
X1403557Y674236D01*
X1400336Y675570D01*
X1397870Y678036D01*
X1396536Y681257D01*
X1396536Y684743D01*
X1397870Y687964D01*
X1400336Y690430D01*
X1403557Y691764D01*
X1407043Y691764D01*
X1410264Y690430D01*
X1412730Y687964D01*
X1414064Y684743D01*
X1414064Y681257D01*
X1412730Y678036D01*
X1410264Y675570D01*
X1407043Y674236D01*
X1403557Y674236D01*
G37*
%LPD*%
%LPC*%
G36*
X1047957Y674236D02*
X1047957Y674236D01*
X1044736Y675570D01*
X1042270Y678036D01*
X1040936Y681257D01*
X1040936Y684743D01*
X1042270Y687964D01*
X1044736Y690430D01*
X1047957Y691764D01*
X1051443Y691764D01*
X1054664Y690430D01*
X1057130Y687964D01*
X1058464Y684743D01*
X1058464Y681257D01*
X1057130Y678036D01*
X1054664Y675570D01*
X1051443Y674236D01*
X1047957Y674236D01*
G37*
%LPD*%
%LPC*%
G36*
X1073357Y674236D02*
X1073357Y674236D01*
X1070136Y675570D01*
X1067670Y678036D01*
X1066336Y681257D01*
X1066336Y684743D01*
X1067670Y687964D01*
X1070136Y690430D01*
X1073357Y691764D01*
X1076843Y691764D01*
X1080064Y690430D01*
X1082530Y687964D01*
X1083864Y684743D01*
X1083864Y681257D01*
X1082530Y678036D01*
X1080064Y675570D01*
X1076843Y674236D01*
X1073357Y674236D01*
G37*
%LPD*%
%LPC*%
G36*
X1378157Y674236D02*
X1378157Y674236D01*
X1374936Y675570D01*
X1372470Y678036D01*
X1371136Y681257D01*
X1371136Y684743D01*
X1372470Y687964D01*
X1374936Y690430D01*
X1378157Y691764D01*
X1381643Y691764D01*
X1384864Y690430D01*
X1387330Y687964D01*
X1388664Y684743D01*
X1388664Y681257D01*
X1387330Y678036D01*
X1384864Y675570D01*
X1381643Y674236D01*
X1378157Y674236D01*
G37*
%LPD*%
%LPC*%
G36*
X1174957Y674236D02*
X1174957Y674236D01*
X1171736Y675570D01*
X1169270Y678036D01*
X1167936Y681257D01*
X1167936Y684743D01*
X1169270Y687964D01*
X1171736Y690430D01*
X1174957Y691764D01*
X1178443Y691764D01*
X1181664Y690430D01*
X1184130Y687964D01*
X1185464Y684743D01*
X1185464Y681257D01*
X1184130Y678036D01*
X1181664Y675570D01*
X1178443Y674236D01*
X1174957Y674236D01*
G37*
%LPD*%
%LPC*%
G36*
X1225757Y674236D02*
X1225757Y674236D01*
X1222536Y675570D01*
X1220070Y678036D01*
X1218736Y681257D01*
X1218736Y684743D01*
X1220070Y687964D01*
X1222536Y690430D01*
X1225757Y691764D01*
X1229243Y691764D01*
X1232464Y690430D01*
X1234930Y687964D01*
X1236264Y684743D01*
X1236264Y681257D01*
X1234930Y678036D01*
X1232464Y675570D01*
X1229243Y674236D01*
X1225757Y674236D01*
G37*
%LPD*%
%LPC*%
G36*
X1276557Y674236D02*
X1276557Y674236D01*
X1273336Y675570D01*
X1270870Y678036D01*
X1269536Y681257D01*
X1269536Y684743D01*
X1270870Y687964D01*
X1273336Y690430D01*
X1276557Y691764D01*
X1280043Y691764D01*
X1283264Y690430D01*
X1285730Y687964D01*
X1287064Y684743D01*
X1287064Y681257D01*
X1285730Y678036D01*
X1283264Y675570D01*
X1280043Y674236D01*
X1276557Y674236D01*
G37*
%LPD*%
%LPC*%
G36*
X1301957Y674236D02*
X1301957Y674236D01*
X1298736Y675570D01*
X1296270Y678036D01*
X1294936Y681257D01*
X1294936Y684743D01*
X1296270Y687964D01*
X1298736Y690430D01*
X1301957Y691764D01*
X1305443Y691764D01*
X1308664Y690430D01*
X1311130Y687964D01*
X1312464Y684743D01*
X1312464Y681257D01*
X1311130Y678036D01*
X1308664Y675570D01*
X1305443Y674236D01*
X1301957Y674236D01*
G37*
%LPD*%
%LPC*%
G36*
X1327357Y674236D02*
X1327357Y674236D01*
X1324136Y675570D01*
X1321670Y678036D01*
X1320336Y681257D01*
X1320336Y684743D01*
X1321670Y687964D01*
X1324136Y690430D01*
X1327357Y691764D01*
X1330843Y691764D01*
X1334064Y690430D01*
X1336530Y687964D01*
X1337864Y684743D01*
X1337864Y681257D01*
X1336530Y678036D01*
X1334064Y675570D01*
X1330843Y674236D01*
X1327357Y674236D01*
G37*
%LPD*%
%LPC*%
G36*
X1352757Y674236D02*
X1352757Y674236D01*
X1349536Y675570D01*
X1347070Y678036D01*
X1345736Y681257D01*
X1345736Y684743D01*
X1347070Y687964D01*
X1349536Y690430D01*
X1352757Y691764D01*
X1356243Y691764D01*
X1359464Y690430D01*
X1361930Y687964D01*
X1363264Y684743D01*
X1363264Y681257D01*
X1361930Y678036D01*
X1359464Y675570D01*
X1356243Y674236D01*
X1352757Y674236D01*
G37*
%LPD*%
%LPC*%
G36*
X1022557Y674236D02*
X1022557Y674236D01*
X1019336Y675570D01*
X1016870Y678036D01*
X1015536Y681257D01*
X1015536Y684743D01*
X1016870Y687964D01*
X1019336Y690430D01*
X1022557Y691764D01*
X1026043Y691764D01*
X1029264Y690430D01*
X1031730Y687964D01*
X1033064Y684743D01*
X1033064Y681257D01*
X1031730Y678036D01*
X1029264Y675570D01*
X1026043Y674236D01*
X1022557Y674236D01*
G37*
%LPD*%
%LPC*%
G36*
X997157Y674236D02*
X997157Y674236D01*
X993936Y675570D01*
X991470Y678036D01*
X990136Y681257D01*
X990136Y684743D01*
X991470Y687964D01*
X993936Y690430D01*
X997157Y691764D01*
X1000643Y691764D01*
X1003864Y690430D01*
X1006330Y687964D01*
X1007664Y684743D01*
X1007664Y681257D01*
X1006330Y678036D01*
X1003864Y675570D01*
X1000643Y674236D01*
X997157Y674236D01*
G37*
%LPD*%
%LPC*%
G36*
X1352757Y445636D02*
X1352757Y445636D01*
X1349536Y446970D01*
X1347070Y449436D01*
X1345736Y452657D01*
X1345736Y456143D01*
X1347070Y459364D01*
X1349536Y461830D01*
X1352757Y463164D01*
X1356243Y463164D01*
X1359464Y461830D01*
X1361930Y459364D01*
X1363264Y456143D01*
X1363264Y452657D01*
X1361930Y449436D01*
X1359464Y446970D01*
X1356243Y445636D01*
X1352757Y445636D01*
G37*
%LPD*%
%LPC*%
G36*
X1124157Y420236D02*
X1124157Y420236D01*
X1120936Y421570D01*
X1118470Y424036D01*
X1117136Y427257D01*
X1117136Y430743D01*
X1118470Y433964D01*
X1120936Y436430D01*
X1124157Y437764D01*
X1127643Y437764D01*
X1130864Y436430D01*
X1133330Y433964D01*
X1134664Y430743D01*
X1134664Y427257D01*
X1133330Y424036D01*
X1130864Y421570D01*
X1127643Y420236D01*
X1124157Y420236D01*
G37*
%LPD*%
%LPC*%
G36*
X1149557Y420236D02*
X1149557Y420236D01*
X1146336Y421570D01*
X1143870Y424036D01*
X1142536Y427257D01*
X1142536Y430743D01*
X1143870Y433964D01*
X1146336Y436430D01*
X1149557Y437764D01*
X1153043Y437764D01*
X1156264Y436430D01*
X1158730Y433964D01*
X1160064Y430743D01*
X1160064Y427257D01*
X1158730Y424036D01*
X1156264Y421570D01*
X1153043Y420236D01*
X1149557Y420236D01*
G37*
%LPD*%
%LPC*%
G36*
X1022557Y420236D02*
X1022557Y420236D01*
X1019336Y421570D01*
X1016870Y424036D01*
X1015536Y427257D01*
X1015536Y430743D01*
X1016870Y433964D01*
X1019336Y436430D01*
X1022557Y437764D01*
X1026043Y437764D01*
X1029264Y436430D01*
X1031730Y433964D01*
X1033064Y430743D01*
X1033064Y427257D01*
X1031730Y424036D01*
X1029264Y421570D01*
X1026043Y420236D01*
X1022557Y420236D01*
G37*
%LPD*%
%LPC*%
G36*
X1174957Y420236D02*
X1174957Y420236D01*
X1171736Y421570D01*
X1169270Y424036D01*
X1167936Y427257D01*
X1167936Y430743D01*
X1169270Y433964D01*
X1171736Y436430D01*
X1174957Y437764D01*
X1178443Y437764D01*
X1181664Y436430D01*
X1184130Y433964D01*
X1185464Y430743D01*
X1185464Y427257D01*
X1184130Y424036D01*
X1181664Y421570D01*
X1178443Y420236D01*
X1174957Y420236D01*
G37*
%LPD*%
%LPC*%
G36*
X1276557Y420236D02*
X1276557Y420236D01*
X1273336Y421570D01*
X1270870Y424036D01*
X1269536Y427257D01*
X1269536Y430743D01*
X1270870Y433964D01*
X1273336Y436430D01*
X1276557Y437764D01*
X1280043Y437764D01*
X1283264Y436430D01*
X1285730Y433964D01*
X1287064Y430743D01*
X1287064Y427257D01*
X1285730Y424036D01*
X1283264Y421570D01*
X1280043Y420236D01*
X1276557Y420236D01*
G37*
%LPD*%
%LPC*%
G36*
X1301957Y420236D02*
X1301957Y420236D01*
X1298736Y421570D01*
X1296270Y424036D01*
X1294936Y427257D01*
X1294936Y430743D01*
X1296270Y433964D01*
X1298736Y436430D01*
X1301957Y437764D01*
X1305443Y437764D01*
X1308664Y436430D01*
X1311130Y433964D01*
X1312464Y430743D01*
X1312464Y427257D01*
X1311130Y424036D01*
X1308664Y421570D01*
X1305443Y420236D01*
X1301957Y420236D01*
G37*
%LPD*%
%LPC*%
G36*
X1327357Y420236D02*
X1327357Y420236D01*
X1324136Y421570D01*
X1321670Y424036D01*
X1320336Y427257D01*
X1320336Y430743D01*
X1321670Y433964D01*
X1324136Y436430D01*
X1327357Y437764D01*
X1330843Y437764D01*
X1334064Y436430D01*
X1336530Y433964D01*
X1337864Y430743D01*
X1337864Y427257D01*
X1336530Y424036D01*
X1334064Y421570D01*
X1330843Y420236D01*
X1327357Y420236D01*
G37*
%LPD*%
%LPC*%
G36*
X1352757Y420236D02*
X1352757Y420236D01*
X1349536Y421570D01*
X1347070Y424036D01*
X1345736Y427257D01*
X1345736Y430743D01*
X1347070Y433964D01*
X1349536Y436430D01*
X1352757Y437764D01*
X1356243Y437764D01*
X1359464Y436430D01*
X1361930Y433964D01*
X1363264Y430743D01*
X1363264Y427257D01*
X1361930Y424036D01*
X1359464Y421570D01*
X1356243Y420236D01*
X1352757Y420236D01*
G37*
%LPD*%
%LPC*%
G36*
X1378157Y420236D02*
X1378157Y420236D01*
X1374936Y421570D01*
X1372470Y424036D01*
X1371136Y427257D01*
X1371136Y430743D01*
X1372470Y433964D01*
X1374936Y436430D01*
X1378157Y437764D01*
X1381643Y437764D01*
X1384864Y436430D01*
X1387330Y433964D01*
X1388664Y430743D01*
X1388664Y427257D01*
X1387330Y424036D01*
X1384864Y421570D01*
X1381643Y420236D01*
X1378157Y420236D01*
G37*
%LPD*%
%LPC*%
G36*
X1098757Y420236D02*
X1098757Y420236D01*
X1095536Y421570D01*
X1093070Y424036D01*
X1091736Y427257D01*
X1091736Y430743D01*
X1093070Y433964D01*
X1095536Y436430D01*
X1098757Y437764D01*
X1102243Y437764D01*
X1105464Y436430D01*
X1107930Y433964D01*
X1109264Y430743D01*
X1109264Y427257D01*
X1107930Y424036D01*
X1105464Y421570D01*
X1102243Y420236D01*
X1098757Y420236D01*
G37*
%LPD*%
%LPC*%
G36*
X1073357Y420236D02*
X1073357Y420236D01*
X1070136Y421570D01*
X1067670Y424036D01*
X1066336Y427257D01*
X1066336Y430743D01*
X1067670Y433964D01*
X1070136Y436430D01*
X1073357Y437764D01*
X1076843Y437764D01*
X1080064Y436430D01*
X1082530Y433964D01*
X1083864Y430743D01*
X1083864Y427257D01*
X1082530Y424036D01*
X1080064Y421570D01*
X1076843Y420236D01*
X1073357Y420236D01*
G37*
%LPD*%
%LPC*%
G36*
X1047957Y420236D02*
X1047957Y420236D01*
X1044736Y421570D01*
X1042270Y424036D01*
X1040936Y427257D01*
X1040936Y430743D01*
X1042270Y433964D01*
X1044736Y436430D01*
X1047957Y437764D01*
X1051443Y437764D01*
X1054664Y436430D01*
X1057130Y433964D01*
X1058464Y430743D01*
X1058464Y427257D01*
X1057130Y424036D01*
X1054664Y421570D01*
X1051443Y420236D01*
X1047957Y420236D01*
G37*
%LPD*%
%LPC*%
G36*
X997157Y420236D02*
X997157Y420236D01*
X993936Y421570D01*
X991470Y424036D01*
X990136Y427257D01*
X990136Y430743D01*
X991470Y433964D01*
X993936Y436430D01*
X997157Y437764D01*
X1000643Y437764D01*
X1003864Y436430D01*
X1006330Y433964D01*
X1007664Y430743D01*
X1007664Y427257D01*
X1006330Y424036D01*
X1003864Y421570D01*
X1000643Y420236D01*
X997157Y420236D01*
G37*
%LPD*%
%LPC*%
G36*
X971757Y420236D02*
X971757Y420236D01*
X968536Y421570D01*
X966070Y424036D01*
X964736Y427257D01*
X964736Y430743D01*
X966070Y433964D01*
X968536Y436430D01*
X971757Y437764D01*
X975243Y437764D01*
X978464Y436430D01*
X980930Y433964D01*
X982264Y430743D01*
X982264Y427257D01*
X980930Y424036D01*
X978464Y421570D01*
X975243Y420236D01*
X971757Y420236D01*
G37*
%LPD*%
%LPC*%
G36*
X1403557Y420236D02*
X1403557Y420236D01*
X1400336Y421570D01*
X1397870Y424036D01*
X1396536Y427257D01*
X1396536Y430743D01*
X1397870Y433964D01*
X1400336Y436430D01*
X1403557Y437764D01*
X1407043Y437764D01*
X1410264Y436430D01*
X1412730Y433964D01*
X1414064Y430743D01*
X1414064Y427257D01*
X1412730Y424036D01*
X1410264Y421570D01*
X1407043Y420236D01*
X1403557Y420236D01*
G37*
%LPD*%
%LPC*%
G36*
X1200357Y445636D02*
X1200357Y445636D01*
X1197136Y446970D01*
X1194670Y449436D01*
X1193336Y452657D01*
X1193336Y456143D01*
X1194670Y459364D01*
X1197136Y461830D01*
X1200357Y463164D01*
X1203843Y463164D01*
X1207064Y461830D01*
X1209530Y459364D01*
X1210864Y456143D01*
X1210864Y452657D01*
X1209530Y449436D01*
X1207064Y446970D01*
X1203843Y445636D01*
X1200357Y445636D01*
G37*
%LPD*%
%LPC*%
G36*
X1200357Y420236D02*
X1200357Y420236D01*
X1197136Y421570D01*
X1194670Y424036D01*
X1193336Y427257D01*
X1193336Y430743D01*
X1194670Y433964D01*
X1197136Y436430D01*
X1200357Y437764D01*
X1203843Y437764D01*
X1207064Y436430D01*
X1209530Y433964D01*
X1210864Y430743D01*
X1210864Y427257D01*
X1209530Y424036D01*
X1207064Y421570D01*
X1203843Y420236D01*
X1200357Y420236D01*
G37*
%LPD*%
%LPC*%
G36*
X1022557Y445636D02*
X1022557Y445636D01*
X1019336Y446970D01*
X1016870Y449436D01*
X1015536Y452657D01*
X1015536Y456143D01*
X1016870Y459364D01*
X1019336Y461830D01*
X1022557Y463164D01*
X1026043Y463164D01*
X1029264Y461830D01*
X1031730Y459364D01*
X1033064Y456143D01*
X1033064Y452657D01*
X1031730Y449436D01*
X1029264Y446970D01*
X1026043Y445636D01*
X1022557Y445636D01*
G37*
%LPD*%
%LPC*%
G36*
X1378157Y445636D02*
X1378157Y445636D01*
X1374936Y446970D01*
X1372470Y449436D01*
X1371136Y452657D01*
X1371136Y456143D01*
X1372470Y459364D01*
X1374936Y461830D01*
X1378157Y463164D01*
X1381643Y463164D01*
X1384864Y461830D01*
X1387330Y459364D01*
X1388664Y456143D01*
X1388664Y452657D01*
X1387330Y449436D01*
X1384864Y446970D01*
X1381643Y445636D01*
X1378157Y445636D01*
G37*
%LPD*%
%LPC*%
G36*
X997157Y445636D02*
X997157Y445636D01*
X993936Y446970D01*
X991470Y449436D01*
X990136Y452657D01*
X990136Y456143D01*
X991470Y459364D01*
X993936Y461830D01*
X997157Y463164D01*
X1000643Y463164D01*
X1003864Y461830D01*
X1006330Y459364D01*
X1007664Y456143D01*
X1007664Y452657D01*
X1006330Y449436D01*
X1003864Y446970D01*
X1000643Y445636D01*
X997157Y445636D01*
G37*
%LPD*%
%LPC*%
G36*
X1403557Y445636D02*
X1403557Y445636D01*
X1400336Y446970D01*
X1397870Y449436D01*
X1396536Y452657D01*
X1396536Y456143D01*
X1397870Y459364D01*
X1400336Y461830D01*
X1403557Y463164D01*
X1407043Y463164D01*
X1410264Y461830D01*
X1412730Y459364D01*
X1414064Y456143D01*
X1414064Y452657D01*
X1412730Y449436D01*
X1410264Y446970D01*
X1407043Y445636D01*
X1403557Y445636D01*
G37*
%LPD*%
%LPC*%
G36*
X971757Y445636D02*
X971757Y445636D01*
X968536Y446970D01*
X966070Y449436D01*
X964736Y452657D01*
X964736Y456143D01*
X966070Y459364D01*
X968536Y461830D01*
X971757Y463164D01*
X975243Y463164D01*
X978464Y461830D01*
X980930Y459364D01*
X982264Y456143D01*
X982264Y452657D01*
X980930Y449436D01*
X978464Y446970D01*
X975243Y445636D01*
X971757Y445636D01*
G37*
%LPD*%
%LPC*%
G36*
X1047957Y445636D02*
X1047957Y445636D01*
X1044736Y446970D01*
X1042270Y449436D01*
X1040936Y452657D01*
X1040936Y456143D01*
X1042270Y459364D01*
X1044736Y461830D01*
X1047957Y463164D01*
X1051443Y463164D01*
X1054664Y461830D01*
X1057130Y459364D01*
X1058464Y456143D01*
X1058464Y452657D01*
X1057130Y449436D01*
X1054664Y446970D01*
X1051443Y445636D01*
X1047957Y445636D01*
G37*
%LPD*%
%LPC*%
G36*
X1073357Y445636D02*
X1073357Y445636D01*
X1070136Y446970D01*
X1067670Y449436D01*
X1066336Y452657D01*
X1066336Y456143D01*
X1067670Y459364D01*
X1070136Y461830D01*
X1073357Y463164D01*
X1076843Y463164D01*
X1080064Y461830D01*
X1082530Y459364D01*
X1083864Y456143D01*
X1083864Y452657D01*
X1082530Y449436D01*
X1080064Y446970D01*
X1076843Y445636D01*
X1073357Y445636D01*
G37*
%LPD*%
%LPC*%
G36*
X258981Y430859D02*
X258981Y430859D01*
X255989Y432099D01*
X253699Y434389D01*
X252459Y437381D01*
X252459Y440619D01*
X253699Y443611D01*
X255989Y445901D01*
X258981Y447141D01*
X262219Y447141D01*
X265211Y445901D01*
X267501Y443611D01*
X268741Y440619D01*
X268741Y437381D01*
X267501Y434389D01*
X265211Y432099D01*
X262219Y430859D01*
X258981Y430859D01*
G37*
%LPD*%
%LPC*%
G36*
X258981Y495859D02*
X258981Y495859D01*
X255989Y497099D01*
X253699Y499389D01*
X252459Y502381D01*
X252459Y505619D01*
X253699Y508611D01*
X255989Y510901D01*
X258981Y512141D01*
X262219Y512141D01*
X265211Y510901D01*
X267501Y508611D01*
X268741Y505619D01*
X268741Y502381D01*
X267501Y499389D01*
X265211Y497099D01*
X262219Y495859D01*
X258981Y495859D01*
G37*
%LPD*%
%LPC*%
G36*
X1136808Y520191D02*
X1136808Y520191D01*
X1134754Y521042D01*
X1133182Y522614D01*
X1132331Y524668D01*
X1132331Y526892D01*
X1133182Y528946D01*
X1134754Y530518D01*
X1136808Y531369D01*
X1139032Y531369D01*
X1141086Y530518D01*
X1142102Y529501D01*
X1142196Y529428D01*
X1142286Y529349D01*
X1142322Y529331D01*
X1142354Y529306D01*
X1142463Y529259D01*
X1142569Y529205D01*
X1142608Y529196D01*
X1142646Y529180D01*
X1142763Y529161D01*
X1142879Y529135D01*
X1142920Y529136D01*
X1142960Y529130D01*
X1143078Y529141D01*
X1143197Y529145D01*
X1143236Y529156D01*
X1143276Y529160D01*
X1143389Y529200D01*
X1143503Y529233D01*
X1143537Y529254D01*
X1143576Y529267D01*
X1143674Y529334D01*
X1143777Y529395D01*
X1143822Y529435D01*
X1143839Y529446D01*
X1143852Y529461D01*
X1143897Y529501D01*
X1144914Y530518D01*
X1146968Y531369D01*
X1149192Y531369D01*
X1151246Y530518D01*
X1152818Y528946D01*
X1153669Y526892D01*
X1153669Y524668D01*
X1152818Y522614D01*
X1151246Y521042D01*
X1149192Y520191D01*
X1146968Y520191D01*
X1144914Y521042D01*
X1143897Y522059D01*
X1143803Y522132D01*
X1143714Y522211D01*
X1143678Y522229D01*
X1143646Y522254D01*
X1143537Y522301D01*
X1143431Y522355D01*
X1143392Y522364D01*
X1143354Y522380D01*
X1143237Y522399D01*
X1143121Y522425D01*
X1143080Y522424D01*
X1143040Y522430D01*
X1142922Y522419D01*
X1142803Y522415D01*
X1142764Y522404D01*
X1142724Y522400D01*
X1142612Y522360D01*
X1142497Y522327D01*
X1142462Y522306D01*
X1142424Y522293D01*
X1142326Y522226D01*
X1142223Y522165D01*
X1142178Y522126D01*
X1142161Y522114D01*
X1142148Y522099D01*
X1142102Y522059D01*
X1141086Y521042D01*
X1139032Y520191D01*
X1136808Y520191D01*
G37*
%LPD*%
%LPC*%
G36*
X1060608Y609091D02*
X1060608Y609091D01*
X1058554Y609942D01*
X1056982Y611514D01*
X1056131Y613568D01*
X1056131Y615792D01*
X1056982Y617846D01*
X1058554Y619418D01*
X1060608Y620269D01*
X1062832Y620269D01*
X1064886Y619418D01*
X1065902Y618401D01*
X1065996Y618328D01*
X1066086Y618249D01*
X1066122Y618231D01*
X1066154Y618206D01*
X1066263Y618159D01*
X1066369Y618105D01*
X1066408Y618096D01*
X1066446Y618080D01*
X1066563Y618061D01*
X1066679Y618035D01*
X1066720Y618036D01*
X1066760Y618030D01*
X1066878Y618041D01*
X1066997Y618045D01*
X1067036Y618056D01*
X1067076Y618060D01*
X1067189Y618100D01*
X1067303Y618133D01*
X1067337Y618154D01*
X1067376Y618167D01*
X1067474Y618234D01*
X1067577Y618295D01*
X1067622Y618335D01*
X1067639Y618346D01*
X1067652Y618361D01*
X1067697Y618401D01*
X1068714Y619418D01*
X1070768Y620269D01*
X1072992Y620269D01*
X1075046Y619418D01*
X1076618Y617846D01*
X1077469Y615792D01*
X1077469Y613568D01*
X1076618Y611514D01*
X1075046Y609942D01*
X1072992Y609091D01*
X1070768Y609091D01*
X1068714Y609942D01*
X1067697Y610959D01*
X1067603Y611032D01*
X1067514Y611111D01*
X1067478Y611129D01*
X1067446Y611154D01*
X1067337Y611201D01*
X1067231Y611255D01*
X1067192Y611264D01*
X1067154Y611280D01*
X1067037Y611299D01*
X1066921Y611325D01*
X1066880Y611324D01*
X1066840Y611330D01*
X1066722Y611319D01*
X1066603Y611315D01*
X1066564Y611304D01*
X1066524Y611300D01*
X1066412Y611260D01*
X1066297Y611227D01*
X1066262Y611206D01*
X1066224Y611193D01*
X1066126Y611126D01*
X1066023Y611065D01*
X1065978Y611026D01*
X1065961Y611014D01*
X1065948Y610999D01*
X1065902Y610959D01*
X1064886Y609942D01*
X1062832Y609091D01*
X1060608Y609091D01*
G37*
%LPD*%
%LPC*%
G36*
X697388Y423671D02*
X697388Y423671D01*
X695334Y424522D01*
X693762Y426094D01*
X692911Y428148D01*
X692911Y430372D01*
X693828Y432584D01*
X693854Y432680D01*
X693889Y432772D01*
X693896Y432833D01*
X693912Y432891D01*
X693913Y432990D01*
X693924Y433088D01*
X693916Y433148D01*
X693917Y433209D01*
X693894Y433305D01*
X693880Y433403D01*
X693847Y433498D01*
X693843Y433518D01*
X693837Y433529D01*
X693828Y433556D01*
X692911Y435768D01*
X692911Y437992D01*
X693762Y440046D01*
X695334Y441618D01*
X697388Y442469D01*
X699612Y442469D01*
X701666Y441618D01*
X703238Y440046D01*
X704089Y437992D01*
X704089Y435768D01*
X703172Y433556D01*
X703146Y433460D01*
X703111Y433368D01*
X703104Y433307D01*
X703088Y433249D01*
X703087Y433150D01*
X703076Y433052D01*
X703084Y432992D01*
X703083Y432931D01*
X703106Y432835D01*
X703120Y432737D01*
X703153Y432642D01*
X703157Y432622D01*
X703163Y432611D01*
X703172Y432584D01*
X704089Y430372D01*
X704089Y428148D01*
X703238Y426094D01*
X701666Y424522D01*
X699612Y423671D01*
X697388Y423671D01*
G37*
%LPD*%
%LPC*%
G36*
X971708Y728471D02*
X971708Y728471D01*
X969654Y729322D01*
X968082Y730894D01*
X967231Y732948D01*
X967231Y735172D01*
X968082Y737226D01*
X969654Y738798D01*
X971708Y739649D01*
X973932Y739649D01*
X975986Y738798D01*
X977558Y737226D01*
X978409Y735172D01*
X978409Y732948D01*
X977558Y730894D01*
X975986Y729322D01*
X973932Y728471D01*
X971708Y728471D01*
G37*
%LPD*%
%LPC*%
G36*
X694848Y710691D02*
X694848Y710691D01*
X692794Y711542D01*
X691222Y713114D01*
X690371Y715168D01*
X690371Y717392D01*
X691222Y719446D01*
X692794Y721018D01*
X694848Y721869D01*
X697072Y721869D01*
X699126Y721018D01*
X700698Y719446D01*
X701549Y717392D01*
X701549Y715168D01*
X700698Y713114D01*
X699126Y711542D01*
X697072Y710691D01*
X694848Y710691D01*
G37*
%LPD*%
%LPC*%
G36*
X621188Y703071D02*
X621188Y703071D01*
X619134Y703922D01*
X617562Y705494D01*
X616711Y707548D01*
X616711Y709772D01*
X617562Y711826D01*
X619134Y713398D01*
X621188Y714249D01*
X623412Y714249D01*
X625466Y713398D01*
X627038Y711826D01*
X627889Y709772D01*
X627889Y707548D01*
X627038Y705494D01*
X625466Y703922D01*
X623412Y703071D01*
X621188Y703071D01*
G37*
%LPD*%
%LPC*%
G36*
X595788Y692911D02*
X595788Y692911D01*
X593734Y693762D01*
X592162Y695334D01*
X591311Y697388D01*
X591311Y699612D01*
X592162Y701666D01*
X593734Y703238D01*
X595788Y704089D01*
X598012Y704089D01*
X600066Y703238D01*
X601638Y701666D01*
X602489Y699612D01*
X602489Y697388D01*
X601638Y695334D01*
X600066Y693762D01*
X598012Y692911D01*
X595788Y692911D01*
G37*
%LPD*%
%LPC*%
G36*
X570388Y685291D02*
X570388Y685291D01*
X568334Y686142D01*
X566762Y687714D01*
X565911Y689768D01*
X565911Y691992D01*
X566762Y694046D01*
X568334Y695618D01*
X570388Y696469D01*
X572612Y696469D01*
X574666Y695618D01*
X576238Y694046D01*
X577089Y691992D01*
X577089Y689768D01*
X576238Y687714D01*
X574666Y686142D01*
X572612Y685291D01*
X570388Y685291D01*
G37*
%LPD*%
%LPC*%
G36*
X1431448Y243331D02*
X1431448Y243331D01*
X1429394Y244182D01*
X1427822Y245754D01*
X1426971Y247808D01*
X1426971Y250032D01*
X1427822Y252086D01*
X1429394Y253658D01*
X1431448Y254509D01*
X1433672Y254509D01*
X1435726Y253658D01*
X1437298Y252086D01*
X1438149Y250032D01*
X1438149Y247808D01*
X1437298Y245754D01*
X1435726Y244182D01*
X1433672Y243331D01*
X1431448Y243331D01*
G37*
%LPD*%
%LPC*%
G36*
X1378108Y238251D02*
X1378108Y238251D01*
X1376054Y239102D01*
X1374482Y240674D01*
X1373631Y242728D01*
X1373631Y244952D01*
X1374482Y247006D01*
X1376054Y248578D01*
X1378108Y249429D01*
X1380332Y249429D01*
X1382386Y248578D01*
X1383958Y247006D01*
X1384809Y244952D01*
X1384809Y242728D01*
X1383958Y240674D01*
X1382386Y239102D01*
X1380332Y238251D01*
X1378108Y238251D01*
G37*
%LPD*%
%LPC*%
G36*
X1370488Y178561D02*
X1370488Y178561D01*
X1368434Y179412D01*
X1366862Y180984D01*
X1366011Y183038D01*
X1366011Y185262D01*
X1366862Y187316D01*
X1368434Y188888D01*
X1370488Y189739D01*
X1372712Y189739D01*
X1374766Y188888D01*
X1376338Y187316D01*
X1377189Y185262D01*
X1377189Y183038D01*
X1376338Y180984D01*
X1374766Y179412D01*
X1372712Y178561D01*
X1370488Y178561D01*
G37*
%LPD*%
%LPC*%
G36*
X1096168Y609091D02*
X1096168Y609091D01*
X1094114Y609942D01*
X1092542Y611514D01*
X1091691Y613568D01*
X1091691Y615792D01*
X1092542Y617846D01*
X1094114Y619418D01*
X1096168Y620269D01*
X1098392Y620269D01*
X1100446Y619418D01*
X1102018Y617846D01*
X1102869Y615792D01*
X1102869Y613568D01*
X1102018Y611514D01*
X1100446Y609942D01*
X1098392Y609091D01*
X1096168Y609091D01*
G37*
%LPD*%
%LPC*%
G36*
X329088Y680211D02*
X329088Y680211D01*
X327034Y681062D01*
X325462Y682634D01*
X324611Y684688D01*
X324611Y686912D01*
X325462Y688966D01*
X327034Y690538D01*
X329088Y691389D01*
X331312Y691389D01*
X333366Y690538D01*
X334938Y688966D01*
X335789Y686912D01*
X335789Y684688D01*
X334938Y682634D01*
X333366Y681062D01*
X331312Y680211D01*
X329088Y680211D01*
G37*
%LPD*%
%LPC*%
G36*
X544988Y677671D02*
X544988Y677671D01*
X542934Y678522D01*
X541362Y680094D01*
X540511Y682148D01*
X540511Y684372D01*
X541362Y686426D01*
X542934Y687998D01*
X544988Y688849D01*
X547212Y688849D01*
X549266Y687998D01*
X550838Y686426D01*
X551689Y684372D01*
X551689Y682148D01*
X550838Y680094D01*
X549266Y678522D01*
X547212Y677671D01*
X544988Y677671D01*
G37*
%LPD*%
%LPC*%
G36*
X519588Y619251D02*
X519588Y619251D01*
X517534Y620102D01*
X515962Y621674D01*
X515111Y623728D01*
X515111Y625952D01*
X515962Y628006D01*
X517534Y629578D01*
X519588Y630429D01*
X521812Y630429D01*
X523866Y629578D01*
X525438Y628006D01*
X526289Y625952D01*
X526289Y623728D01*
X525438Y621674D01*
X523866Y620102D01*
X521812Y619251D01*
X519588Y619251D01*
G37*
%LPD*%
%LPC*%
G36*
X468788Y619251D02*
X468788Y619251D01*
X466734Y620102D01*
X465162Y621674D01*
X464311Y623728D01*
X464311Y625952D01*
X465162Y628006D01*
X466734Y629578D01*
X468788Y630429D01*
X471012Y630429D01*
X473066Y629578D01*
X474638Y628006D01*
X475489Y625952D01*
X475489Y623728D01*
X474638Y621674D01*
X473066Y620102D01*
X471012Y619251D01*
X468788Y619251D01*
G37*
%LPD*%
%LPC*%
G36*
X443388Y619251D02*
X443388Y619251D01*
X441334Y620102D01*
X439762Y621674D01*
X438911Y623728D01*
X438911Y625952D01*
X439762Y628006D01*
X441334Y629578D01*
X443388Y630429D01*
X445612Y630429D01*
X447666Y629578D01*
X449238Y628006D01*
X450089Y625952D01*
X450089Y623728D01*
X449238Y621674D01*
X447666Y620102D01*
X445612Y619251D01*
X443388Y619251D01*
G37*
%LPD*%
%LPC*%
G36*
X595788Y619251D02*
X595788Y619251D01*
X593734Y620102D01*
X592162Y621674D01*
X591311Y623728D01*
X591311Y625952D01*
X592162Y628006D01*
X593734Y629578D01*
X595788Y630429D01*
X598012Y630429D01*
X600066Y629578D01*
X601638Y628006D01*
X602489Y625952D01*
X602489Y623728D01*
X601638Y621674D01*
X600066Y620102D01*
X598012Y619251D01*
X595788Y619251D01*
G37*
%LPD*%
%LPC*%
G36*
X544988Y619251D02*
X544988Y619251D01*
X542934Y620102D01*
X541362Y621674D01*
X540511Y623728D01*
X540511Y625952D01*
X541362Y628006D01*
X542934Y629578D01*
X544988Y630429D01*
X547212Y630429D01*
X549266Y629578D01*
X550838Y628006D01*
X551689Y625952D01*
X551689Y623728D01*
X550838Y621674D01*
X549266Y620102D01*
X547212Y619251D01*
X544988Y619251D01*
G37*
%LPD*%
%LPC*%
G36*
X519588Y667511D02*
X519588Y667511D01*
X517534Y668362D01*
X515962Y669934D01*
X515111Y671988D01*
X515111Y674212D01*
X515962Y676266D01*
X517534Y677838D01*
X519588Y678689D01*
X521812Y678689D01*
X523866Y677838D01*
X525438Y676266D01*
X526289Y674212D01*
X526289Y671988D01*
X525438Y669934D01*
X523866Y668362D01*
X521812Y667511D01*
X519588Y667511D01*
G37*
%LPD*%
%LPC*%
G36*
X494188Y659891D02*
X494188Y659891D01*
X492134Y660742D01*
X490562Y662314D01*
X489711Y664368D01*
X489711Y666592D01*
X490562Y668646D01*
X492134Y670218D01*
X494188Y671069D01*
X496412Y671069D01*
X498466Y670218D01*
X500038Y668646D01*
X500889Y666592D01*
X500889Y664368D01*
X500038Y662314D01*
X498466Y660742D01*
X496412Y659891D01*
X494188Y659891D01*
G37*
%LPD*%
%LPC*%
G36*
X468788Y649731D02*
X468788Y649731D01*
X466734Y650582D01*
X465162Y652154D01*
X464311Y654208D01*
X464311Y656432D01*
X465162Y658486D01*
X466734Y660058D01*
X468788Y660909D01*
X471012Y660909D01*
X473066Y660058D01*
X474638Y658486D01*
X475489Y656432D01*
X475489Y654208D01*
X474638Y652154D01*
X473066Y650582D01*
X471012Y649731D01*
X468788Y649731D01*
G37*
%LPD*%
%LPC*%
G36*
X443388Y637031D02*
X443388Y637031D01*
X441334Y637882D01*
X439762Y639454D01*
X438911Y641508D01*
X438911Y643732D01*
X439762Y645786D01*
X441334Y647358D01*
X443388Y648209D01*
X445612Y648209D01*
X447666Y647358D01*
X449238Y645786D01*
X450089Y643732D01*
X450089Y641508D01*
X449238Y639454D01*
X447666Y637882D01*
X445612Y637031D01*
X443388Y637031D01*
G37*
%LPD*%
%LPC*%
G36*
X1152048Y626871D02*
X1152048Y626871D01*
X1149994Y627722D01*
X1148422Y629294D01*
X1147571Y631348D01*
X1147571Y633572D01*
X1148422Y635626D01*
X1149994Y637198D01*
X1152048Y638049D01*
X1154272Y638049D01*
X1156326Y637198D01*
X1157898Y635626D01*
X1158749Y633572D01*
X1158749Y631348D01*
X1157898Y629294D01*
X1156326Y627722D01*
X1154272Y626871D01*
X1152048Y626871D01*
G37*
%LPD*%
%LPC*%
G36*
X621188Y619251D02*
X621188Y619251D01*
X619134Y620102D01*
X617562Y621674D01*
X616711Y623728D01*
X616711Y625952D01*
X617562Y628006D01*
X619134Y629578D01*
X621188Y630429D01*
X623412Y630429D01*
X625466Y629578D01*
X627038Y628006D01*
X627889Y625952D01*
X627889Y623728D01*
X627038Y621674D01*
X625466Y620102D01*
X623412Y619251D01*
X621188Y619251D01*
G37*
%LPD*%
%LPC*%
G36*
X570388Y619251D02*
X570388Y619251D01*
X568334Y620102D01*
X566762Y621674D01*
X565911Y623728D01*
X565911Y625952D01*
X566762Y628006D01*
X568334Y629578D01*
X570388Y630429D01*
X572612Y630429D01*
X574666Y629578D01*
X576238Y628006D01*
X577089Y625952D01*
X577089Y623728D01*
X576238Y621674D01*
X574666Y620102D01*
X572612Y619251D01*
X570388Y619251D01*
G37*
%LPD*%
%LPC*%
G36*
X494188Y619251D02*
X494188Y619251D01*
X492134Y620102D01*
X490562Y621674D01*
X489711Y623728D01*
X489711Y625952D01*
X490562Y628006D01*
X492134Y629578D01*
X494188Y630429D01*
X496412Y630429D01*
X498466Y629578D01*
X500038Y628006D01*
X500889Y625952D01*
X500889Y623728D01*
X500038Y621674D01*
X498466Y620102D01*
X496412Y619251D01*
X494188Y619251D01*
G37*
%LPD*%
%LPC*%
G36*
X997108Y487171D02*
X997108Y487171D01*
X995054Y488022D01*
X993482Y489594D01*
X992631Y491648D01*
X992631Y493872D01*
X993482Y495926D01*
X995054Y497498D01*
X997108Y498349D01*
X999332Y498349D01*
X1001386Y497498D01*
X1002958Y495926D01*
X1003809Y493872D01*
X1003809Y491648D01*
X1002958Y489594D01*
X1001386Y488022D01*
X999332Y487171D01*
X997108Y487171D01*
G37*
%LPD*%
%LPC*%
G36*
X519588Y474471D02*
X519588Y474471D01*
X517534Y475322D01*
X515962Y476894D01*
X515111Y478948D01*
X515111Y481172D01*
X515962Y483226D01*
X517534Y484798D01*
X519588Y485649D01*
X521812Y485649D01*
X523866Y484798D01*
X525438Y483226D01*
X526289Y481172D01*
X526289Y478948D01*
X525438Y476894D01*
X523866Y475322D01*
X521812Y474471D01*
X519588Y474471D01*
G37*
%LPD*%
%LPC*%
G36*
X621188Y474471D02*
X621188Y474471D01*
X619134Y475322D01*
X617562Y476894D01*
X616711Y478948D01*
X616711Y481172D01*
X617562Y483226D01*
X619134Y484798D01*
X621188Y485649D01*
X623412Y485649D01*
X625466Y484798D01*
X627038Y483226D01*
X627889Y481172D01*
X627889Y478948D01*
X627038Y476894D01*
X625466Y475322D01*
X623412Y474471D01*
X621188Y474471D01*
G37*
%LPD*%
%LPC*%
G36*
X997108Y527811D02*
X997108Y527811D01*
X995054Y528662D01*
X993482Y530234D01*
X992631Y532288D01*
X992631Y534512D01*
X993482Y536566D01*
X995054Y538138D01*
X997108Y538989D01*
X999332Y538989D01*
X1001386Y538138D01*
X1002958Y536566D01*
X1003809Y534512D01*
X1003809Y532288D01*
X1002958Y530234D01*
X1001386Y528662D01*
X999332Y527811D01*
X997108Y527811D01*
G37*
%LPD*%
%LPC*%
G36*
X468788Y474471D02*
X468788Y474471D01*
X466734Y475322D01*
X465162Y476894D01*
X464311Y478948D01*
X464311Y481172D01*
X465162Y483226D01*
X466734Y484798D01*
X468788Y485649D01*
X471012Y485649D01*
X473066Y484798D01*
X474638Y483226D01*
X475489Y481172D01*
X475489Y478948D01*
X474638Y476894D01*
X473066Y475322D01*
X471012Y474471D01*
X468788Y474471D01*
G37*
%LPD*%
%LPC*%
G36*
X969168Y522731D02*
X969168Y522731D01*
X967114Y523582D01*
X965542Y525154D01*
X964691Y527208D01*
X964691Y529432D01*
X965542Y531486D01*
X967114Y533058D01*
X969168Y533909D01*
X971392Y533909D01*
X973446Y533058D01*
X975018Y531486D01*
X975869Y529432D01*
X975869Y527208D01*
X975018Y525154D01*
X973446Y523582D01*
X971392Y522731D01*
X969168Y522731D01*
G37*
%LPD*%
%LPC*%
G36*
X1375568Y522731D02*
X1375568Y522731D01*
X1373514Y523582D01*
X1371942Y525154D01*
X1371091Y527208D01*
X1371091Y529432D01*
X1371942Y531486D01*
X1373514Y533058D01*
X1375568Y533909D01*
X1377792Y533909D01*
X1379846Y533058D01*
X1381418Y531486D01*
X1382269Y529432D01*
X1382269Y527208D01*
X1381418Y525154D01*
X1379846Y523582D01*
X1377792Y522731D01*
X1375568Y522731D01*
G37*
%LPD*%
%LPC*%
G36*
X1223168Y520191D02*
X1223168Y520191D01*
X1221114Y521042D01*
X1219542Y522614D01*
X1218691Y524668D01*
X1218691Y526892D01*
X1219542Y528946D01*
X1221114Y530518D01*
X1223168Y531369D01*
X1225392Y531369D01*
X1227446Y530518D01*
X1229018Y528946D01*
X1229869Y526892D01*
X1229869Y524668D01*
X1229018Y522614D01*
X1227446Y521042D01*
X1225392Y520191D01*
X1223168Y520191D01*
G37*
%LPD*%
%LPC*%
G36*
X986948Y507491D02*
X986948Y507491D01*
X984894Y508342D01*
X983322Y509914D01*
X982471Y511968D01*
X982471Y514192D01*
X983322Y516246D01*
X984894Y517818D01*
X986948Y518669D01*
X989172Y518669D01*
X991226Y517818D01*
X992798Y516246D01*
X993649Y514192D01*
X993649Y511968D01*
X992798Y509914D01*
X991226Y508342D01*
X989172Y507491D01*
X986948Y507491D01*
G37*
%LPD*%
%LPC*%
G36*
X797488Y425172D02*
X797488Y425172D01*
X795434Y426023D01*
X793861Y427595D01*
X793011Y429649D01*
X793011Y431872D01*
X793861Y433926D01*
X795434Y435499D01*
X797488Y436349D01*
X799711Y436349D01*
X801765Y435499D01*
X803337Y433926D01*
X804188Y431872D01*
X804188Y429649D01*
X803337Y427595D01*
X801765Y426023D01*
X799711Y425172D01*
X797488Y425172D01*
G37*
%LPD*%
%LPC*%
G36*
X1418748Y375411D02*
X1418748Y375411D01*
X1416694Y376262D01*
X1415122Y377834D01*
X1414271Y379888D01*
X1414271Y382112D01*
X1415122Y384166D01*
X1416694Y385738D01*
X1418748Y386589D01*
X1420972Y386589D01*
X1423026Y385738D01*
X1424598Y384166D01*
X1425449Y382112D01*
X1425449Y379888D01*
X1424598Y377834D01*
X1423026Y376262D01*
X1420972Y375411D01*
X1418748Y375411D01*
G37*
%LPD*%
%LPC*%
G36*
X1187608Y565911D02*
X1187608Y565911D01*
X1185554Y566762D01*
X1183982Y568334D01*
X1183131Y570388D01*
X1183131Y572612D01*
X1183982Y574666D01*
X1185554Y576238D01*
X1187608Y577089D01*
X1189832Y577089D01*
X1191886Y576238D01*
X1193458Y574666D01*
X1194309Y572612D01*
X1194309Y570388D01*
X1193458Y568334D01*
X1191886Y566762D01*
X1189832Y565911D01*
X1187608Y565911D01*
G37*
%LPD*%
%LPC*%
G36*
X70008Y570991D02*
X70008Y570991D01*
X67954Y571842D01*
X66382Y573414D01*
X65531Y575468D01*
X65531Y577692D01*
X66382Y579746D01*
X67954Y581318D01*
X70008Y582169D01*
X72232Y582169D01*
X74286Y581318D01*
X75858Y579746D01*
X76709Y577692D01*
X76709Y575468D01*
X75858Y573414D01*
X74286Y571842D01*
X72232Y570991D01*
X70008Y570991D01*
G37*
%LPD*%
%LPC*%
G36*
X143668Y570991D02*
X143668Y570991D01*
X141614Y571842D01*
X140042Y573414D01*
X139191Y575468D01*
X139191Y577692D01*
X140042Y579746D01*
X141614Y581318D01*
X143668Y582169D01*
X145892Y582169D01*
X147946Y581318D01*
X149518Y579746D01*
X150369Y577692D01*
X150369Y575468D01*
X149518Y573414D01*
X147946Y571842D01*
X145892Y570991D01*
X143668Y570991D01*
G37*
%LPD*%
%LPC*%
G36*
X997108Y573531D02*
X997108Y573531D01*
X995054Y574382D01*
X993482Y575954D01*
X992631Y578008D01*
X992631Y580232D01*
X993482Y582286D01*
X995054Y583858D01*
X997108Y584709D01*
X999332Y584709D01*
X1001386Y583858D01*
X1002958Y582286D01*
X1003809Y580232D01*
X1003809Y578008D01*
X1002958Y575954D01*
X1001386Y574382D01*
X999332Y573531D01*
X997108Y573531D01*
G37*
%LPD*%
%LPC*%
G36*
X1324768Y576071D02*
X1324768Y576071D01*
X1322714Y576922D01*
X1321142Y578494D01*
X1320291Y580548D01*
X1320291Y582772D01*
X1321142Y584826D01*
X1322714Y586398D01*
X1324768Y587249D01*
X1326992Y587249D01*
X1329046Y586398D01*
X1330618Y584826D01*
X1331469Y582772D01*
X1331469Y580548D01*
X1330618Y578494D01*
X1329046Y576922D01*
X1326992Y576071D01*
X1324768Y576071D01*
G37*
%LPD*%
%LPC*%
G36*
X956468Y606551D02*
X956468Y606551D01*
X954414Y607402D01*
X952842Y608974D01*
X951991Y611028D01*
X951991Y613252D01*
X952842Y615306D01*
X954414Y616878D01*
X956468Y617729D01*
X958692Y617729D01*
X960746Y616878D01*
X962318Y615306D01*
X963169Y613252D01*
X963169Y611028D01*
X962318Y608974D01*
X960746Y607402D01*
X958692Y606551D01*
X956468Y606551D01*
G37*
%LPD*%
%LPC*%
G36*
X953928Y621791D02*
X953928Y621791D01*
X951874Y622642D01*
X950302Y624214D01*
X949451Y626268D01*
X949451Y628492D01*
X950302Y630546D01*
X951874Y632118D01*
X953928Y632969D01*
X956152Y632969D01*
X958206Y632118D01*
X959778Y630546D01*
X960629Y628492D01*
X960629Y626268D01*
X959778Y624214D01*
X958206Y622642D01*
X956152Y621791D01*
X953928Y621791D01*
G37*
%LPD*%
%LPC*%
G36*
X1035208Y609091D02*
X1035208Y609091D01*
X1033154Y609942D01*
X1031582Y611514D01*
X1030731Y613568D01*
X1030731Y615792D01*
X1031582Y617846D01*
X1033154Y619418D01*
X1035208Y620269D01*
X1037432Y620269D01*
X1039486Y619418D01*
X1041058Y617846D01*
X1041909Y615792D01*
X1041909Y613568D01*
X1041058Y611514D01*
X1039486Y609942D01*
X1037432Y609091D01*
X1035208Y609091D01*
G37*
%LPD*%
%LPC*%
G36*
X303688Y266191D02*
X303688Y266191D01*
X301634Y267042D01*
X300062Y268614D01*
X299211Y270668D01*
X299211Y272892D01*
X300062Y274946D01*
X301634Y276518D01*
X303688Y277369D01*
X305912Y277369D01*
X307966Y276518D01*
X309538Y274946D01*
X310389Y272892D01*
X310389Y270668D01*
X309538Y268614D01*
X307966Y267042D01*
X305912Y266191D01*
X303688Y266191D01*
G37*
%LPD*%
%LPC*%
G36*
X426963Y293623D02*
X426963Y293623D01*
X426963Y301632D01*
X427700Y301515D01*
X429145Y301046D01*
X430499Y300356D01*
X431728Y299463D01*
X432803Y298388D01*
X433696Y297159D01*
X434386Y295805D01*
X434855Y294360D01*
X434972Y293623D01*
X426963Y293623D01*
G37*
%LPD*%
%LPC*%
G36*
X415908Y293623D02*
X415908Y293623D01*
X416025Y294360D01*
X416494Y295805D01*
X417184Y297159D01*
X418077Y298388D01*
X419152Y299463D01*
X420381Y300356D01*
X421735Y301046D01*
X423180Y301515D01*
X423917Y301632D01*
X423917Y293623D01*
X415908Y293623D01*
G37*
%LPD*%
%LPC*%
G36*
X426963Y290577D02*
X426963Y290577D01*
X434972Y290577D01*
X434855Y289840D01*
X434386Y288395D01*
X433696Y287041D01*
X432803Y285812D01*
X431728Y284737D01*
X430499Y283844D01*
X429145Y283154D01*
X427700Y282685D01*
X426963Y282568D01*
X426963Y290577D01*
G37*
%LPD*%
%LPC*%
G36*
X423180Y282685D02*
X423180Y282685D01*
X421735Y283154D01*
X420381Y283844D01*
X419152Y284737D01*
X418077Y285812D01*
X417184Y287041D01*
X416494Y288395D01*
X416025Y289840D01*
X415908Y290577D01*
X423917Y290577D01*
X423917Y282568D01*
X423180Y282685D01*
G37*
%LPD*%
%LPC*%
G36*
X1127423Y684523D02*
X1127423Y684523D01*
X1127423Y691632D01*
X1128456Y691427D01*
X1130051Y690766D01*
X1131487Y689807D01*
X1132707Y688587D01*
X1133666Y687151D01*
X1134327Y685556D01*
X1134532Y684523D01*
X1127423Y684523D01*
G37*
%LPD*%
%LPC*%
G36*
X1254423Y455923D02*
X1254423Y455923D01*
X1254423Y463032D01*
X1255456Y462827D01*
X1257051Y462166D01*
X1258487Y461207D01*
X1259707Y459987D01*
X1260666Y458551D01*
X1261327Y456956D01*
X1261532Y455923D01*
X1254423Y455923D01*
G37*
%LPD*%
%LPC*%
G36*
X1117268Y684523D02*
X1117268Y684523D01*
X1117473Y685556D01*
X1118134Y687151D01*
X1119093Y688587D01*
X1120313Y689807D01*
X1121749Y690766D01*
X1123344Y691427D01*
X1124377Y691632D01*
X1124377Y684523D01*
X1117268Y684523D01*
G37*
%LPD*%
%LPC*%
G36*
X1127423Y681477D02*
X1127423Y681477D01*
X1134532Y681477D01*
X1134327Y680444D01*
X1133666Y678849D01*
X1132707Y677413D01*
X1131487Y676193D01*
X1130051Y675234D01*
X1128456Y674573D01*
X1127423Y674368D01*
X1127423Y681477D01*
G37*
%LPD*%
%LPC*%
G36*
X1254423Y452877D02*
X1254423Y452877D01*
X1261532Y452877D01*
X1261327Y451844D01*
X1260666Y450249D01*
X1259707Y448813D01*
X1258487Y447593D01*
X1257051Y446634D01*
X1255456Y445973D01*
X1254423Y445768D01*
X1254423Y452877D01*
G37*
%LPD*%
%LPC*%
G36*
X1244268Y455923D02*
X1244268Y455923D01*
X1244473Y456956D01*
X1245134Y458551D01*
X1246093Y459987D01*
X1247313Y461207D01*
X1248749Y462166D01*
X1250344Y462827D01*
X1251377Y463032D01*
X1251377Y455923D01*
X1244268Y455923D01*
G37*
%LPD*%
%LPC*%
G36*
X1123344Y674573D02*
X1123344Y674573D01*
X1121749Y675234D01*
X1120313Y676193D01*
X1119093Y677413D01*
X1118134Y678849D01*
X1117473Y680444D01*
X1117268Y681477D01*
X1124377Y681477D01*
X1124377Y674368D01*
X1123344Y674573D01*
G37*
%LPD*%
%LPC*%
G36*
X1250344Y445973D02*
X1250344Y445973D01*
X1248749Y446634D01*
X1247313Y447593D01*
X1246093Y448813D01*
X1245134Y450249D01*
X1244473Y451844D01*
X1244268Y452877D01*
X1251377Y452877D01*
X1251377Y445768D01*
X1250344Y445973D01*
G37*
%LPD*%
%LPC*%
G36*
X1255122Y685222D02*
X1255122Y685222D01*
X1255122Y691493D01*
X1255456Y691427D01*
X1257051Y690766D01*
X1258487Y689807D01*
X1259707Y688587D01*
X1260666Y687151D01*
X1261327Y685556D01*
X1261393Y685222D01*
X1255122Y685222D01*
G37*
%LPD*%
%LPC*%
G36*
X1128122Y456622D02*
X1128122Y456622D01*
X1128122Y462893D01*
X1128456Y462827D01*
X1130051Y462166D01*
X1131487Y461207D01*
X1132707Y459987D01*
X1133666Y458551D01*
X1134327Y456956D01*
X1134393Y456622D01*
X1128122Y456622D01*
G37*
%LPD*%
%LPC*%
G36*
X1244407Y685222D02*
X1244407Y685222D01*
X1244473Y685556D01*
X1245134Y687151D01*
X1246093Y688587D01*
X1247313Y689807D01*
X1248749Y690766D01*
X1250344Y691427D01*
X1250678Y691493D01*
X1250678Y685222D01*
X1244407Y685222D01*
G37*
%LPD*%
%LPC*%
G36*
X1255122Y680778D02*
X1255122Y680778D01*
X1261393Y680778D01*
X1261327Y680444D01*
X1260666Y678849D01*
X1259707Y677413D01*
X1258487Y676193D01*
X1257051Y675234D01*
X1255456Y674573D01*
X1255122Y674507D01*
X1255122Y680778D01*
G37*
%LPD*%
%LPC*%
G36*
X1128122Y452178D02*
X1128122Y452178D01*
X1134393Y452178D01*
X1134327Y451844D01*
X1133666Y450249D01*
X1132707Y448813D01*
X1131487Y447593D01*
X1130051Y446634D01*
X1128456Y445973D01*
X1128122Y445907D01*
X1128122Y452178D01*
G37*
%LPD*%
%LPC*%
G36*
X1117407Y456622D02*
X1117407Y456622D01*
X1117473Y456956D01*
X1118134Y458551D01*
X1119093Y459987D01*
X1120313Y461207D01*
X1121749Y462166D01*
X1123344Y462827D01*
X1123678Y462893D01*
X1123678Y456622D01*
X1117407Y456622D01*
G37*
%LPD*%
%LPC*%
G36*
X1250344Y674573D02*
X1250344Y674573D01*
X1248749Y675234D01*
X1247313Y676193D01*
X1246093Y677413D01*
X1245134Y678849D01*
X1244473Y680444D01*
X1244407Y680778D01*
X1250678Y680778D01*
X1250678Y674507D01*
X1250344Y674573D01*
G37*
%LPD*%
%LPC*%
G36*
X1123344Y445973D02*
X1123344Y445973D01*
X1121749Y446634D01*
X1120313Y447593D01*
X1119093Y448813D01*
X1118134Y450249D01*
X1117473Y451844D01*
X1117407Y452178D01*
X1123678Y452178D01*
X1123678Y445907D01*
X1123344Y445973D01*
G37*
%LPD*%
%LPC*%
G36*
X1125899Y682999D02*
X1125899Y682999D01*
X1125899Y683001D01*
X1125901Y683001D01*
X1125901Y682999D01*
X1125899Y682999D01*
G37*
%LPD*%
%LPC*%
G36*
X1252899Y454399D02*
X1252899Y454399D01*
X1252899Y454401D01*
X1252901Y454401D01*
X1252901Y454399D01*
X1252899Y454399D01*
G37*
%LPD*%
%LPC*%
G36*
X425439Y292099D02*
X425439Y292099D01*
X425439Y292101D01*
X425441Y292101D01*
X425441Y292099D01*
X425439Y292099D01*
G37*
%LPD*%
D10*
X349240Y292100D03*
X374640Y292100D03*
X400040Y292100D03*
X425440Y292100D03*
D11*
X260600Y504000D03*
X260600Y439000D03*
D12*
X177800Y677600D03*
X117800Y677600D03*
X147800Y630600D03*
D13*
X1079500Y50800D03*
X1104900Y50800D03*
X1130300Y50800D03*
X1155700Y50800D03*
X1181100Y50800D03*
D14*
X1499000Y99000D03*
X99000Y99000D03*
X799000Y99000D03*
D15*
X254000Y685800D03*
X304800Y685800D03*
D16*
X973500Y429000D03*
X973500Y454400D03*
X998900Y429000D03*
X998900Y454400D03*
X1024300Y429000D03*
X1024300Y454400D03*
X1049700Y429000D03*
X1049700Y454400D03*
X1075100Y429000D03*
X1075100Y454400D03*
X1100500Y429000D03*
X1100500Y454400D03*
X1125900Y429000D03*
X1125900Y454400D03*
X1151300Y429000D03*
X1151300Y454400D03*
X1176700Y429000D03*
X1176700Y454400D03*
X1202100Y429000D03*
X1202100Y454400D03*
X1227500Y429000D03*
X1227500Y454400D03*
X1252900Y429000D03*
X1252900Y454400D03*
X1278300Y429000D03*
X1278300Y454400D03*
X1303700Y429000D03*
X1303700Y454400D03*
X1329100Y429000D03*
X1329100Y454400D03*
X1354500Y429000D03*
X1354500Y454400D03*
X1379900Y429000D03*
X1379900Y454400D03*
X1405300Y429000D03*
X1405300Y454400D03*
X973500Y683000D03*
X973500Y708400D03*
X998900Y683000D03*
X998900Y708400D03*
X1024300Y683000D03*
X1024300Y708400D03*
X1049700Y683000D03*
X1049700Y708400D03*
X1075100Y683000D03*
X1075100Y708400D03*
X1100500Y683000D03*
X1100500Y708400D03*
X1125900Y683000D03*
X1125900Y708400D03*
X1151300Y683000D03*
X1151300Y708400D03*
X1176700Y683000D03*
X1176700Y708400D03*
X1202100Y683000D03*
X1202100Y708400D03*
X1227500Y683000D03*
X1227500Y708400D03*
X1252900Y683000D03*
X1252900Y708400D03*
X1278300Y683000D03*
X1278300Y708400D03*
X1303700Y683000D03*
X1303700Y708400D03*
X1329100Y683000D03*
X1329100Y708400D03*
X1354500Y683000D03*
X1354500Y708400D03*
X1379900Y683000D03*
X1379900Y708400D03*
X1405300Y683000D03*
X1405300Y708400D03*
D17*
X1153160Y632460D03*
X1137920Y525780D03*
X1148080Y525780D03*
X1224280Y525780D03*
X798599Y430761D03*
X698500Y436880D03*
X698500Y429260D03*
X741680Y403860D03*
X741680Y391160D03*
X695960Y716280D03*
X469900Y480060D03*
X520700Y480060D03*
X622300Y480060D03*
X330200Y685800D03*
X71120Y576580D03*
X756920Y403860D03*
X756920Y391160D03*
X462280Y292100D03*
X1125900Y615360D03*
X1249680Y525780D03*
X741680Y381000D03*
X736600Y660400D03*
X345440Y401320D03*
X370840Y401320D03*
X797560Y439420D03*
X800100Y382524D03*
X797560Y716280D03*
X751840Y675640D03*
X1419860Y381000D03*
X304800Y271780D03*
X144780Y576580D03*
X863600Y655320D03*
X972820Y734060D03*
X957580Y612140D03*
X998220Y492760D03*
X1036320Y614680D03*
X970280Y528320D03*
X1097280Y614680D03*
X998220Y533400D03*
X1071880Y614680D03*
X988060Y513080D03*
X1432560Y248920D03*
X1379220Y243840D03*
X1061720Y614680D03*
X998220Y579120D03*
X1188720Y614680D03*
X1188720Y571500D03*
X1325880Y581660D03*
X1376680Y528320D03*
X955040Y627380D03*
X998220Y655320D03*
X1371600Y184150D03*
X1176020Y614680D03*
X444500Y624840D03*
X444500Y642620D03*
X469900Y624840D03*
X469900Y655320D03*
X495300Y624840D03*
X495300Y665480D03*
X520700Y624840D03*
X520700Y673100D03*
X546100Y624840D03*
X546100Y683260D03*
X596900Y624840D03*
X596900Y698500D03*
X622300Y624840D03*
X622300Y708660D03*
X571500Y624840D03*
X571500Y690880D03*
M02*
