G04 EAGLE Gerber RS-274X export*
G75*
%MOMM*%
%FSLAX34Y34*%
%LPD*%
%INTop Copper*%
%IPPOS*%
%AMOC8*
5,1,8,0,0,1.08239X$1,22.5*%
G01*
%ADD10C,1.778000*%
%ADD11C,1.120000*%
%ADD12C,2.240000*%
%ADD13R,0.990600X0.304800*%
%ADD14R,1.803000X1.600000*%
%ADD15R,1.600000X1.803000*%
%ADD16R,1.400000X1.400000*%
%ADD17C,1.400000*%
%ADD18C,1.016000*%
%ADD19C,4.016000*%
%ADD20R,1.020000X5.000000*%
%ADD21C,2.184400*%
%ADD22R,1.524000X1.524000*%
%ADD23P,1.649562X8X22.500000*%
%ADD24C,0.254000*%
%ADD25C,0.609600*%


D10*
X349240Y292100D03*
X374640Y292100D03*
X400040Y292100D03*
X425440Y292100D03*
D11*
X260600Y504000D03*
X260600Y439000D03*
D12*
X177800Y666400D02*
X177800Y688800D01*
X117800Y688800D02*
X117800Y666400D01*
X136600Y630600D02*
X159000Y630600D01*
D13*
X778478Y377150D03*
X778478Y383650D03*
X778478Y390150D03*
X778478Y396650D03*
X778478Y403150D03*
X778478Y409650D03*
X778478Y416150D03*
X778478Y422650D03*
X778478Y429150D03*
X778478Y435650D03*
X720122Y435650D03*
X720122Y429150D03*
X720122Y422650D03*
X720122Y416150D03*
X720122Y409650D03*
X720122Y403150D03*
X720122Y396650D03*
X720122Y390150D03*
X720122Y383650D03*
X720122Y377150D03*
X778478Y656550D03*
X778478Y663050D03*
X778478Y669550D03*
X778478Y676050D03*
X778478Y682550D03*
X778478Y689050D03*
X778478Y695550D03*
X778478Y702050D03*
X778478Y708550D03*
X778478Y715050D03*
X720122Y715050D03*
X720122Y708550D03*
X720122Y702050D03*
X720122Y695550D03*
X720122Y689050D03*
X720122Y682550D03*
X720122Y676050D03*
X720122Y669550D03*
X720122Y663050D03*
X720122Y656550D03*
D14*
X349250Y341380D03*
X349250Y369820D03*
X374650Y341380D03*
X374650Y369820D03*
D15*
X1360420Y152400D03*
X1331980Y152400D03*
X1360420Y279400D03*
X1331980Y279400D03*
X1360420Y215900D03*
X1331980Y215900D03*
X1411220Y279400D03*
X1382780Y279400D03*
X1411220Y215900D03*
X1382780Y215900D03*
X1411220Y152400D03*
X1382780Y152400D03*
D14*
X304800Y341380D03*
X304800Y369820D03*
D15*
X123720Y577100D03*
X95280Y577100D03*
D16*
X1079500Y50800D03*
D17*
X1104900Y50800D03*
X1130300Y50800D03*
X1155700Y50800D03*
X1181100Y50800D03*
D18*
X50800Y50800D03*
X1524000Y50800D03*
X1524000Y711200D03*
D19*
X1499000Y99000D03*
X99000Y99000D03*
X799000Y99000D03*
D20*
X444500Y528800D03*
X444500Y588800D03*
X469900Y528800D03*
X469900Y588800D03*
X495300Y528800D03*
X495300Y588800D03*
X520700Y528800D03*
X520700Y588800D03*
X546100Y528800D03*
X546100Y588800D03*
X571500Y528800D03*
X571500Y588800D03*
X596900Y528800D03*
X596900Y588800D03*
X622300Y528800D03*
X622300Y588800D03*
D21*
X254000Y674878D02*
X254000Y696722D01*
X304800Y696722D02*
X304800Y674878D01*
D22*
X973500Y429000D03*
D23*
X973500Y454400D03*
X998900Y429000D03*
X998900Y454400D03*
X1024300Y429000D03*
X1024300Y454400D03*
X1049700Y429000D03*
X1049700Y454400D03*
X1075100Y429000D03*
X1075100Y454400D03*
X1100500Y429000D03*
X1100500Y454400D03*
X1125900Y429000D03*
X1125900Y454400D03*
X1151300Y429000D03*
X1151300Y454400D03*
X1176700Y429000D03*
X1176700Y454400D03*
X1202100Y429000D03*
X1202100Y454400D03*
X1227500Y429000D03*
X1227500Y454400D03*
X1252900Y429000D03*
X1252900Y454400D03*
X1278300Y429000D03*
X1278300Y454400D03*
X1303700Y429000D03*
X1303700Y454400D03*
X1329100Y429000D03*
X1329100Y454400D03*
X1354500Y429000D03*
X1354500Y454400D03*
X1379900Y429000D03*
X1379900Y454400D03*
X1405300Y429000D03*
X1405300Y454400D03*
D22*
X973500Y683000D03*
D23*
X973500Y708400D03*
X998900Y683000D03*
X998900Y708400D03*
X1024300Y683000D03*
X1024300Y708400D03*
X1049700Y683000D03*
X1049700Y708400D03*
X1075100Y683000D03*
X1075100Y708400D03*
X1100500Y683000D03*
X1100500Y708400D03*
X1125900Y683000D03*
X1125900Y708400D03*
X1151300Y683000D03*
X1151300Y708400D03*
X1176700Y683000D03*
X1176700Y708400D03*
X1202100Y683000D03*
X1202100Y708400D03*
X1227500Y683000D03*
X1227500Y708400D03*
X1252900Y683000D03*
X1252900Y708400D03*
X1278300Y683000D03*
X1278300Y708400D03*
X1303700Y683000D03*
X1303700Y708400D03*
X1329100Y683000D03*
X1329100Y708400D03*
X1354500Y683000D03*
X1354500Y708400D03*
X1379900Y683000D03*
X1379900Y708400D03*
X1405300Y683000D03*
X1405300Y708400D03*
D24*
X95280Y577100D02*
X94530Y577850D01*
X1151300Y634320D02*
X1151300Y683000D01*
X1151300Y634320D02*
X1153160Y632460D01*
X1227500Y522560D02*
X1227500Y454400D01*
X1227500Y522560D02*
X1224280Y525780D01*
X1151300Y522560D02*
X1151300Y454400D01*
X1151300Y522560D02*
X1148080Y525780D01*
X1137920Y442380D02*
X1151300Y429000D01*
X1137920Y442380D02*
X1137920Y525780D01*
D25*
X1153160Y632460D03*
X1137920Y525780D03*
X1148080Y525780D03*
X1224280Y525780D03*
D24*
X796989Y429150D02*
X778478Y429150D01*
X796989Y429150D02*
X798599Y430761D01*
D25*
X798599Y430761D03*
D24*
X720122Y435650D02*
X699730Y435650D01*
X698500Y436880D01*
D25*
X698500Y436880D03*
D24*
X698610Y429150D02*
X720122Y429150D01*
X698610Y429150D02*
X698500Y429260D01*
D25*
X698500Y429260D03*
D24*
X720832Y403860D02*
X741680Y403860D01*
X720832Y403860D02*
X720122Y403150D01*
D25*
X741680Y403860D03*
D24*
X740670Y390150D02*
X720122Y390150D01*
X740670Y390150D02*
X741680Y391160D01*
D25*
X741680Y391160D03*
D24*
X720122Y715050D02*
X697190Y715050D01*
X695960Y716280D01*
D25*
X695960Y716280D03*
D24*
X469900Y528800D02*
X469900Y480060D01*
D25*
X469900Y480060D03*
D24*
X520700Y480060D02*
X520700Y528800D01*
D25*
X520700Y480060D03*
D24*
X622300Y480060D02*
X622300Y528800D01*
D25*
X622300Y480060D03*
D24*
X330200Y685800D02*
X304800Y685800D01*
D25*
X330200Y685800D03*
D24*
X95280Y577100D02*
X71640Y577100D01*
X71120Y576580D01*
D25*
X71120Y576580D03*
D24*
X757630Y403150D02*
X778478Y403150D01*
X757630Y403150D02*
X756920Y403860D01*
D25*
X756920Y403860D03*
D24*
X756920Y390150D02*
X778478Y390150D01*
X756920Y390150D02*
X756920Y391160D01*
D25*
X756920Y391160D03*
D24*
X1125900Y615360D02*
X1125900Y683000D01*
X1252900Y525100D02*
X1252900Y454400D01*
X1252900Y525100D02*
X1252220Y525780D01*
X1249680Y525780D01*
X462280Y292100D02*
X425440Y292100D01*
D25*
X462280Y292100D03*
X1125900Y615360D03*
X1249680Y525780D03*
D24*
X739030Y383650D02*
X720122Y383650D01*
X739030Y383650D02*
X741680Y381000D01*
D25*
X741680Y381000D03*
D24*
X733950Y663050D02*
X720122Y663050D01*
X733950Y663050D02*
X736600Y660400D01*
D25*
X736600Y660400D03*
D24*
X349250Y397510D02*
X349250Y369820D01*
X349250Y397510D02*
X345440Y401320D01*
D25*
X345440Y401320D03*
D24*
X374650Y397510D02*
X374650Y369820D01*
X374650Y397510D02*
X370840Y401320D01*
D25*
X370840Y401320D03*
D24*
X778478Y435650D02*
X793790Y435650D01*
X797560Y439420D01*
D25*
X797560Y439420D03*
D24*
X798974Y383650D02*
X778478Y383650D01*
X798974Y383650D02*
X800100Y382524D01*
D25*
X800100Y382524D03*
D24*
X796330Y715050D02*
X778478Y715050D01*
X796330Y715050D02*
X797560Y716280D01*
D25*
X797560Y716280D03*
D24*
X778478Y663050D02*
X778368Y662940D01*
X778478Y663050D02*
X764430Y663050D01*
X751840Y675640D01*
D25*
X751840Y675640D03*
D24*
X260600Y439000D02*
X260600Y414020D01*
X304800Y369820D01*
X1405300Y454400D02*
X1419860Y439840D01*
X1419860Y381000D01*
D25*
X1419860Y381000D03*
X304800Y271780D03*
D24*
X304800Y341380D01*
X144260Y577100D02*
X123720Y577100D01*
X144260Y577100D02*
X144780Y576580D01*
D25*
X144780Y576580D03*
D24*
X778478Y656550D02*
X862370Y656550D01*
X863600Y655320D01*
D25*
X863600Y655320D03*
X972820Y734060D03*
D24*
X973500Y733380D01*
X973500Y708400D01*
X897630Y669550D02*
X778478Y669550D01*
X955040Y612140D02*
X957580Y612140D01*
D25*
X957580Y612140D03*
X998220Y492760D03*
D24*
X998900Y492080D01*
X998900Y454400D01*
X955040Y612140D02*
X897630Y669550D01*
X1024300Y708400D02*
X1036320Y696380D01*
X1036320Y614680D01*
D25*
X1036320Y614680D03*
D24*
X787328Y368300D02*
X778478Y377150D01*
X787328Y368300D02*
X817880Y368300D01*
X970280Y520700D01*
X970280Y528320D01*
D25*
X970280Y528320D03*
D24*
X1100500Y617900D02*
X1100500Y683000D01*
X1100500Y617900D02*
X1097280Y614680D01*
D25*
X1097280Y614680D03*
D24*
X806200Y341380D02*
X374650Y341380D01*
X806200Y341380D02*
X998220Y533400D01*
D25*
X998220Y533400D03*
D24*
X374650Y341380D02*
X360430Y355600D01*
X330200Y355600D01*
X330200Y276860D01*
X375920Y276860D01*
X375920Y290820D01*
X374640Y292100D01*
X349250Y292110D02*
X349240Y292100D01*
X1075100Y617900D02*
X1075100Y683000D01*
X1075100Y617900D02*
X1071880Y614680D01*
D25*
X1071880Y614680D03*
D24*
X370590Y320040D02*
X349250Y341380D01*
X370590Y320040D02*
X805180Y320040D01*
D25*
X988060Y513080D03*
D24*
X988060Y502920D02*
X805180Y320040D01*
X988060Y502920D02*
X988060Y513080D01*
X349250Y341380D02*
X349250Y292110D01*
X1202100Y429000D02*
X1319950Y311150D01*
X1363980Y311150D01*
X1365500Y309630D01*
X1365500Y284480D01*
X1360420Y279400D01*
X1382780Y279400D01*
X1416300Y157480D02*
X1411220Y152400D01*
X1416300Y157480D02*
X1416300Y210820D01*
X1411220Y215900D01*
X1117600Y38100D02*
X1104900Y50800D01*
X1117600Y38100D02*
X1409700Y38100D01*
X1411220Y39620D01*
X1411220Y152400D01*
X1213530Y433735D02*
X1206835Y440430D01*
X1190670Y440430D02*
X1176700Y454400D01*
X1190670Y440430D02*
X1206835Y440430D01*
X1213530Y433735D02*
X1213530Y426806D01*
X1322836Y317500D01*
X1421380Y299720D02*
X1421380Y289560D01*
X1411220Y279400D01*
X1421380Y299720D02*
X1403600Y317500D01*
X1322836Y317500D01*
X1411220Y279400D02*
X1416300Y274320D01*
X1416300Y220980D01*
X1411220Y215900D01*
X1176700Y109900D02*
X1176700Y429000D01*
X1136650Y69850D02*
X1079500Y69850D01*
X1079500Y50800D01*
X1136650Y69850D02*
X1176700Y109900D01*
X1360420Y215900D02*
X1382780Y215900D01*
X1326300Y322580D02*
X1227500Y421380D01*
X1227500Y429000D01*
X1326300Y322580D02*
X1432560Y322580D01*
X1432560Y248920D01*
D25*
X1432560Y248920D03*
X1379220Y243840D03*
D24*
X1379220Y219460D01*
X1382780Y215900D01*
X1061720Y696380D02*
X1049700Y708400D01*
X1061720Y696380D02*
X1061720Y614680D01*
D25*
X1061720Y614680D03*
D24*
X805180Y422650D02*
X778478Y422650D01*
X805180Y422650D02*
X806190Y422650D01*
X805180Y422650D02*
X961650Y579120D01*
X998220Y579120D01*
D25*
X998220Y579120D03*
D24*
X923550Y702050D02*
X778478Y702050D01*
X923550Y702050D02*
X1018540Y607060D01*
X1087120Y607060D01*
X1087120Y696380D02*
X1075100Y708400D01*
X1087120Y696380D02*
X1087120Y607060D01*
X1176700Y708400D02*
X1188720Y696380D01*
X1188720Y614680D01*
D25*
X1188720Y614680D03*
X1188720Y571500D03*
D24*
X972359Y571500D01*
X817009Y416150D01*
X778478Y416150D01*
X1227500Y708400D02*
X1239520Y696380D01*
X919890Y695550D02*
X778478Y695550D01*
X1018540Y596900D02*
X1239520Y596900D01*
X1018540Y596900D02*
X919890Y695550D01*
X1239520Y696380D02*
X1239520Y596900D01*
X1264920Y696380D02*
X1252900Y708400D01*
X916230Y689050D02*
X778478Y689050D01*
X916230Y689050D02*
X1018540Y586740D01*
X1264920Y586740D01*
X1264920Y696380D01*
X1379900Y683000D02*
X1379900Y615360D01*
X818590Y409650D02*
X778478Y409650D01*
X973582Y564642D02*
X1329182Y564642D01*
X973582Y564642D02*
X818590Y409650D01*
X1329182Y564642D02*
X1379900Y615360D01*
X912570Y682550D02*
X778478Y682550D01*
X912570Y682550D02*
X1016762Y578358D01*
D25*
X1325880Y581660D03*
D24*
X1322578Y578358D02*
X1016762Y578358D01*
X1322578Y578358D02*
X1325880Y581660D01*
D25*
X1376680Y528320D03*
D24*
X1379900Y525100D01*
X1379900Y454400D01*
X906370Y676050D02*
X778478Y676050D01*
X906370Y676050D02*
X955040Y627380D01*
D25*
X955040Y627380D03*
X998220Y655320D03*
D24*
X998220Y682320D01*
X998900Y683000D01*
X818290Y396650D02*
X778478Y396650D01*
X970280Y548640D02*
X1201420Y548640D01*
X1202100Y547960D01*
X1202100Y454400D01*
X970280Y548640D02*
X818290Y396650D01*
X1130300Y50800D02*
X1181100Y101600D01*
X1301750Y101600D01*
X1308100Y107950D01*
X1308100Y279400D01*
X1331980Y279400D01*
X1331980Y215900D02*
X1314450Y198370D01*
X1314450Y63500D01*
X1155700Y63500D01*
X1155700Y50800D01*
X1331980Y61980D02*
X1331980Y152400D01*
X1320800Y50800D02*
X1181100Y50800D01*
X1320800Y50800D02*
X1331980Y61980D01*
X947950Y708550D02*
X778478Y708550D01*
X947950Y708550D02*
X973500Y683000D01*
X1360420Y152400D02*
X1382780Y152400D01*
X1360420Y152400D02*
X1360420Y172970D01*
D25*
X1371600Y184150D03*
D24*
X1360420Y172970D01*
X1176700Y615360D02*
X1176700Y683000D01*
X1176700Y615360D02*
X1176020Y614680D01*
D25*
X1176020Y614680D03*
D24*
X720122Y377150D02*
X544870Y377150D01*
X444500Y477520D01*
X444500Y528800D01*
X495300Y528800D02*
X495300Y477520D01*
X576170Y396650D01*
X720122Y396650D01*
X546100Y477520D02*
X546100Y528800D01*
X546100Y477520D02*
X613970Y409650D01*
X720122Y409650D01*
X571500Y477520D02*
X571500Y528800D01*
X571500Y477520D02*
X632870Y416150D01*
X720122Y416150D01*
X720122Y422650D02*
X701589Y422650D01*
X701341Y422402D01*
X652018Y422402D01*
X596900Y477520D01*
X596900Y528800D01*
X444500Y588800D02*
X444500Y624840D01*
D25*
X444500Y624840D03*
D24*
X447040Y645160D02*
X622300Y645160D01*
X447040Y645160D02*
X444500Y642620D01*
D25*
X444500Y642620D03*
D24*
X718892Y655320D02*
X720122Y656550D01*
X718892Y655320D02*
X632460Y655320D01*
X622300Y645160D01*
X469900Y624840D02*
X469900Y588800D01*
D25*
X469900Y624840D03*
D24*
X718956Y668384D02*
X720122Y669550D01*
X718956Y668384D02*
X713591Y668384D01*
X713227Y668020D01*
X631589Y668020D01*
X618889Y655320D02*
X469900Y655320D01*
D25*
X469900Y655320D03*
D24*
X618889Y655320D02*
X631589Y668020D01*
X495300Y624840D02*
X495300Y588800D01*
D25*
X495300Y624840D03*
D24*
X719712Y675640D02*
X720122Y676050D01*
D25*
X495300Y665480D03*
D24*
X496062Y666242D01*
X622626Y666242D02*
X632024Y675640D01*
X622626Y666242D02*
X496062Y666242D01*
X632024Y675640D02*
X719712Y675640D01*
X520700Y624840D02*
X520700Y588800D01*
D25*
X520700Y624840D03*
D24*
X631750Y682550D02*
X720122Y682550D01*
X622300Y673100D02*
X520700Y673100D01*
D25*
X520700Y673100D03*
D24*
X622300Y673100D02*
X631750Y682550D01*
X546100Y624840D02*
X546100Y588800D01*
D25*
X546100Y624840D03*
D24*
X628090Y689050D02*
X720122Y689050D01*
X622300Y683260D02*
X546100Y683260D01*
D25*
X546100Y683260D03*
D24*
X622300Y683260D02*
X628090Y689050D01*
X596900Y624840D02*
X596900Y588800D01*
D25*
X596900Y624840D03*
D24*
X625850Y702050D02*
X720122Y702050D01*
X625850Y702050D02*
X622300Y698500D01*
X596900Y698500D01*
D25*
X596900Y698500D03*
D24*
X622300Y624840D02*
X622300Y588800D01*
D25*
X622300Y624840D03*
D24*
X622410Y708550D02*
X720122Y708550D01*
X622410Y708550D02*
X622300Y708660D01*
D25*
X622300Y708660D03*
D24*
X571500Y624840D02*
X571500Y588800D01*
D25*
X571500Y624840D03*
D24*
X718956Y694384D02*
X720122Y695550D01*
D25*
X571500Y690880D03*
D24*
X572262Y691642D01*
X622626Y691642D01*
X625368Y694384D01*
X718956Y694384D01*
X186000Y685800D02*
X177800Y677600D01*
X186000Y685800D02*
X254000Y685800D01*
M02*
