G04 EAGLE Gerber RS-274X export*
G75*
%MOMM*%
%FSLAX34Y34*%
%LPD*%
%INSilkscreen Bottom*%
%IPPOS*%
%AMOC8*
5,1,8,0,0,1.08239X$1,22.5*%
G01*
%ADD10C,0.254000*%
%ADD11C,0.101600*%
%ADD12C,0.152400*%


D10*
X1164082Y441706D02*
X1138682Y441706D01*
X1113282Y441706D01*
X1011682Y441706D01*
X986282Y441706D01*
X1189482Y441706D02*
X1189482Y515366D01*
X1189482Y441706D02*
X1214882Y441706D01*
X1240282Y441706D01*
X1265682Y441706D01*
X1316482Y441706D01*
X1367282Y441706D01*
X1392682Y441706D01*
X1164082Y695706D02*
X1138682Y695706D01*
X1113282Y695706D01*
X1062482Y695706D01*
X1011682Y695706D01*
X1164082Y695706D02*
X1189482Y695706D01*
X1214882Y695706D01*
X1240282Y695706D01*
X1265682Y695706D01*
X1291082Y695706D01*
X1367282Y695706D01*
X1392682Y695706D01*
X986282Y441706D02*
X986282Y398780D01*
X1164082Y394970D02*
X1164082Y441706D01*
X1316482Y441706D02*
X1316482Y394970D01*
X1392682Y398780D02*
X1392682Y441706D01*
X1367282Y441706D02*
X1367282Y515366D01*
X1316482Y515366D02*
X1316482Y441706D01*
X1265682Y441706D02*
X1265682Y515366D01*
X1164082Y515366D02*
X1164082Y441706D01*
X1011682Y441706D02*
X1011682Y515366D01*
X1011682Y622046D02*
X1011682Y695706D01*
X1062482Y695706D02*
X1062482Y622046D01*
X1113282Y622046D02*
X1113282Y695706D01*
X1164082Y695706D02*
X1164082Y622046D01*
X1113282Y695706D02*
X1113282Y742696D01*
X1164082Y742696D02*
X1164082Y695706D01*
X1392682Y695706D02*
X1392682Y737616D01*
X1291082Y742696D02*
X1291082Y695706D01*
X1265682Y695706D02*
X1265682Y622046D01*
X1367282Y622046D02*
X1367282Y695706D01*
X1214882Y515366D02*
X1214882Y441706D01*
X1214882Y622046D02*
X1214882Y695706D01*
D11*
X1274699Y734969D02*
X1281811Y734969D01*
X1274699Y734969D02*
X1274699Y732993D01*
X1274701Y732906D01*
X1274707Y732818D01*
X1274716Y732731D01*
X1274730Y732645D01*
X1274747Y732559D01*
X1274768Y732475D01*
X1274793Y732391D01*
X1274822Y732308D01*
X1274854Y732227D01*
X1274889Y732147D01*
X1274928Y732069D01*
X1274971Y731992D01*
X1275017Y731918D01*
X1275066Y731846D01*
X1275118Y731776D01*
X1275174Y731708D01*
X1275232Y731643D01*
X1275293Y731580D01*
X1275357Y731521D01*
X1275424Y731464D01*
X1275492Y731410D01*
X1275564Y731359D01*
X1275637Y731312D01*
X1275712Y731267D01*
X1275790Y731226D01*
X1275869Y731189D01*
X1275949Y731155D01*
X1276031Y731125D01*
X1276114Y731098D01*
X1276199Y731075D01*
X1276284Y731056D01*
X1276370Y731041D01*
X1276457Y731029D01*
X1276544Y731021D01*
X1276631Y731017D01*
X1276719Y731017D01*
X1276806Y731021D01*
X1276893Y731029D01*
X1276980Y731041D01*
X1277066Y731056D01*
X1277151Y731075D01*
X1277236Y731098D01*
X1277319Y731125D01*
X1277401Y731155D01*
X1277481Y731189D01*
X1277560Y731226D01*
X1277638Y731267D01*
X1277713Y731312D01*
X1277786Y731359D01*
X1277858Y731410D01*
X1277926Y731464D01*
X1277993Y731521D01*
X1278057Y731580D01*
X1278118Y731643D01*
X1278176Y731708D01*
X1278232Y731776D01*
X1278284Y731846D01*
X1278333Y731918D01*
X1278379Y731992D01*
X1278422Y732069D01*
X1278461Y732147D01*
X1278496Y732227D01*
X1278528Y732308D01*
X1278557Y732391D01*
X1278582Y732475D01*
X1278603Y732559D01*
X1278620Y732645D01*
X1278634Y732731D01*
X1278643Y732818D01*
X1278649Y732906D01*
X1278651Y732993D01*
X1278650Y732993D02*
X1278650Y734969D01*
X1278650Y732598D02*
X1281811Y731018D01*
X1281811Y725587D02*
X1281809Y725509D01*
X1281803Y725432D01*
X1281794Y725355D01*
X1281781Y725279D01*
X1281764Y725203D01*
X1281743Y725128D01*
X1281719Y725055D01*
X1281691Y724982D01*
X1281659Y724911D01*
X1281624Y724842D01*
X1281586Y724775D01*
X1281545Y724709D01*
X1281500Y724646D01*
X1281452Y724585D01*
X1281402Y724526D01*
X1281348Y724470D01*
X1281292Y724416D01*
X1281233Y724366D01*
X1281172Y724318D01*
X1281109Y724273D01*
X1281043Y724232D01*
X1280976Y724194D01*
X1280907Y724159D01*
X1280836Y724127D01*
X1280763Y724099D01*
X1280690Y724075D01*
X1280615Y724054D01*
X1280539Y724037D01*
X1280463Y724024D01*
X1280386Y724015D01*
X1280309Y724009D01*
X1280231Y724007D01*
X1281811Y725587D02*
X1281809Y725702D01*
X1281803Y725816D01*
X1281793Y725930D01*
X1281780Y726044D01*
X1281762Y726157D01*
X1281740Y726270D01*
X1281715Y726382D01*
X1281686Y726493D01*
X1281653Y726602D01*
X1281616Y726711D01*
X1281576Y726818D01*
X1281532Y726924D01*
X1281484Y727028D01*
X1281433Y727131D01*
X1281378Y727231D01*
X1281320Y727330D01*
X1281258Y727427D01*
X1281194Y727521D01*
X1281126Y727614D01*
X1281054Y727704D01*
X1280980Y727791D01*
X1280903Y727876D01*
X1280823Y727958D01*
X1276279Y727761D02*
X1276201Y727759D01*
X1276124Y727753D01*
X1276047Y727744D01*
X1275971Y727731D01*
X1275895Y727714D01*
X1275820Y727693D01*
X1275746Y727669D01*
X1275674Y727641D01*
X1275603Y727609D01*
X1275534Y727574D01*
X1275466Y727536D01*
X1275401Y727495D01*
X1275337Y727450D01*
X1275276Y727402D01*
X1275217Y727351D01*
X1275161Y727298D01*
X1275108Y727242D01*
X1275057Y727183D01*
X1275009Y727122D01*
X1274964Y727058D01*
X1274923Y726993D01*
X1274885Y726925D01*
X1274850Y726856D01*
X1274818Y726785D01*
X1274790Y726713D01*
X1274766Y726639D01*
X1274745Y726564D01*
X1274728Y726488D01*
X1274715Y726412D01*
X1274706Y726335D01*
X1274700Y726258D01*
X1274698Y726180D01*
X1274699Y726180D02*
X1274701Y726074D01*
X1274707Y725968D01*
X1274716Y725863D01*
X1274729Y725758D01*
X1274746Y725653D01*
X1274767Y725549D01*
X1274791Y725446D01*
X1274819Y725344D01*
X1274851Y725243D01*
X1274886Y725143D01*
X1274925Y725045D01*
X1274968Y724947D01*
X1275013Y724852D01*
X1275062Y724758D01*
X1275115Y724666D01*
X1275171Y724576D01*
X1275230Y724488D01*
X1275292Y724402D01*
X1277662Y726970D02*
X1277620Y727037D01*
X1277575Y727102D01*
X1277526Y727165D01*
X1277475Y727226D01*
X1277420Y727283D01*
X1277363Y727338D01*
X1277303Y727391D01*
X1277241Y727440D01*
X1277176Y727486D01*
X1277110Y727528D01*
X1277041Y727568D01*
X1276970Y727604D01*
X1276897Y727636D01*
X1276823Y727665D01*
X1276748Y727690D01*
X1276672Y727711D01*
X1276594Y727729D01*
X1276516Y727742D01*
X1276437Y727752D01*
X1276358Y727758D01*
X1276279Y727760D01*
X1278848Y724797D02*
X1278890Y724730D01*
X1278935Y724665D01*
X1278984Y724602D01*
X1279035Y724541D01*
X1279090Y724484D01*
X1279147Y724429D01*
X1279207Y724376D01*
X1279269Y724327D01*
X1279334Y724281D01*
X1279400Y724239D01*
X1279469Y724199D01*
X1279540Y724163D01*
X1279613Y724131D01*
X1279687Y724102D01*
X1279762Y724077D01*
X1279838Y724056D01*
X1279916Y724038D01*
X1279994Y724025D01*
X1280073Y724015D01*
X1280152Y724009D01*
X1280231Y724007D01*
X1278848Y724797D02*
X1277662Y726970D01*
X1274699Y719399D02*
X1281811Y719399D01*
X1274699Y721374D02*
X1274699Y717423D01*
D12*
X1348867Y482480D02*
X1360043Y482480D01*
X1348867Y482480D02*
X1348867Y479375D01*
X1348869Y479264D01*
X1348875Y479154D01*
X1348885Y479043D01*
X1348899Y478933D01*
X1348916Y478824D01*
X1348938Y478715D01*
X1348963Y478607D01*
X1348993Y478501D01*
X1349026Y478395D01*
X1349063Y478290D01*
X1349103Y478187D01*
X1349148Y478086D01*
X1349195Y477986D01*
X1349247Y477887D01*
X1349302Y477791D01*
X1349360Y477697D01*
X1349421Y477605D01*
X1349486Y477515D01*
X1349554Y477427D01*
X1349625Y477342D01*
X1349699Y477260D01*
X1349776Y477180D01*
X1349856Y477103D01*
X1349938Y477029D01*
X1350023Y476958D01*
X1350111Y476890D01*
X1350201Y476825D01*
X1350293Y476764D01*
X1350387Y476706D01*
X1350483Y476651D01*
X1350582Y476599D01*
X1350682Y476552D01*
X1350783Y476507D01*
X1350886Y476467D01*
X1350991Y476430D01*
X1351097Y476397D01*
X1351203Y476367D01*
X1351311Y476342D01*
X1351420Y476320D01*
X1351529Y476303D01*
X1351639Y476289D01*
X1351750Y476279D01*
X1351860Y476273D01*
X1351971Y476271D01*
X1352082Y476273D01*
X1352192Y476279D01*
X1352303Y476289D01*
X1352413Y476303D01*
X1352522Y476320D01*
X1352631Y476342D01*
X1352739Y476367D01*
X1352845Y476397D01*
X1352951Y476430D01*
X1353056Y476467D01*
X1353159Y476507D01*
X1353260Y476552D01*
X1353360Y476599D01*
X1353459Y476651D01*
X1353555Y476706D01*
X1353649Y476764D01*
X1353741Y476825D01*
X1353831Y476890D01*
X1353919Y476958D01*
X1354004Y477029D01*
X1354086Y477103D01*
X1354166Y477180D01*
X1354243Y477260D01*
X1354317Y477342D01*
X1354388Y477427D01*
X1354456Y477515D01*
X1354521Y477605D01*
X1354582Y477697D01*
X1354640Y477791D01*
X1354695Y477887D01*
X1354747Y477986D01*
X1354794Y478086D01*
X1354839Y478187D01*
X1354879Y478290D01*
X1354916Y478395D01*
X1354949Y478501D01*
X1354979Y478607D01*
X1355004Y478715D01*
X1355026Y478824D01*
X1355043Y478933D01*
X1355057Y479043D01*
X1355067Y479154D01*
X1355073Y479264D01*
X1355075Y479375D01*
X1355076Y479375D02*
X1355076Y482480D01*
X1355076Y478754D02*
X1360043Y476271D01*
X1360043Y471763D02*
X1348867Y464312D01*
X1348867Y471763D02*
X1360043Y464312D01*
D10*
X1392682Y695706D02*
X1418082Y695706D01*
X1418082Y652526D01*
X1418082Y622046D01*
X1011682Y695706D02*
X986282Y695706D01*
X960882Y695706D01*
X960882Y441706D02*
X986282Y441706D01*
X960882Y441706D02*
X960882Y484886D01*
X960882Y515366D01*
X986282Y515366D02*
X1011682Y515366D01*
X986282Y515366D02*
X960882Y515366D01*
X1011682Y515366D02*
X1113282Y515366D01*
X1113282Y441706D01*
X1138682Y515366D02*
X1164082Y515366D01*
X1138682Y515366D02*
X1113282Y515366D01*
X1164082Y515366D02*
X1189482Y515366D01*
X1214882Y515366D01*
X1240282Y515366D01*
X1265682Y515366D01*
X1316482Y515366D01*
X1367282Y515366D01*
X1392682Y515366D01*
X1418082Y515366D01*
X1418082Y484886D02*
X1418082Y441706D01*
X1418082Y484886D02*
X1418082Y515366D01*
X1418082Y441706D02*
X1392682Y441706D01*
X1392682Y515366D01*
X1418082Y484886D02*
X1443482Y484886D01*
X1443482Y432816D01*
X960882Y484886D02*
X935482Y484886D01*
X935482Y432816D01*
X1265682Y622046D02*
X1367282Y622046D01*
X1392682Y622046D01*
X1418082Y622046D01*
X1240282Y622046D02*
X1214882Y622046D01*
X1240282Y622046D02*
X1265682Y622046D01*
X1189482Y622046D02*
X1164082Y622046D01*
X1189482Y622046D02*
X1214882Y622046D01*
X1138682Y622046D02*
X1113282Y622046D01*
X1138682Y622046D02*
X1164082Y622046D01*
X1113282Y622046D02*
X1062482Y622046D01*
X1011682Y622046D01*
X986282Y622046D02*
X960882Y622046D01*
X986282Y622046D02*
X1011682Y622046D01*
X960882Y652526D02*
X960882Y695706D01*
X960882Y652526D02*
X960882Y622046D01*
X960882Y652526D02*
X935482Y652526D01*
X935482Y704596D01*
X1265682Y695706D02*
X1265682Y742696D01*
X986282Y515366D02*
X986282Y441706D01*
X1392682Y622046D02*
X1392682Y695706D01*
X1240282Y695706D02*
X1240282Y622046D01*
X1189482Y622046D02*
X1189482Y695706D01*
X1138682Y695706D02*
X1138682Y622046D01*
X986282Y622046D02*
X986282Y695706D01*
X1418082Y652526D02*
X1443482Y652526D01*
X1443482Y704596D01*
X1240282Y515366D02*
X1240282Y441706D01*
X1138682Y441706D02*
X1138682Y515366D01*
X986282Y695706D02*
X986282Y716026D01*
M02*
