G04 EAGLE Gerber RS-274X export*
G75*
%MOMM*%
%FSLAX34Y34*%
%LPD*%
%INSolderpaste Top*%
%IPPOS*%
%AMOC8*
5,1,8,0,0,1.08239X$1,22.5*%
G01*
%ADD10R,0.990600X0.304800*%
%ADD11R,1.803000X1.600000*%
%ADD12R,1.600000X1.803000*%
%ADD13R,1.020000X5.000000*%


D10*
X778478Y377150D03*
X778478Y383650D03*
X778478Y390150D03*
X778478Y396650D03*
X778478Y403150D03*
X778478Y409650D03*
X778478Y416150D03*
X778478Y422650D03*
X778478Y429150D03*
X778478Y435650D03*
X720122Y435650D03*
X720122Y429150D03*
X720122Y422650D03*
X720122Y416150D03*
X720122Y409650D03*
X720122Y403150D03*
X720122Y396650D03*
X720122Y390150D03*
X720122Y383650D03*
X720122Y377150D03*
X778478Y656550D03*
X778478Y663050D03*
X778478Y669550D03*
X778478Y676050D03*
X778478Y682550D03*
X778478Y689050D03*
X778478Y695550D03*
X778478Y702050D03*
X778478Y708550D03*
X778478Y715050D03*
X720122Y715050D03*
X720122Y708550D03*
X720122Y702050D03*
X720122Y695550D03*
X720122Y689050D03*
X720122Y682550D03*
X720122Y676050D03*
X720122Y669550D03*
X720122Y663050D03*
X720122Y656550D03*
D11*
X349250Y341380D03*
X349250Y369820D03*
X374650Y341380D03*
X374650Y369820D03*
D12*
X1360420Y152400D03*
X1331980Y152400D03*
X1360420Y279400D03*
X1331980Y279400D03*
X1360420Y215900D03*
X1331980Y215900D03*
X1411220Y279400D03*
X1382780Y279400D03*
X1411220Y215900D03*
X1382780Y215900D03*
X1411220Y152400D03*
X1382780Y152400D03*
D11*
X304800Y341380D03*
X304800Y369820D03*
D12*
X123720Y577100D03*
X95280Y577100D03*
D13*
X444500Y528800D03*
X444500Y588800D03*
X469900Y528800D03*
X469900Y588800D03*
X495300Y528800D03*
X495300Y588800D03*
X520700Y528800D03*
X520700Y588800D03*
X546100Y528800D03*
X546100Y588800D03*
X571500Y528800D03*
X571500Y588800D03*
X596900Y528800D03*
X596900Y588800D03*
X622300Y528800D03*
X622300Y588800D03*
M02*
